{"glyphs":{"0":{"ha":719,"x_min":35,"x_max":711,"o":"m 35 407 q 116 710 35 604 q 342 823 196 816 q 459 814 408 823 q 552 785 510 805 q 623 733 594 765 q 672 654 652 701 q 701 547 692 608 q 711 407 711 486 q 633 104 711 210 q 410 -8 555 -1 q 271 5 330 -8 q 167 47 213 18 q 93 125 121 77 q 50 243 64 174 q 35 407 35 313 m 316 407 q 319 311 316 348 q 331 257 323 275 q 348 233 339 239 q 373 228 357 228 q 398 233 389 228 q 415 257 407 239 q 427 311 423 275 q 430 407 430 348 q 427 488 430 454 q 419 540 424 521 q 406 569 414 559 q 389 583 398 580 q 369 586 381 586 q 352 584 359 586 q 339 575 346 582 q 329 557 333 569 q 322 525 325 545 q 317 476 319 505 q 316 407 316 447 z "},"1":{"ha":391,"x_min":27,"x_max":355,"o":"m 27 598 q 31 789 27 698 q 121 806 67 797 q 205 818 174 815 q 336 815 258 818 q 346 811 342 815 q 350 802 350 807 q 355 407 355 547 q 350 0 355 217 q 231 -3 286 -3 q 92 0 175 -3 q 83 4 87 0 q 79 14 79 8 q 73 407 73 269 q 75 600 73 507 l 27 598 z "},"2":{"ha":629,"x_min":54,"x_max":610,"o":"m 54 224 q 63 298 54 263 q 84 358 72 332 q 117 407 96 383 q 156 445 139 431 q 201 477 173 460 q 245 502 230 494 q 288 522 261 509 q 311 533 304 530 q 331 543 319 537 q 348 553 342 549 q 360 563 354 557 q 369 574 367 568 q 372 585 372 579 q 350 613 372 603 q 294 623 328 623 q 237 618 265 623 q 181 603 208 613 q 140 586 155 593 q 104 568 124 578 l 73 793 q 281 823 196 823 q 358 822 327 823 q 427 815 390 820 q 489 800 464 810 q 539 773 514 790 q 578 731 564 755 q 601 670 592 706 q 610 588 610 634 q 606 540 610 563 q 596 498 602 517 q 579 462 590 480 q 558 432 568 445 q 532 405 547 418 q 505 383 517 392 q 475 363 493 374 q 447 346 458 352 q 418 331 435 340 q 353 294 368 304 q 327 254 327 274 l 327 231 l 341 231 q 589 228 506 231 q 598 224 594 228 q 602 214 602 220 q 604 98 604 133 q 602 -3 604 44 q 361 -6 538 -6 q 219 -4 328 -6 q 73 0 109 -1 q 64 4 68 0 q 60 14 60 8 q 54 224 54 134 z "},"3":{"ha":591,"x_min":33,"x_max":591,"o":"m 33 800 q 252 823 125 823 q 355 817 311 823 q 438 793 400 810 q 500 750 476 777 q 537 683 524 724 q 551 588 551 642 q 472 412 551 481 q 560 338 529 381 q 591 246 591 294 q 583 164 591 200 q 558 101 574 127 q 519 56 543 75 q 468 25 495 36 q 407 6 442 13 q 338 -4 372 -2 q 262 -7 304 -7 q 148 -3 195 -7 q 34 12 102 1 l 58 220 l 250 220 q 303 232 287 220 q 319 270 319 244 q 303 307 319 294 q 259 320 287 320 l 118 320 l 118 509 l 233 509 q 289 520 268 509 q 311 558 311 532 q 292 596 311 585 q 237 608 273 608 l 57 608 l 33 800 z "},"4":{"ha":662,"x_min":18,"x_max":627,"o":"m 18 197 q 19 261 18 202 q 123 572 60 392 q 217 817 186 753 q 400 819 303 819 q 608 814 475 819 q 617 810 613 814 q 621 800 621 806 q 627 407 627 545 q 621 0 627 217 q 512 -2 571 -2 q 385 0 459 -2 q 376 4 380 0 q 372 14 372 8 q 370 128 370 90 q 269 127 324 127 q 33 131 116 127 q 23 134 27 131 q 19 144 19 138 q 18 197 18 169 m 268 339 q 371 338 364 338 q 371 372 371 349 q 372 407 372 395 q 377 639 372 481 q 268 339 322 470 z "},"5":{"ha":618,"x_min":54,"x_max":618,"o":"m 54 12 l 79 220 l 277 220 q 330 233 313 220 q 346 274 346 247 q 330 313 346 298 q 286 328 313 328 l 73 328 q 63 330 66 328 q 60 336 60 331 q 57 415 57 374 q 62 814 57 597 q 322 817 127 817 q 570 814 487 817 q 579 810 575 814 q 583 800 583 806 q 585 683 585 718 q 583 583 585 630 q 307 580 521 580 l 307 510 q 339 511 323 511 q 443 497 396 511 q 522 459 490 483 q 576 401 554 434 q 608 329 598 367 q 618 249 618 291 q 610 166 618 203 q 585 103 601 130 q 546 57 570 77 q 496 26 523 38 q 434 6 469 14 q 365 -4 399 -1 q 289 -7 331 -7 q 171 -3 221 -7 q 54 12 121 2 z "},"6":{"ha":678,"x_min":35,"x_max":670,"o":"m 315 282 q 331 237 315 256 q 377 217 347 217 q 412 235 399 217 q 426 282 426 253 q 410 327 426 308 q 366 347 393 347 q 329 327 343 347 q 315 282 315 308 m 35 407 q 52 573 35 501 q 99 692 69 645 q 175 769 130 739 q 274 811 221 798 q 395 823 328 823 q 635 800 491 823 l 606 586 l 368 586 q 333 573 346 586 q 313 523 320 561 q 362 529 330 526 q 412 532 395 532 q 528 512 478 532 q 609 458 578 492 q 655 380 640 424 q 670 285 670 336 q 599 65 670 138 q 380 -8 528 -8 q 302 -3 338 -8 q 230 15 266 2 q 165 48 194 28 q 112 102 137 69 q 71 176 87 134 q 45 278 54 219 q 35 407 35 336 z "},"7":{"ha":610,"x_min":18,"x_max":622,"o":"m 18 711 q 19 814 18 765 q 371 817 84 817 q 608 814 525 817 q 617 810 613 814 q 621 800 621 806 q 622 734 622 766 q 621 665 622 702 q 591 609 617 656 q 539 514 564 563 q 486 408 513 466 q 440 298 458 350 q 423 214 423 247 l 422 113 q 423 0 422 56 q 289 -3 362 -3 q 133 0 215 -3 q 123 4 127 0 q 119 14 119 8 l 119 170 q 197 365 148 269 q 322 581 247 461 q 33 586 102 584 q 23 590 27 586 q 19 600 19 594 q 18 711 18 677 z "},"8":{"ha":711,"x_min":27,"x_max":711,"o":"m 27 235 q 59 333 27 284 q 146 412 91 382 q 68 587 68 481 q 81 683 68 642 q 119 751 95 724 q 182 794 144 778 q 265 817 220 810 q 369 823 310 823 q 473 817 428 823 q 556 794 518 810 q 618 751 594 778 q 656 683 643 724 q 670 587 670 642 q 591 412 670 481 q 679 333 647 382 q 711 235 711 284 q 706 174 711 202 q 693 124 702 146 q 673 84 685 102 q 645 53 662 66 q 611 29 629 39 q 572 12 594 19 q 527 0 549 5 q 478 -7 505 -4 q 425 -10 450 -9 q 370 -11 400 -11 q 314 -10 339 -11 q 261 -7 289 -9 q 212 0 234 -4 q 167 12 190 5 q 127 29 144 19 q 93 53 110 39 q 65 84 77 66 q 45 124 54 102 q 32 174 36 146 q 27 235 27 202 m 296 256 q 314 213 296 229 q 369 198 332 198 q 424 213 406 198 q 442 256 442 229 q 422 298 442 283 q 370 312 402 312 q 316 298 337 312 q 296 256 296 283 m 305 570 q 324 532 305 546 q 370 517 342 517 q 415 532 396 517 q 433 570 433 546 q 415 610 433 595 q 369 624 397 624 q 323 610 340 624 q 305 570 305 595 z "},"9":{"ha":678,"x_min":35,"x_max":670,"o":"m 279 533 q 296 488 279 507 q 339 469 312 469 q 376 488 362 469 q 390 533 390 507 q 374 579 390 559 q 329 598 358 598 q 293 580 307 598 q 279 533 279 562 m 35 530 q 106 750 35 677 q 326 823 178 823 q 404 818 368 823 q 476 800 440 813 q 540 767 511 787 q 593 714 568 746 q 635 639 618 681 q 661 538 651 596 q 670 408 670 479 q 653 242 670 314 q 606 123 636 171 q 530 47 576 76 q 431 4 485 17 q 311 -8 378 -8 q 71 15 214 -8 l 99 229 l 338 229 q 372 242 359 229 q 393 293 386 254 q 343 286 376 289 q 293 283 310 283 q 177 303 228 283 q 96 357 127 323 q 51 435 66 392 q 35 530 35 479 z "}," ":{"ha":407,"x_min":0,"x_max":0,"o":""},"!":{"ha":347,"x_min":60,"x_max":315,"o":"m 70 117 q 71 210 70 161 q 171 213 120 213 q 288 210 216 213 q 297 206 293 210 q 301 197 301 202 q 302 93 302 142 q 301 0 302 49 q 228 -2 271 -2 q 84 3 165 -2 q 74 7 78 3 q 71 16 71 11 q 70 117 70 70 m 60 543 q 65 814 60 675 q 184 817 130 817 q 296 814 230 817 q 305 810 301 813 q 309 800 309 806 q 315 543 315 655 q 307 271 315 424 q 211 268 258 268 q 79 271 125 268 q 69 276 73 272 q 65 285 65 279 q 60 543 60 430 z "},"\"":{"ha":570,"x_min":40,"x_max":546,"o":"m 40 674 q 41 741 40 695 q 41 810 41 786 q 44 819 41 815 q 53 823 48 823 q 149 824 69 824 q 244 823 228 824 q 254 819 250 823 q 258 810 258 815 q 258 743 258 786 q 258 680 258 701 q 232 558 254 639 q 201 450 210 477 q 144 449 183 449 q 68 450 103 449 q 55 549 64 470 q 40 674 45 628 m 328 674 q 328 741 328 695 q 329 810 329 786 q 332 819 329 815 q 341 823 335 823 q 436 824 357 824 q 532 823 516 824 q 541 819 537 823 q 545 810 545 815 q 546 743 545 786 q 546 680 546 701 q 519 558 541 639 q 488 450 498 477 q 432 449 470 449 q 356 450 390 449 q 342 549 352 470 q 328 674 332 628 z "},"#":{"ha":708,"x_min":37,"x_max":697,"o":"m 37 261 q 39 339 37 268 q 152 341 66 340 q 152 367 152 350 q 152 393 152 385 q 152 475 152 446 q 61 477 67 477 q 52 481 56 477 q 47 491 48 485 q 46 535 46 524 q 49 613 46 542 q 154 615 75 614 q 157 787 155 690 q 236 788 203 788 q 304 787 267 788 q 313 783 309 787 q 317 773 317 779 q 320 616 320 660 q 363 616 339 616 q 390 616 387 616 l 414 616 q 418 787 415 688 q 496 788 464 788 q 564 787 527 788 q 574 783 570 787 q 578 773 578 779 q 581 615 580 657 q 684 613 654 614 q 693 609 689 613 q 697 600 697 605 q 696 475 697 537 q 583 473 689 474 q 583 393 583 412 q 583 368 583 386 q 583 341 583 351 q 674 339 647 340 q 684 335 680 339 q 688 326 688 331 q 686 201 688 261 q 581 199 668 200 q 578 27 580 124 q 510 25 538 25 q 431 27 478 25 q 422 31 426 27 q 418 41 418 35 q 414 198 415 140 q 381 198 400 198 q 359 198 362 198 q 321 198 337 198 q 317 27 320 125 q 250 25 278 25 q 171 27 217 25 q 161 31 165 27 q 157 41 157 35 q 154 201 155 141 q 52 203 57 203 q 42 208 46 203 q 38 217 38 212 q 37 261 37 250 m 322 472 q 323 393 323 412 q 323 369 323 386 q 322 342 322 352 l 380 342 l 413 342 q 412 368 413 351 q 412 393 412 385 q 413 472 412 444 l 368 472 q 322 472 342 472 z "},"$":{"ha":637,"x_min":47,"x_max":632,"o":"m 47 566 q 57 656 47 617 q 87 719 67 694 q 132 760 106 745 q 195 783 159 775 q 198 977 196 904 q 303 980 263 980 q 429 977 346 980 q 438 972 434 977 q 442 963 442 968 q 445 792 444 888 q 605 769 526 784 l 577 574 q 462 610 524 596 q 345 623 400 623 q 313 621 327 623 q 288 615 300 620 q 270 601 276 610 q 263 579 263 592 q 265 567 263 573 q 273 555 268 561 q 283 546 278 550 q 298 537 288 542 q 316 530 309 533 q 337 523 323 527 q 358 516 350 519 q 383 510 367 514 q 431 496 414 501 q 479 480 448 491 q 527 458 509 468 q 567 429 545 447 q 602 391 590 411 q 623 343 614 371 q 632 281 632 314 q 620 184 632 227 q 584 112 608 141 q 529 64 560 83 q 456 35 497 45 q 453 -163 454 -131 q 348 -166 388 -166 q 222 -163 306 -166 q 213 -159 217 -163 q 209 -149 209 -155 q 206 23 207 -74 q 48 34 125 26 l 78 249 q 306 206 220 206 q 365 221 346 206 q 384 259 384 237 q 381 276 384 268 q 373 289 377 283 q 359 299 369 294 q 343 308 350 305 q 321 316 336 311 q 299 322 307 320 q 273 329 290 324 q 229 340 245 336 q 186 355 213 345 q 142 376 159 365 q 106 405 126 387 q 75 445 86 423 q 55 497 63 466 q 47 566 47 529 z "},"%":{"ha":1025,"x_min":22,"x_max":1030,"o":"m 91 46 q 93 50 91 48 q 97 57 94 53 q 103 65 100 61 q 111 75 106 68 q 120 86 117 82 q 406 448 206 197 q 675 789 605 700 q 770 789 688 789 q 861 786 810 789 q 935 779 911 783 q 941 776 939 779 q 943 769 943 773 q 941 764 943 767 q 935 754 939 760 q 925 741 930 747 q 912 723 921 734 q 897 703 904 712 q 619 339 772 533 q 360 27 466 145 q 265 26 347 26 q 174 30 224 26 q 100 37 124 33 q 94 40 96 37 q 91 46 91 43 m 22 620 q 34 706 22 670 q 70 764 46 742 q 124 797 93 786 q 195 810 155 808 q 277 805 243 810 q 337 787 311 799 q 377 752 362 774 q 399 697 392 729 q 406 620 406 666 q 395 535 406 571 q 360 477 383 499 q 307 444 338 455 q 237 431 277 433 q 137 439 176 431 q 72 469 98 448 q 34 527 45 491 q 22 620 22 564 m 187 620 q 193 584 187 593 q 214 576 199 576 q 235 584 229 576 q 241 620 241 593 q 240 644 241 635 q 233 657 238 653 q 224 663 229 661 q 211 664 219 664 q 193 655 199 664 q 187 620 187 647 m 646 194 q 658 280 646 244 q 694 338 670 316 q 748 371 717 360 q 819 384 779 382 q 901 379 867 384 q 960 361 935 373 q 1001 326 986 348 q 1023 272 1016 303 q 1030 194 1030 240 q 1019 109 1030 145 q 984 51 1007 73 q 931 18 962 29 q 861 5 901 7 q 761 13 800 5 q 695 43 722 22 q 657 101 669 65 q 646 194 646 138 m 811 194 q 817 159 811 167 q 838 150 823 150 q 859 159 853 150 q 865 194 865 167 q 863 218 865 209 q 857 231 862 227 q 848 237 853 235 q 835 238 843 238 q 817 230 823 238 q 811 194 811 221 z "},"&":{"ha":760,"x_min":24,"x_max":766,"o":"m 24 245 q 61 345 24 297 q 161 428 97 394 q 96 591 96 491 q 109 675 96 639 q 143 734 121 710 q 201 772 166 758 q 278 793 236 787 q 374 799 320 799 q 474 792 417 799 q 571 776 530 786 l 543 577 l 392 585 q 340 575 358 585 q 323 541 323 565 q 399 496 323 496 l 379 408 l 384 408 q 453 498 415 461 q 595 499 527 499 q 751 496 669 499 q 761 493 757 496 q 765 483 765 489 q 766 407 766 451 q 765 312 766 358 q 665 311 703 312 q 683 201 683 251 q 673 133 683 164 q 640 76 663 102 q 582 32 617 50 q 495 3 547 14 q 376 -7 443 -7 q 313 -5 341 -7 q 254 -1 285 -4 q 199 9 224 3 q 151 25 175 15 q 108 48 126 35 q 73 81 89 62 q 47 124 57 100 q 30 178 36 147 q 24 245 24 209 m 302 270 q 318 231 302 243 q 372 220 334 220 q 424 230 408 220 q 439 260 439 240 q 437 313 439 287 q 357 317 403 314 q 317 304 332 317 q 302 270 302 292 z "},"'":{"ha":282,"x_min":40,"x_max":258,"o":"m 40 674 q 41 741 40 695 q 41 810 41 786 q 44 819 41 815 q 53 823 48 823 q 149 824 69 824 q 244 823 228 824 q 254 819 250 823 q 258 810 258 815 q 258 743 258 786 q 258 680 258 701 q 232 558 254 639 q 201 450 210 477 q 144 449 183 449 q 68 450 103 449 q 55 549 64 470 q 40 674 45 628 z "},"(":{"ha":393,"x_min":49,"x_max":384,"o":"m 57 259 q 53 296 57 259 q 49 408 49 332 q 57 556 49 483 q 84 703 66 629 q 121 840 102 778 q 170 987 140 903 l 384 960 q 343 676 357 806 q 330 408 330 547 q 343 139 330 268 q 384 -144 357 9 l 170 -172 q 121 -25 140 -87 q 84 112 102 38 q 57 259 66 186 z "},")":{"ha":393,"x_min":37,"x_max":372,"o":"m 37 -144 q 77 139 64 9 q 90 408 90 268 q 77 676 90 547 q 37 960 64 806 l 251 987 q 299 840 280 903 q 336 703 318 778 q 363 556 354 629 q 372 408 372 483 q 363 259 372 332 q 336 112 354 186 q 299 -25 318 38 q 251 -172 280 -87 l 37 -144 z "},"*":{"ha":515,"x_min":22,"x_max":520,"o":"m 22 641 q 29 681 22 656 q 47 726 36 706 q 67 742 58 745 l 150 715 q 238 656 177 703 q 209 758 213 727 l 209 845 q 229 858 209 854 q 271 863 248 863 q 313 858 293 863 q 334 845 334 853 l 334 758 q 304 656 330 727 q 393 715 366 703 l 475 742 q 496 726 485 745 q 513 682 507 707 q 520 641 520 656 q 514 624 520 626 l 431 597 q 325 593 401 591 q 409 527 389 549 l 460 457 q 448 430 466 448 q 404 396 430 411 q 366 381 379 381 q 359 384 360 381 l 308 454 q 271 554 294 479 q 235 454 249 479 l 184 384 q 176 380 181 380 q 138 396 163 380 q 95 430 113 411 q 83 457 77 449 l 134 527 q 218 593 154 549 q 111 597 142 591 l 29 624 q 22 641 22 626 z "},"+":{"ha":675,"x_min":39,"x_max":663,"o":"m 39 394 q 41 502 39 424 q 237 504 81 504 q 241 719 238 584 q 337 721 289 721 q 448 719 392 721 q 457 715 453 719 q 461 705 461 711 q 466 505 465 517 q 648 502 611 503 q 658 498 654 502 q 662 488 662 494 q 663 404 663 470 q 662 298 663 343 q 466 296 639 297 q 461 95 464 203 q 366 93 414 93 q 255 95 311 93 q 246 99 250 95 q 241 109 242 103 q 237 297 239 168 q 54 301 75 300 q 45 305 49 301 q 41 315 41 309 q 39 394 39 366 z "},",":{"ha":285,"x_min":40,"x_max":272,"o":"m 40 117 q 41 210 40 161 q 141 213 90 213 q 258 210 186 213 q 267 206 263 210 q 271 197 271 202 q 272 130 271 173 q 272 66 272 87 q 246 -56 267 26 q 217 -163 226 -139 q 95 -165 160 -165 q 97 -89 95 -158 q 100 2 99 -20 q 54 3 73 2 q 45 7 48 3 q 41 16 41 11 q 40 117 40 70 z "},"-":{"ha":567,"x_min":39,"x_max":555,"o":"m 39 409 q 41 507 39 449 q 341 510 105 510 q 540 507 457 510 q 549 503 545 507 q 553 494 553 499 q 555 378 555 452 q 553 293 555 352 q 321 290 487 290 q 190 292 288 290 q 54 296 92 294 q 45 300 49 296 q 41 309 41 303 q 39 409 39 380 z "},".":{"ha":285,"x_min":40,"x_max":272,"o":"m 40 117 q 41 210 40 161 q 141 213 90 213 q 258 210 186 213 q 267 206 263 210 q 271 197 271 202 q 272 93 272 142 q 271 0 272 49 q 198 -2 241 -2 q 54 3 135 -2 q 45 7 48 3 q 41 16 41 11 q 40 117 40 70 z "},"/":{"ha":507,"x_min":-7,"x_max":540,"o":"m -7 -59 q 5 -12 -7 -56 q 125 412 81 267 q 282 882 211 698 q 402 885 348 885 q 531 882 454 885 q 540 872 540 881 q 527 820 540 870 q 410 403 479 641 q 255 -68 325 112 q 135 -71 189 -71 q 2 -68 82 -71 q -7 -59 -7 -67 z "},":":{"ha":285,"x_min":40,"x_max":272,"o":"m 40 117 q 41 210 40 161 q 141 213 90 213 q 258 210 186 213 q 267 206 263 210 q 271 197 271 202 q 272 93 272 142 q 271 0 272 49 q 198 -2 241 -2 q 54 3 135 -2 q 45 7 48 3 q 41 16 41 11 q 40 117 40 70 m 40 524 q 41 617 40 568 q 141 620 90 620 q 258 617 186 620 q 267 613 263 617 q 271 604 271 609 q 272 499 272 549 q 271 407 272 456 q 198 405 241 405 q 54 410 135 405 q 45 414 48 410 q 41 423 41 418 q 40 524 40 476 z "},";":{"ha":285,"x_min":40,"x_max":272,"o":"m 40 524 q 41 617 40 568 q 141 620 90 620 q 258 617 186 620 q 267 613 263 617 q 271 604 271 609 q 272 499 272 549 q 271 407 272 456 q 198 405 241 405 q 54 410 135 405 q 45 414 48 410 q 41 423 41 418 q 40 524 40 476 m 40 117 q 41 210 40 161 q 141 213 90 213 q 258 210 186 213 q 267 206 263 210 q 271 197 271 202 q 272 130 271 173 q 272 66 272 87 q 246 -56 267 26 q 217 -163 226 -139 q 95 -165 160 -165 q 97 -89 95 -158 q 100 2 99 -20 q 54 3 73 2 q 45 7 48 3 q 41 16 41 11 q 40 117 40 70 z "},"<":{"ha":553,"x_min":31,"x_max":540,"o":"m 31 430 q 34 511 31 472 q 164 574 59 524 q 309 643 269 625 q 503 730 425 696 q 514 730 508 732 q 521 723 519 728 q 534 653 529 706 q 540 535 540 599 q 374 457 517 523 q 255 408 300 422 q 392 349 302 391 q 526 285 464 315 q 539 264 539 278 q 535 166 539 231 q 525 73 531 100 q 291 179 495 85 q 172 238 262 193 q 47 300 82 282 q 38 316 39 303 q 31 430 31 367 z "},"=":{"ha":602,"x_min":47,"x_max":582,"o":"m 47 556 q 49 646 47 587 q 355 649 113 649 q 567 646 484 649 q 576 642 572 646 q 581 632 580 638 q 582 536 582 608 q 581 456 582 515 q 467 454 560 455 q 334 453 374 453 q 201 455 301 453 q 62 458 100 457 q 53 463 57 458 q 49 472 49 467 q 47 556 47 551 m 47 268 q 49 358 47 299 q 355 361 113 361 q 567 358 484 361 q 576 354 572 358 q 581 345 580 350 q 582 270 582 317 q 581 168 582 220 q 467 166 560 167 q 334 165 374 165 q 201 167 301 165 q 62 171 100 170 q 53 175 57 171 q 49 184 49 179 q 47 268 47 263 z "},">":{"ha":553,"x_min":41,"x_max":550,"o":"m 41 280 q 207 358 61 291 q 326 407 281 393 q 189 466 279 424 q 55 530 112 502 q 42 551 42 536 q 46 649 42 584 q 56 742 50 715 q 290 635 80 732 q 410 577 319 622 q 534 515 500 532 q 543 498 541 512 q 550 385 550 445 q 547 304 550 343 q 418 241 522 291 q 272 172 314 191 q 78 85 156 118 q 67 85 73 83 q 60 92 62 86 q 46 162 52 109 q 41 280 41 216 z "},"?":{"ha":540,"x_min":19,"x_max":543,"o":"m 131 117 q 132 210 131 161 q 232 213 181 213 q 349 210 277 213 q 358 206 354 210 q 362 197 362 202 q 363 93 363 142 q 362 0 363 49 q 289 -2 332 -2 q 145 3 226 -2 q 135 7 139 3 q 132 16 132 11 q 131 117 131 70 m 19 793 q 268 823 140 823 q 359 817 318 823 q 434 797 399 811 q 492 761 469 783 q 529 704 516 739 q 543 624 543 669 q 520 530 543 573 q 459 446 498 486 q 432 417 441 427 q 409 388 423 407 q 387 353 394 369 q 374 316 380 338 q 368 271 368 294 q 265 269 327 269 q 140 271 202 269 q 130 276 134 272 q 126 285 126 279 q 136 359 126 324 q 161 418 146 393 q 196 463 177 442 q 234 501 215 485 q 269 532 253 517 q 294 561 284 546 q 304 589 304 575 q 248 629 304 629 q 136 606 202 629 q 50 568 70 583 l 19 793 z "},"@":{"ha":952,"x_min":38,"x_max":922,"o":"m 604 402 q 604 369 604 382 q 607 346 605 357 q 612 330 609 335 q 622 321 615 325 q 637 316 629 317 q 657 315 645 315 l 683 315 l 683 485 l 666 485 q 642 482 652 485 q 623 471 632 479 q 608 446 613 463 q 604 402 604 429 m 38 407 q 44 552 38 486 q 62 672 50 618 q 91 768 73 725 q 130 843 109 811 q 180 900 152 876 q 239 940 209 924 q 308 965 270 956 q 384 979 346 975 q 469 983 423 983 q 671 976 580 983 q 867 951 762 969 q 904 934 889 947 q 919 900 919 920 q 922 485 922 699 q 919 131 922 344 q 681 110 785 110 q 598 112 632 110 q 527 121 564 114 q 466 141 490 128 q 419 175 442 154 q 384 227 397 196 q 363 300 371 257 q 356 399 356 343 q 363 487 356 448 q 384 556 371 527 q 419 607 398 586 q 467 644 441 629 q 527 666 492 658 q 598 679 561 675 q 681 682 635 682 q 680 729 680 698 q 679 775 679 761 l 453 775 q 416 773 432 775 q 383 760 400 770 q 353 735 366 751 q 328 691 340 719 q 309 625 316 664 q 297 532 302 587 q 293 407 293 477 q 297 307 293 353 q 308 226 301 261 q 326 164 315 192 q 348 116 336 136 q 374 83 359 97 q 403 60 389 68 q 434 46 417 51 q 465 40 451 41 q 496 38 479 38 l 869 38 l 895 -155 q 576 -182 718 -182 q 445 -174 505 -182 q 330 -146 386 -166 q 230 -96 274 -127 q 149 -19 185 -66 q 89 87 113 27 q 51 228 64 148 q 38 407 38 309 z "},"A":{"ha":705,"x_min":13,"x_max":719,"o":"m 13 11 q 20 54 13 17 q 61 285 38 165 q 120 581 84 404 q 168 814 157 759 q 355 817 236 817 q 548 814 465 817 q 558 810 553 814 q 564 800 563 806 q 615 553 579 725 q 676 250 650 381 q 719 0 701 118 q 601 -3 655 -3 q 468 0 514 -3 q 458 4 462 0 q 452 14 453 8 q 427 149 437 92 l 301 149 q 275 0 291 77 q 163 -3 210 -3 q 24 0 107 -3 q 16 3 19 0 q 13 11 13 6 m 324 326 l 400 326 q 378 484 392 381 q 358 630 365 587 q 340 471 352 574 q 324 326 329 368 z "},"B":{"ha":700,"x_min":65,"x_max":700,"o":"m 331 517 q 341 517 331 517 q 397 532 375 517 q 419 574 419 547 q 398 614 419 600 q 349 629 378 629 q 333 628 338 629 q 332 577 333 613 q 331 517 332 540 m 333 315 q 335 206 333 279 l 358 206 q 412 220 395 206 q 429 261 429 234 q 411 300 429 285 q 367 315 394 315 l 333 315 m 65 425 q 66 612 65 492 q 68 800 68 732 q 332 823 218 823 q 410 822 378 823 q 479 815 442 820 q 541 800 516 810 q 589 773 565 790 q 628 731 614 755 q 651 670 642 706 q 659 588 659 634 q 581 412 659 481 q 669 338 637 381 q 700 246 700 294 q 691 164 700 200 q 667 101 682 127 q 627 56 651 75 q 577 25 604 36 q 515 6 550 13 q 446 -4 480 -2 q 370 -7 412 -7 q 81 8 225 -7 q 72 14 76 10 q 68 24 68 19 q 66 221 68 87 q 65 425 65 356 z "},"C":{"ha":563,"x_min":35,"x_max":563,"o":"m 35 407 q 52 573 35 502 q 100 692 70 644 q 178 769 131 739 q 281 811 225 798 q 408 823 337 823 q 480 818 446 823 q 563 800 514 812 l 534 588 l 409 596 q 380 593 393 597 q 356 577 368 590 q 336 544 344 565 q 323 489 328 524 q 319 407 319 454 q 323 325 319 360 q 335 270 327 291 q 353 237 342 249 q 378 221 365 225 q 409 218 391 217 l 534 227 l 562 12 q 406 -3 480 -3 q 333 0 366 -3 q 267 10 299 3 q 208 28 235 17 q 158 57 182 39 q 115 97 133 74 q 81 150 96 120 q 56 219 65 181 q 41 304 46 257 q 35 407 35 351 z "},"D":{"ha":713,"x_min":65,"x_max":705,"o":"m 334 407 q 336 228 334 326 l 359 228 q 377 230 369 228 q 392 238 384 232 q 405 257 399 244 q 414 289 410 269 q 420 338 418 308 q 422 407 422 368 q 419 488 422 454 q 410 540 415 521 q 397 570 406 559 q 380 584 388 581 q 359 587 372 587 l 336 587 q 334 407 334 474 m 65 407 q 66 604 65 475 q 68 800 68 732 q 332 823 218 823 q 459 811 404 823 q 562 769 515 798 q 640 692 609 739 q 688 573 671 644 q 705 407 705 502 q 700 304 705 351 q 685 219 695 257 q 660 150 675 181 q 626 97 645 120 q 583 57 607 74 q 532 28 559 39 q 474 10 506 17 q 408 0 441 3 q 335 -3 375 -3 q 306 -2 321 -3 q 278 -1 290 -2 q 246 0 266 -1 q 216 2 225 2 q 182 5 207 3 q 151 8 157 7 q 115 11 145 8 q 81 14 86 13 q 72 18 76 14 q 68 27 68 22 q 66 214 68 90 q 65 407 65 338 z "},"E":{"ha":616,"x_min":62,"x_max":604,"o":"m 62 407 q 68 814 62 597 q 349 817 132 817 q 586 814 503 817 q 595 810 591 814 q 600 800 600 806 q 601 683 601 718 q 600 583 601 630 q 384 581 542 581 q 332 581 355 581 q 331 510 332 534 q 494 507 453 509 q 503 503 499 507 q 507 494 507 499 q 508 392 508 438 q 507 301 508 350 l 331 301 q 332 231 332 277 l 349 231 q 589 228 515 231 q 598 224 594 228 q 602 214 602 220 q 604 97 604 132 q 602 -3 604 44 q 370 -6 538 -6 q 227 -4 336 -6 q 81 0 117 -1 q 72 4 76 0 q 68 14 68 8 q 62 407 62 269 z "},"F":{"ha":570,"x_min":62,"x_max":582,"o":"m 62 407 q 68 814 62 597 q 349 817 132 817 q 567 814 484 817 q 576 810 572 814 q 581 800 581 806 q 582 683 582 718 q 581 583 582 630 q 383 580 516 580 q 338 581 358 580 q 337 524 338 563 q 336 464 337 485 q 488 461 447 463 q 498 457 494 461 q 502 448 502 453 q 503 330 503 365 q 502 231 503 277 q 337 228 452 228 q 339 0 339 38 q 220 -3 275 -3 q 81 0 164 -3 q 72 4 76 0 q 68 14 68 8 q 62 407 62 269 z "},"G":{"ha":681,"x_min":35,"x_max":654,"o":"m 35 407 q 52 573 35 502 q 100 692 70 644 q 178 769 131 739 q 281 811 225 798 q 408 823 337 823 q 651 800 508 823 l 623 586 l 381 586 q 360 583 369 586 q 343 569 352 580 q 330 540 335 559 q 322 488 325 521 q 319 407 319 454 q 321 338 319 368 q 328 289 323 308 q 339 257 333 270 q 353 238 345 244 q 370 230 362 232 q 388 228 377 228 l 415 228 q 410 434 415 294 q 517 437 469 437 q 635 434 567 437 q 644 430 640 434 q 648 420 648 426 q 654 231 654 295 q 648 23 654 119 q 563 8 591 13 q 494 1 535 4 q 406 -3 452 -3 q 333 0 366 -3 q 267 10 299 3 q 208 28 235 17 q 158 57 182 39 q 115 97 133 74 q 81 150 96 120 q 56 219 65 181 q 41 304 46 257 q 35 407 35 351 z "},"H":{"ha":746,"x_min":62,"x_max":711,"o":"m 62 407 q 68 814 62 597 q 186 817 132 817 q 326 814 242 817 q 335 810 331 814 q 339 800 339 806 q 342 515 342 676 l 431 515 q 434 814 431 700 q 553 817 498 817 q 692 814 609 817 q 701 810 697 814 q 705 800 705 806 q 711 407 711 545 q 705 0 711 217 q 587 -3 641 -3 q 448 0 531 -3 q 438 4 442 0 q 434 14 434 8 q 431 285 432 103 l 342 285 q 339 0 342 109 q 220 -3 275 -3 q 81 0 164 -3 q 72 4 76 0 q 68 14 68 8 q 62 407 62 269 z "},"I":{"ha":380,"x_min":62,"x_max":345,"o":"m 62 407 q 68 814 62 597 q 186 817 132 817 q 326 814 242 817 q 335 810 331 814 q 339 800 339 806 q 345 407 345 545 q 339 0 345 217 q 220 -3 275 -3 q 81 0 164 -3 q 72 4 76 0 q 68 14 68 8 q 62 407 62 269 z "},"J":{"ha":589,"x_min":43,"x_max":562,"o":"m 43 -5 l 54 217 l 188 206 q 219 206 207 204 q 244 216 231 208 q 263 239 256 224 q 275 282 271 255 q 279 349 279 309 q 281 581 279 471 q 75 586 177 583 q 65 590 69 586 q 61 600 61 594 q 60 711 60 677 q 61 814 60 765 q 359 817 125 817 q 543 814 459 817 q 552 810 548 814 q 556 800 556 806 q 562 356 562 545 q 553 237 562 290 q 528 144 544 183 q 486 76 512 105 q 431 28 461 46 q 362 -3 401 9 q 281 -18 322 -14 q 189 -23 240 -23 q 168 -23 178 -23 q 151 -22 158 -22 q 132 -20 143 -21 q 116 -18 121 -19 q 99 -15 111 -18 q 82 -13 86 -13 q 63 -9 78 -12 q 43 -5 48 -6 z "},"K":{"ha":723,"x_min":62,"x_max":725,"o":"m 62 407 q 68 814 62 597 q 186 817 132 817 q 326 814 242 817 q 335 810 331 814 q 339 800 339 806 q 339 752 339 784 q 334 529 339 719 q 349 529 339 529 q 364 529 359 529 q 409 661 377 567 q 458 804 442 755 q 466 813 460 809 q 478 817 472 817 q 587 821 530 821 q 723 813 660 821 q 608 492 681 635 q 502 420 568 424 l 502 418 q 565 397 537 416 q 612 346 593 378 q 725 0 672 228 q 583 -7 663 -7 q 474 -4 526 -7 q 462 0 468 -4 q 454 9 456 4 q 359 332 420 111 l 333 332 q 337 217 334 321 q 340 58 340 112 q 339 0 340 39 q 220 -3 275 -3 q 81 0 164 -3 q 72 4 76 0 q 68 14 68 8 q 62 407 62 269 z "},"L":{"ha":556,"x_min":62,"x_max":571,"o":"m 62 407 q 68 814 62 597 q 186 817 132 817 q 326 814 242 817 q 335 810 331 814 q 339 800 339 806 q 345 407 345 545 q 343 231 345 317 l 349 231 q 556 228 473 231 q 566 224 562 228 q 570 214 570 220 q 571 97 571 132 q 570 -3 571 44 q 370 -6 505 -6 q 227 -4 336 -6 q 81 0 117 -1 q 72 4 76 0 q 68 14 68 8 q 62 407 62 269 z "},"M":{"ha":944,"x_min":62,"x_max":909,"o":"m 62 407 q 68 814 62 597 q 180 817 132 817 q 297 814 237 817 q 312 800 307 813 l 482 453 l 652 800 q 669 813 662 813 q 764 817 711 817 q 890 814 821 817 q 899 810 896 813 q 903 800 903 806 q 909 407 909 545 q 903 0 909 217 q 798 -3 845 -3 q 673 0 756 -3 q 663 4 667 0 q 659 14 659 8 q 656 127 658 52 q 653 265 654 203 q 651 384 651 327 l 496 68 l 481 65 l 468 68 l 321 368 l 326 0 q 214 -3 261 -3 q 81 0 164 -3 q 72 4 76 0 q 68 14 68 8 q 62 407 62 269 z "},"N":{"ha":746,"x_min":62,"x_max":711,"o":"m 62 407 q 68 814 62 597 q 180 817 132 817 q 297 814 220 817 q 312 800 307 813 l 452 453 l 448 814 q 566 817 512 817 q 692 814 619 817 q 701 810 697 813 q 705 800 705 806 q 711 407 711 545 q 705 0 711 217 q 600 -3 649 -3 q 476 0 542 -3 q 461 14 466 0 l 321 361 l 326 0 q 214 -3 261 -3 q 81 0 160 -3 q 72 4 76 0 q 68 14 68 8 q 62 407 62 269 z "},"O":{"ha":732,"x_min":35,"x_max":724,"o":"m 35 407 q 57 583 35 506 q 118 712 78 660 q 215 791 158 763 q 345 823 273 820 q 463 814 411 823 q 558 785 514 805 q 631 733 601 765 q 683 654 662 701 q 714 547 704 608 q 724 407 724 486 q 703 231 724 309 q 640 103 681 154 q 542 24 599 52 q 412 -8 485 -4 q 295 1 347 -8 q 200 30 243 10 q 127 82 157 50 q 76 160 97 114 q 45 267 55 206 q 35 407 35 329 m 319 407 q 322 327 319 360 q 330 274 325 293 q 343 244 335 255 q 360 231 352 234 q 381 228 369 228 q 401 231 393 228 q 418 244 410 234 q 430 274 426 255 q 438 327 435 293 q 441 407 441 360 q 439 476 441 447 q 432 525 437 506 q 423 557 428 545 q 410 575 418 569 q 395 584 402 582 q 377 586 387 586 q 360 584 367 586 q 346 576 353 582 q 334 557 339 569 q 326 525 330 545 q 320 476 322 506 q 319 407 319 447 z "},"P":{"ha":700,"x_min":65,"x_max":700,"o":"m 65 407 q 66 605 65 475 q 68 800 68 734 q 332 823 218 823 q 425 821 387 823 q 505 811 464 819 q 574 789 546 803 q 627 751 601 775 q 667 694 653 727 q 691 612 682 660 q 700 502 700 564 q 695 424 700 459 q 680 359 690 388 q 656 306 671 330 q 623 265 641 283 q 581 234 605 247 q 532 212 558 221 q 474 197 506 203 q 409 190 442 192 q 336 187 376 187 q 339 0 339 31 q 220 -3 276 -3 q 81 0 174 -3 q 72 4 76 0 q 68 14 68 8 q 66 207 68 76 q 65 407 65 338 m 334 410 l 355 410 q 377 411 368 410 q 395 418 386 412 q 411 432 405 423 q 421 458 417 441 q 425 498 425 475 q 424 535 425 521 q 421 560 424 548 q 415 577 418 571 q 404 586 411 582 q 388 591 396 590 q 365 592 379 592 l 334 592 l 334 410 z "},"Q":{"ha":722,"x_min":35,"x_max":713,"o":"m 319 421 q 320 367 319 391 q 323 327 320 344 q 327 297 325 310 q 334 277 329 285 q 342 265 338 269 q 351 258 345 260 q 363 255 358 256 q 376 255 368 255 q 390 256 385 255 q 402 260 396 256 q 412 269 409 263 q 420 288 416 276 q 426 317 424 299 q 429 361 428 335 q 430 421 430 386 q 427 495 430 464 q 420 543 425 525 q 408 570 416 561 q 392 583 400 580 q 372 586 384 586 q 348 581 356 586 q 332 559 339 576 q 322 509 325 542 q 319 421 319 476 m 35 421 q 115 712 35 609 q 339 823 194 816 q 473 810 415 823 q 578 768 532 797 q 653 692 624 739 q 698 578 683 645 q 713 421 713 510 q 634 126 713 226 q 409 19 555 27 q 409 17 409 18 l 409 16 q 431 -4 409 5 q 491 -13 454 -13 q 523 -11 504 -13 l 642 0 l 669 -209 q 483 -227 573 -227 q 351 -200 413 -227 q 252 -131 289 -174 q 215 -41 215 -89 q 244 38 215 0 q 128 102 173 58 q 59 225 83 147 q 35 421 35 304 z "},"R":{"ha":713,"x_min":65,"x_max":725,"o":"m 65 425 q 66 612 65 492 q 68 800 68 732 q 212 817 136 811 q 346 823 289 823 q 429 822 395 823 q 501 815 463 820 q 565 800 540 810 q 615 773 590 790 q 655 731 641 755 q 677 670 669 706 q 686 588 686 634 q 648 458 686 514 q 543 370 610 402 q 617 305 589 354 q 725 0 685 173 q 583 -7 663 -7 q 474 -4 526 -7 q 462 0 468 -4 q 454 9 456 4 q 351 334 388 210 l 333 334 q 336 178 334 296 q 339 0 339 60 q 220 -2 283 -2 q 81 0 163 -2 q 72 4 76 0 q 68 14 68 8 q 66 216 68 76 q 65 425 65 356 m 332 500 l 355 500 q 407 517 388 500 q 427 559 427 533 q 414 608 427 592 q 366 625 400 625 q 333 624 348 625 q 332 500 332 544 z "},"S":{"ha":667,"x_min":46,"x_max":665,"o":"m 46 8 l 79 253 q 320 206 229 206 q 374 221 355 206 q 392 254 392 236 q 389 266 392 261 q 380 277 387 272 q 366 285 373 282 q 347 293 360 289 q 326 300 335 297 q 301 307 318 302 q 254 321 271 316 q 207 339 237 326 q 158 364 176 351 q 116 399 139 377 q 79 446 92 420 q 57 508 66 471 q 47 588 47 544 q 56 670 47 634 q 78 731 64 706 q 116 773 92 755 q 164 800 140 790 q 224 815 188 810 q 292 822 261 820 q 369 823 323 823 q 631 793 480 823 l 600 568 q 482 607 548 591 q 356 623 415 623 q 306 613 324 623 q 288 585 288 603 q 290 574 288 579 q 301 564 293 569 q 315 556 308 559 q 335 548 322 552 q 358 540 349 543 q 385 532 367 537 q 511 487 468 507 q 652 341 622 433 q 665 259 665 303 q 656 177 665 214 q 631 112 647 139 q 591 64 615 85 q 540 30 568 43 q 478 8 513 17 q 408 -3 444 0 q 332 -7 373 -7 q 46 8 190 -7 z "},"T":{"ha":624,"x_min":20,"x_max":631,"o":"m 20 711 q 22 814 20 765 q 336 817 86 817 q 616 814 533 817 q 625 810 621 814 q 629 800 629 806 q 631 685 631 724 q 629 583 631 630 q 465 581 607 582 q 467 407 467 508 q 461 0 467 217 q 342 -3 397 -3 q 203 0 287 -3 q 194 4 198 0 q 190 14 190 8 q 184 407 184 269 q 186 582 184 470 q 35 586 108 584 q 26 590 30 586 q 22 600 22 594 q 20 711 20 677 z "},"U":{"ha":716,"x_min":37,"x_max":707,"o":"m 37 402 q 42 814 37 597 q 161 817 106 817 q 300 814 217 817 q 309 810 305 814 q 313 800 313 806 q 319 361 319 545 q 322 289 319 316 q 332 246 325 261 q 349 227 340 232 q 373 222 358 222 q 403 232 393 222 q 419 271 413 241 q 425 361 425 301 q 430 814 425 597 q 549 817 495 817 q 688 814 605 817 q 697 810 693 814 q 701 800 701 806 q 707 402 707 545 q 693 247 707 315 q 655 131 680 179 q 593 52 631 84 q 509 5 556 21 q 404 -14 463 -11 q 318 -10 356 -14 q 244 3 280 -6 q 180 28 208 13 q 129 66 153 43 q 89 121 105 89 q 60 193 72 152 q 42 286 48 234 q 37 402 37 338 z "},"V":{"ha":685,"x_min":8,"x_max":704,"o":"m 8 814 q 131 817 72 817 q 264 814 218 817 q 275 810 270 813 q 280 800 279 806 q 312 621 296 722 q 336 468 328 519 q 361 287 343 417 q 369 344 362 298 q 377 405 375 390 q 385 461 379 420 q 394 522 391 503 q 402 578 397 542 q 412 640 408 615 q 421 696 416 664 q 432 756 427 728 q 443 814 437 785 q 549 817 508 817 q 693 814 610 817 q 701 811 698 814 q 704 803 704 807 q 697 760 704 798 q 544 0 646 443 q 371 -3 479 -3 q 184 0 278 -3 q 174 4 179 0 q 168 14 170 8 q 74 444 114 253 q 8 814 35 635 z "},"W":{"ha":925,"x_min":8,"x_max":944,"o":"m 8 814 q 131 817 72 817 q 264 814 218 817 q 275 810 270 813 q 280 800 279 806 q 333 459 306 673 q 419 772 385 672 l 483 774 l 545 772 q 631 464 581 673 q 681 814 662 697 q 789 817 746 817 q 933 814 850 817 q 941 811 938 814 q 944 802 944 807 q 938 760 944 801 q 784 0 883 386 q 585 -4 697 -4 q 534 155 571 45 q 482 326 498 266 q 428 160 466 270 q 374 -4 390 51 q 184 0 296 -4 q 174 4 179 0 q 168 14 170 8 q 8 814 58 447 z "},"X":{"ha":719,"x_min":26,"x_max":721,"o":"m 26 0 q 39 60 33 35 q 56 129 44 84 q 78 207 67 174 q 106 282 89 240 q 141 353 123 323 q 181 408 158 382 q 230 445 204 433 l 230 447 q 166 501 200 456 q 106 603 133 545 q 58 717 79 662 q 28 813 38 773 q 164 821 91 821 q 273 817 221 821 q 285 813 279 817 q 293 804 291 809 q 340 670 309 755 q 373 578 370 584 q 397 645 380 600 q 428 729 414 690 q 454 804 442 767 q 462 813 456 809 q 474 817 468 817 q 583 821 526 821 q 719 813 656 821 q 697 739 711 781 q 663 648 683 697 q 619 557 642 599 q 569 485 597 515 q 517 447 542 454 l 517 445 q 553 416 536 433 q 584 381 570 399 q 612 337 598 362 q 635 290 625 311 q 656 238 645 268 q 673 186 666 208 q 688 134 680 165 q 701 85 696 103 q 712 39 705 68 q 721 0 719 11 q 579 -7 659 -7 q 470 -4 522 -7 q 458 0 464 -4 q 450 9 452 4 q 373 284 420 98 q 297 9 325 94 q 289 0 295 4 q 277 -4 283 -4 q 168 -7 225 -7 q 26 0 88 -7 z "},"Y":{"ha":712,"x_min":11,"x_max":728,"o":"m 11 809 q 153 817 73 817 q 262 813 211 817 q 274 809 268 813 q 282 800 280 805 q 369 504 315 701 q 456 800 422 694 q 465 809 458 805 q 477 813 471 813 q 586 817 528 817 q 728 809 666 817 q 615 463 674 581 q 505 335 572 391 q 509 0 508 111 q 387 -3 444 -3 q 245 0 329 -3 q 236 4 240 0 q 232 14 232 8 q 234 335 232 115 q 124 463 166 392 q 11 809 65 579 z "},"Z":{"ha":602,"x_min":39,"x_max":590,"o":"m 39 711 q 41 814 39 765 q 336 817 105 817 q 572 814 489 817 q 582 810 578 814 q 586 800 586 806 l 586 665 q 346 231 454 405 q 575 228 510 230 q 585 224 581 228 q 589 214 589 220 q 590 98 590 133 q 589 -3 590 44 q 356 -6 524 -6 q 206 -4 322 -6 q 54 0 90 -1 q 45 4 49 0 q 41 14 41 8 q 40 97 40 57 q 41 174 40 133 q 108 298 72 236 q 202 456 143 359 q 278 581 261 552 q 54 586 121 584 q 45 590 49 586 q 41 600 41 594 q 39 711 39 677 z "},"[":{"ha":461,"x_min":62,"x_max":465,"o":"m 62 407 q 67 935 62 700 q 68 977 67 954 q 265 980 132 980 q 450 977 367 980 q 460 973 456 977 q 464 963 464 969 q 465 854 465 912 q 464 762 465 800 q 320 760 439 761 q 323 407 323 549 q 321 52 323 235 q 450 49 374 51 q 460 45 456 49 q 464 35 464 41 q 465 -59 465 -3 q 464 -165 465 -119 q 245 -169 397 -169 q 81 -163 196 -169 q 72 -159 76 -162 q 68 -149 68 -155 q 62 407 62 106 z "},"\\":{"ha":507,"x_min":-7,"x_max":540,"o":"m -7 872 q 2 882 -7 881 q 135 885 82 885 q 255 882 189 885 q 410 411 325 702 q 531 -21 482 164 q 540 -59 540 -57 q 531 -68 540 -67 q 402 -71 454 -71 q 282 -68 348 -71 q 125 401 211 116 q 1 842 78 556 q -7 872 -7 868 z "},"]":{"ha":461,"x_min":23,"x_max":426,"o":"m 23 879 q 24 977 23 924 q 230 980 89 980 q 407 977 324 980 q 416 972 412 977 q 420 963 420 968 q 426 407 426 708 q 420 -165 426 52 q 210 -169 354 -169 q 38 -163 155 -169 q 28 -159 32 -162 q 24 -149 24 -155 l 24 49 l 168 51 q 165 407 165 262 q 168 760 165 577 q 96 763 142 761 q 38 765 50 765 q 28 769 33 765 q 24 779 24 773 q 23 879 23 854 z "},"^":{"ha":616,"x_min":38,"x_max":625,"o":"m 38 522 q 117 649 60 566 q 222 797 174 732 q 242 812 233 812 q 339 815 306 815 q 405 813 373 815 q 513 682 443 770 q 622 539 583 594 q 625 530 626 534 q 618 526 624 526 q 509 524 548 524 q 412 526 463 524 q 328 665 370 584 q 262 535 299 603 q 253 526 259 530 q 241 522 247 522 q 131 519 168 519 q 38 522 85 519 z "},"_":{"ha":540,"x_min":26,"x_max":541,"o":"m 26 -112 q 27 -14 26 -72 q 328 -11 92 -11 q 526 -14 443 -11 q 536 -17 532 -14 q 540 -27 539 -21 q 541 -142 541 -69 q 540 -228 541 -169 q 307 -231 473 -231 q 176 -229 275 -231 q 41 -225 78 -227 q 31 -221 35 -225 q 27 -212 27 -217 q 26 -112 26 -141 z "},"`":{"ha":407,"x_min":46,"x_max":388,"o":"m 46 875 q 145 877 94 877 q 263 875 190 877 q 274 871 268 875 q 283 861 280 867 q 317 799 296 838 q 355 727 338 759 q 388 665 372 695 q 169 670 274 665 q 158 674 163 670 q 149 684 152 678 q 46 875 75 817 z "},"a":{"ha":705,"x_min":13,"x_max":719,"o":"m 13 11 q 20 54 13 17 q 61 285 38 165 q 120 581 84 404 q 168 814 157 759 q 355 817 236 817 q 548 814 465 817 q 558 810 553 814 q 564 800 563 806 q 615 553 579 725 q 676 250 650 381 q 719 0 701 118 q 601 -3 655 -3 q 468 0 514 -3 q 458 4 462 0 q 452 14 453 8 q 427 149 437 92 l 301 149 q 275 0 291 77 q 163 -3 210 -3 q 24 0 107 -3 q 16 3 19 0 q 13 11 13 6 m 324 326 l 400 326 q 378 484 392 381 q 358 630 365 587 q 340 471 352 574 q 324 326 329 368 z "},"b":{"ha":700,"x_min":65,"x_max":700,"o":"m 331 517 q 341 517 331 517 q 397 532 375 517 q 419 574 419 547 q 398 614 419 600 q 349 629 378 629 q 333 628 338 629 q 332 577 333 613 q 331 517 332 540 m 333 315 q 335 206 333 279 l 358 206 q 412 220 395 206 q 429 261 429 234 q 411 300 429 285 q 367 315 394 315 l 333 315 m 65 425 q 66 612 65 492 q 68 800 68 732 q 332 823 218 823 q 410 822 378 823 q 479 815 442 820 q 541 800 516 810 q 589 773 565 790 q 628 731 614 755 q 651 670 642 706 q 659 588 659 634 q 581 412 659 481 q 669 338 637 381 q 700 246 700 294 q 691 164 700 200 q 667 101 682 127 q 627 56 651 75 q 577 25 604 36 q 515 6 550 13 q 446 -4 480 -2 q 370 -7 412 -7 q 81 8 225 -7 q 72 14 76 10 q 68 24 68 19 q 66 221 68 87 q 65 425 65 356 z "},"c":{"ha":563,"x_min":35,"x_max":563,"o":"m 35 407 q 52 573 35 502 q 100 692 70 644 q 178 769 131 739 q 281 811 225 798 q 408 823 337 823 q 480 818 446 823 q 563 800 514 812 l 534 588 l 409 596 q 380 593 393 597 q 356 577 368 590 q 336 544 344 565 q 323 489 328 524 q 319 407 319 454 q 323 325 319 360 q 335 270 327 291 q 353 237 342 249 q 378 221 365 225 q 409 218 391 217 l 534 227 l 562 12 q 406 -3 480 -3 q 333 0 366 -3 q 267 10 299 3 q 208 28 235 17 q 158 57 182 39 q 115 97 133 74 q 81 150 96 120 q 56 219 65 181 q 41 304 46 257 q 35 407 35 351 z "},"d":{"ha":713,"x_min":65,"x_max":705,"o":"m 334 407 q 336 228 334 326 l 359 228 q 377 230 369 228 q 392 238 384 232 q 405 257 399 244 q 414 289 410 269 q 420 338 418 308 q 422 407 422 368 q 419 488 422 454 q 410 540 415 521 q 397 570 406 559 q 380 584 388 581 q 359 587 372 587 l 336 587 q 334 407 334 474 m 65 407 q 66 604 65 475 q 68 800 68 732 q 332 823 218 823 q 459 811 404 823 q 562 769 515 798 q 640 692 609 739 q 688 573 671 644 q 705 407 705 502 q 700 304 705 351 q 685 219 695 257 q 660 150 675 181 q 626 97 645 120 q 583 57 607 74 q 532 28 559 39 q 474 10 506 17 q 408 0 441 3 q 335 -3 375 -3 q 306 -2 321 -3 q 278 -1 290 -2 q 246 0 266 -1 q 216 2 225 2 q 182 5 207 3 q 151 8 157 7 q 115 11 145 8 q 81 14 86 13 q 72 18 76 14 q 68 27 68 22 q 66 214 68 90 q 65 407 65 338 z "},"e":{"ha":616,"x_min":62,"x_max":604,"o":"m 62 407 q 68 814 62 597 q 349 817 132 817 q 586 814 503 817 q 595 810 591 814 q 600 800 600 806 q 601 683 601 718 q 600 583 601 630 q 384 581 542 581 q 332 581 355 581 q 331 510 332 534 q 494 507 453 509 q 503 503 499 507 q 507 494 507 499 q 508 392 508 438 q 507 301 508 350 l 331 301 q 332 231 332 277 l 349 231 q 589 228 515 231 q 598 224 594 228 q 602 214 602 220 q 604 97 604 132 q 602 -3 604 44 q 370 -6 538 -6 q 227 -4 336 -6 q 81 0 117 -1 q 72 4 76 0 q 68 14 68 8 q 62 407 62 269 z "},"f":{"ha":570,"x_min":62,"x_max":582,"o":"m 62 407 q 68 814 62 597 q 349 817 132 817 q 567 814 484 817 q 576 810 572 814 q 581 800 581 806 q 582 683 582 718 q 581 583 582 630 q 383 580 516 580 q 338 581 358 580 q 337 524 338 563 q 336 464 337 485 q 488 461 447 463 q 498 457 494 461 q 502 448 502 453 q 503 330 503 365 q 502 231 503 277 q 337 228 452 228 q 339 0 339 38 q 220 -3 275 -3 q 81 0 164 -3 q 72 4 76 0 q 68 14 68 8 q 62 407 62 269 z "},"g":{"ha":681,"x_min":35,"x_max":654,"o":"m 35 407 q 52 573 35 502 q 100 692 70 644 q 178 769 131 739 q 281 811 225 798 q 408 823 337 823 q 651 800 508 823 l 623 586 l 381 586 q 360 583 369 586 q 343 569 352 580 q 330 540 335 559 q 322 488 325 521 q 319 407 319 454 q 321 338 319 368 q 328 289 323 308 q 339 257 333 270 q 353 238 345 244 q 370 230 362 232 q 388 228 377 228 l 415 228 q 410 434 415 294 q 517 437 469 437 q 635 434 567 437 q 644 430 640 434 q 648 420 648 426 q 654 231 654 295 q 648 23 654 119 q 563 8 591 13 q 494 1 535 4 q 406 -3 452 -3 q 333 0 366 -3 q 267 10 299 3 q 208 28 235 17 q 158 57 182 39 q 115 97 133 74 q 81 150 96 120 q 56 219 65 181 q 41 304 46 257 q 35 407 35 351 z "},"h":{"ha":746,"x_min":62,"x_max":711,"o":"m 62 407 q 68 814 62 597 q 186 817 132 817 q 326 814 242 817 q 335 810 331 814 q 339 800 339 806 q 342 515 342 676 l 431 515 q 434 814 431 700 q 553 817 498 817 q 692 814 609 817 q 701 810 697 814 q 705 800 705 806 q 711 407 711 545 q 705 0 711 217 q 587 -3 641 -3 q 448 0 531 -3 q 438 4 442 0 q 434 14 434 8 q 431 285 432 103 l 342 285 q 339 0 342 109 q 220 -3 275 -3 q 81 0 164 -3 q 72 4 76 0 q 68 14 68 8 q 62 407 62 269 z "},"i":{"ha":380,"x_min":62,"x_max":345,"o":"m 62 407 q 68 814 62 597 q 186 817 132 817 q 326 814 242 817 q 335 810 331 814 q 339 800 339 806 q 345 407 345 545 q 339 0 345 217 q 220 -3 275 -3 q 81 0 164 -3 q 72 4 76 0 q 68 14 68 8 q 62 407 62 269 z "},"j":{"ha":589,"x_min":43,"x_max":562,"o":"m 43 -5 l 54 217 l 188 206 q 219 206 207 204 q 244 216 231 208 q 263 239 256 224 q 275 282 271 255 q 279 349 279 309 q 281 581 279 471 q 75 586 177 583 q 65 590 69 586 q 61 600 61 594 q 60 711 60 677 q 61 814 60 765 q 359 817 125 817 q 543 814 459 817 q 552 810 548 814 q 556 800 556 806 q 562 356 562 545 q 553 237 562 290 q 528 144 544 183 q 486 76 512 105 q 431 28 461 46 q 362 -3 401 9 q 281 -18 322 -14 q 189 -23 240 -23 q 168 -23 178 -23 q 151 -22 158 -22 q 132 -20 143 -21 q 116 -18 121 -19 q 99 -15 111 -18 q 82 -13 86 -13 q 63 -9 78 -12 q 43 -5 48 -6 z "},"k":{"ha":723,"x_min":62,"x_max":725,"o":"m 62 407 q 68 814 62 597 q 186 817 132 817 q 326 814 242 817 q 335 810 331 814 q 339 800 339 806 q 339 752 339 784 q 334 529 339 719 q 349 529 339 529 q 364 529 359 529 q 409 661 377 567 q 458 804 442 755 q 466 813 460 809 q 478 817 472 817 q 587 821 530 821 q 723 813 660 821 q 608 492 681 635 q 502 420 568 424 l 502 418 q 565 397 537 416 q 612 346 593 378 q 725 0 672 228 q 583 -7 663 -7 q 474 -4 526 -7 q 462 0 468 -4 q 454 9 456 4 q 359 332 420 111 l 333 332 q 337 217 334 321 q 340 58 340 112 q 339 0 340 39 q 220 -3 275 -3 q 81 0 164 -3 q 72 4 76 0 q 68 14 68 8 q 62 407 62 269 z "},"l":{"ha":556,"x_min":62,"x_max":571,"o":"m 62 407 q 68 814 62 597 q 186 817 132 817 q 326 814 242 817 q 335 810 331 814 q 339 800 339 806 q 345 407 345 545 q 343 231 345 317 l 349 231 q 556 228 473 231 q 566 224 562 228 q 570 214 570 220 q 571 97 571 132 q 570 -3 571 44 q 370 -6 505 -6 q 227 -4 336 -6 q 81 0 117 -1 q 72 4 76 0 q 68 14 68 8 q 62 407 62 269 z "},"m":{"ha":944,"x_min":62,"x_max":909,"o":"m 62 407 q 68 814 62 597 q 180 817 132 817 q 297 814 237 817 q 312 800 307 813 l 482 453 l 652 800 q 669 813 662 813 q 764 817 711 817 q 890 814 821 817 q 899 810 896 813 q 903 800 903 806 q 909 407 909 545 q 903 0 909 217 q 798 -3 845 -3 q 673 0 756 -3 q 663 4 667 0 q 659 14 659 8 q 656 127 658 52 q 653 265 654 203 q 651 384 651 327 l 496 68 l 481 65 l 468 68 l 321 368 l 326 0 q 214 -3 261 -3 q 81 0 164 -3 q 72 4 76 0 q 68 14 68 8 q 62 407 62 269 z "},"n":{"ha":746,"x_min":62,"x_max":711,"o":"m 62 407 q 68 814 62 597 q 180 817 132 817 q 297 814 220 817 q 312 800 307 813 l 452 453 l 448 814 q 566 817 512 817 q 692 814 619 817 q 701 810 697 813 q 705 800 705 806 q 711 407 711 545 q 705 0 711 217 q 600 -3 649 -3 q 476 0 542 -3 q 461 14 466 0 l 321 361 l 326 0 q 214 -3 261 -3 q 81 0 160 -3 q 72 4 76 0 q 68 14 68 8 q 62 407 62 269 z "},"o":{"ha":732,"x_min":35,"x_max":724,"o":"m 35 407 q 57 583 35 506 q 118 712 78 660 q 215 791 158 763 q 345 823 273 820 q 463 814 411 823 q 558 785 514 805 q 631 733 601 765 q 683 654 662 701 q 714 547 704 608 q 724 407 724 486 q 703 231 724 309 q 640 103 681 154 q 542 24 599 52 q 412 -8 485 -4 q 295 1 347 -8 q 200 30 243 10 q 127 82 157 50 q 76 160 97 114 q 45 267 55 206 q 35 407 35 329 m 319 407 q 322 327 319 360 q 330 274 325 293 q 343 244 335 255 q 360 231 352 234 q 381 228 369 228 q 401 231 393 228 q 418 244 410 234 q 430 274 426 255 q 438 327 435 293 q 441 407 441 360 q 439 476 441 447 q 432 525 437 506 q 423 557 428 545 q 410 575 418 569 q 395 584 402 582 q 377 586 387 586 q 360 584 367 586 q 346 576 353 582 q 334 557 339 569 q 326 525 330 545 q 320 476 322 506 q 319 407 319 447 z "},"p":{"ha":700,"x_min":65,"x_max":700,"o":"m 65 407 q 66 605 65 475 q 68 800 68 734 q 332 823 218 823 q 425 821 387 823 q 505 811 464 819 q 574 789 546 803 q 627 751 601 775 q 667 694 653 727 q 691 612 682 660 q 700 502 700 564 q 695 424 700 459 q 680 359 690 388 q 656 306 671 330 q 623 265 641 283 q 581 234 605 247 q 532 212 558 221 q 474 197 506 203 q 409 190 442 192 q 336 187 376 187 q 339 0 339 31 q 220 -3 276 -3 q 81 0 174 -3 q 72 4 76 0 q 68 14 68 8 q 66 207 68 76 q 65 407 65 338 m 334 410 l 355 410 q 377 411 368 410 q 395 418 386 412 q 411 432 405 423 q 421 458 417 441 q 425 498 425 475 q 424 535 425 521 q 421 560 424 548 q 415 577 418 571 q 404 586 411 582 q 388 591 396 590 q 365 592 379 592 l 334 592 l 334 410 z "},"q":{"ha":722,"x_min":35,"x_max":713,"o":"m 319 421 q 320 367 319 391 q 323 327 320 344 q 327 297 325 310 q 334 277 329 285 q 342 265 338 269 q 351 258 345 260 q 363 255 358 256 q 376 255 368 255 q 390 256 385 255 q 402 260 396 256 q 412 269 409 263 q 420 288 416 276 q 426 317 424 299 q 429 361 428 335 q 430 421 430 386 q 427 495 430 464 q 420 543 425 525 q 408 570 416 561 q 392 583 400 580 q 372 586 384 586 q 348 581 356 586 q 332 559 339 576 q 322 509 325 542 q 319 421 319 476 m 35 421 q 115 712 35 609 q 339 823 194 816 q 473 810 415 823 q 578 768 532 797 q 653 692 624 739 q 698 578 683 645 q 713 421 713 510 q 634 126 713 226 q 409 19 555 27 q 409 17 409 18 l 409 16 q 431 -4 409 5 q 491 -13 454 -13 q 523 -11 504 -13 l 642 0 l 669 -209 q 483 -227 573 -227 q 351 -200 413 -227 q 252 -131 289 -174 q 215 -41 215 -89 q 244 38 215 0 q 128 102 173 58 q 59 225 83 147 q 35 421 35 304 z "},"r":{"ha":713,"x_min":65,"x_max":725,"o":"m 65 425 q 66 612 65 492 q 68 800 68 732 q 212 817 136 811 q 346 823 289 823 q 429 822 395 823 q 501 815 463 820 q 565 800 540 810 q 615 773 590 790 q 655 731 641 755 q 677 670 669 706 q 686 588 686 634 q 648 458 686 514 q 543 370 610 402 q 617 305 589 354 q 725 0 685 173 q 583 -7 663 -7 q 474 -4 526 -7 q 462 0 468 -4 q 454 9 456 4 q 351 334 388 210 l 333 334 q 336 178 334 296 q 339 0 339 60 q 220 -2 283 -2 q 81 0 163 -2 q 72 4 76 0 q 68 14 68 8 q 66 216 68 76 q 65 425 65 356 m 332 500 l 355 500 q 407 517 388 500 q 427 559 427 533 q 414 608 427 592 q 366 625 400 625 q 333 624 348 625 q 332 500 332 544 z "},"s":{"ha":667,"x_min":46,"x_max":665,"o":"m 46 8 l 79 253 q 320 206 229 206 q 374 221 355 206 q 392 254 392 236 q 389 266 392 261 q 380 277 387 272 q 366 285 373 282 q 347 293 360 289 q 326 300 335 297 q 301 307 318 302 q 254 321 271 316 q 207 339 237 326 q 158 364 176 351 q 116 399 139 377 q 79 446 92 420 q 57 508 66 471 q 47 588 47 544 q 56 670 47 634 q 78 731 64 706 q 116 773 92 755 q 164 800 140 790 q 224 815 188 810 q 292 822 261 820 q 369 823 323 823 q 631 793 480 823 l 600 568 q 482 607 548 591 q 356 623 415 623 q 306 613 324 623 q 288 585 288 603 q 290 574 288 579 q 301 564 293 569 q 315 556 308 559 q 335 548 322 552 q 358 540 349 543 q 385 532 367 537 q 511 487 468 507 q 652 341 622 433 q 665 259 665 303 q 656 177 665 214 q 631 112 647 139 q 591 64 615 85 q 540 30 568 43 q 478 8 513 17 q 408 -3 444 0 q 332 -7 373 -7 q 46 8 190 -7 z "},"t":{"ha":624,"x_min":20,"x_max":631,"o":"m 20 711 q 22 814 20 765 q 336 817 86 817 q 616 814 533 817 q 625 810 621 814 q 629 800 629 806 q 631 685 631 724 q 629 583 631 630 q 465 581 607 582 q 467 407 467 508 q 461 0 467 217 q 342 -3 397 -3 q 203 0 287 -3 q 194 4 198 0 q 190 14 190 8 q 184 407 184 269 q 186 582 184 470 q 35 586 108 584 q 26 590 30 586 q 22 600 22 594 q 20 711 20 677 z "},"u":{"ha":716,"x_min":37,"x_max":707,"o":"m 37 402 q 42 814 37 597 q 161 817 106 817 q 300 814 217 817 q 309 810 305 814 q 313 800 313 806 q 319 361 319 545 q 322 289 319 316 q 332 246 325 261 q 349 227 340 232 q 373 222 358 222 q 403 232 393 222 q 419 271 413 241 q 425 361 425 301 q 430 814 425 597 q 549 817 495 817 q 688 814 605 817 q 697 810 693 814 q 701 800 701 806 q 707 402 707 545 q 693 247 707 315 q 655 131 680 179 q 593 52 631 84 q 509 5 556 21 q 404 -14 463 -11 q 318 -10 356 -14 q 244 3 280 -6 q 180 28 208 13 q 129 66 153 43 q 89 121 105 89 q 60 193 72 152 q 42 286 48 234 q 37 402 37 338 z "},"v":{"ha":685,"x_min":8,"x_max":704,"o":"m 8 814 q 131 817 72 817 q 264 814 218 817 q 275 810 270 813 q 280 800 279 806 q 312 621 296 722 q 336 468 328 519 q 361 287 343 417 q 369 344 362 298 q 377 405 375 390 q 385 461 379 420 q 394 522 391 503 q 402 578 397 542 q 412 640 408 615 q 421 696 416 664 q 432 756 427 728 q 443 814 437 785 q 549 817 508 817 q 693 814 610 817 q 701 811 698 814 q 704 803 704 807 q 697 760 704 798 q 544 0 646 443 q 371 -3 479 -3 q 184 0 278 -3 q 174 4 179 0 q 168 14 170 8 q 74 444 114 253 q 8 814 35 635 z "},"w":{"ha":925,"x_min":8,"x_max":944,"o":"m 8 814 q 131 817 72 817 q 264 814 218 817 q 275 810 270 813 q 280 800 279 806 q 333 459 306 673 q 419 772 385 672 l 483 774 l 545 772 q 631 464 581 673 q 681 814 662 697 q 789 817 746 817 q 933 814 850 817 q 941 811 938 814 q 944 802 944 807 q 938 760 944 801 q 784 0 883 386 q 585 -4 697 -4 q 534 155 571 45 q 482 326 498 266 q 428 160 466 270 q 374 -4 390 51 q 184 0 296 -4 q 174 4 179 0 q 168 14 170 8 q 8 814 58 447 z "},"x":{"ha":719,"x_min":26,"x_max":721,"o":"m 26 0 q 39 60 33 35 q 56 129 44 84 q 78 207 67 174 q 106 282 89 240 q 141 353 123 323 q 181 408 158 382 q 230 445 204 433 l 230 447 q 166 501 200 456 q 106 603 133 545 q 58 717 79 662 q 28 813 38 773 q 164 821 91 821 q 273 817 221 821 q 285 813 279 817 q 293 804 291 809 q 340 670 309 755 q 373 578 370 584 q 397 645 380 600 q 428 729 414 690 q 454 804 442 767 q 462 813 456 809 q 474 817 468 817 q 583 821 526 821 q 719 813 656 821 q 697 739 711 781 q 663 648 683 697 q 619 557 642 599 q 569 485 597 515 q 517 447 542 454 l 517 445 q 553 416 536 433 q 584 381 570 399 q 612 337 598 362 q 635 290 625 311 q 656 238 645 268 q 673 186 666 208 q 688 134 680 165 q 701 85 696 103 q 712 39 705 68 q 721 0 719 11 q 579 -7 659 -7 q 470 -4 522 -7 q 458 0 464 -4 q 450 9 452 4 q 373 284 420 98 q 297 9 325 94 q 289 0 295 4 q 277 -4 283 -4 q 168 -7 225 -7 q 26 0 88 -7 z "},"y":{"ha":712,"x_min":11,"x_max":728,"o":"m 11 809 q 153 817 73 817 q 262 813 211 817 q 274 809 268 813 q 282 800 280 805 q 369 504 315 701 q 456 800 422 694 q 465 809 458 805 q 477 813 471 813 q 586 817 528 817 q 728 809 666 817 q 615 463 674 581 q 505 335 572 391 q 509 0 508 111 q 387 -3 444 -3 q 245 0 329 -3 q 236 4 240 0 q 232 14 232 8 q 234 335 232 115 q 124 463 166 392 q 11 809 65 579 z "},"z":{"ha":602,"x_min":39,"x_max":590,"o":"m 39 711 q 41 814 39 765 q 336 817 105 817 q 572 814 489 817 q 582 810 578 814 q 586 800 586 806 l 586 665 q 346 231 454 405 q 575 228 510 230 q 585 224 581 228 q 589 214 589 220 q 590 98 590 133 q 589 -3 590 44 q 356 -6 524 -6 q 206 -4 322 -6 q 54 0 90 -1 q 45 4 49 0 q 41 14 41 8 q 40 97 40 57 q 41 174 40 133 q 108 298 72 236 q 202 456 143 359 q 278 581 261 552 q 54 586 121 584 q 45 590 49 586 q 41 600 41 594 q 39 711 39 677 z "},"{":{"ha":469,"x_min":41,"x_max":487,"o":"m 45 388 q 41 407 41 390 q 45 426 41 424 q 85 457 70 437 q 100 505 100 478 q 82 645 100 551 q 64 772 64 740 q 83 865 64 825 q 137 930 102 905 q 219 967 172 955 q 321 979 265 979 q 487 958 400 979 l 458 745 l 336 753 q 307 746 318 754 q 296 726 296 738 q 307 672 296 715 q 329 577 318 629 q 341 491 341 525 q 319 439 341 463 q 270 407 297 414 q 319 375 297 399 q 341 322 341 351 q 329 237 341 289 q 307 142 318 184 q 296 88 296 99 q 307 68 296 76 q 336 61 318 60 l 458 69 l 487 -144 q 321 -165 400 -165 q 219 -153 265 -165 q 137 -116 172 -141 q 83 -51 102 -92 q 64 42 64 -11 q 82 168 64 74 q 100 309 100 262 q 85 357 100 336 q 45 388 70 377 z "},"|":{"ha":380,"x_min":62,"x_max":345,"o":"m 62 407 q 68 977 62 760 q 186 980 132 980 q 326 977 242 980 q 335 972 331 977 q 339 963 339 968 q 345 407 345 708 q 339 -163 345 54 q 220 -166 274 -166 q 81 -163 164 -166 q 72 -159 76 -163 q 68 -149 68 -155 q 62 407 62 106 z "},"}":{"ha":469,"x_min":9,"x_max":456,"o":"m 9 -144 l 38 69 l 160 61 q 190 68 179 60 q 201 88 201 76 q 190 142 201 99 q 167 237 178 184 q 156 322 156 289 q 178 375 156 351 q 227 407 199 399 q 178 439 199 414 q 156 491 156 463 q 167 577 156 525 q 190 672 178 629 q 201 726 201 715 q 190 746 201 738 q 160 753 179 754 l 38 745 l 9 958 q 175 979 96 979 q 278 967 232 979 q 359 930 324 955 q 413 865 394 905 q 433 772 433 825 q 414 645 433 740 q 396 505 396 551 q 411 457 396 478 q 452 426 426 437 q 456 407 456 424 q 452 388 456 390 q 411 357 426 377 q 396 309 396 336 q 414 168 396 262 q 433 42 433 74 q 413 -51 433 -11 q 359 -116 394 -92 q 278 -153 324 -141 q 175 -165 232 -165 q 9 -144 96 -165 z "},"~":{"ha":567,"x_min":19,"x_max":574,"o":"m 19 369 q 21 376 19 372 q 26 385 23 381 q 33 398 28 390 q 40 410 37 406 q 121 550 86 493 q 244 514 190 514 q 320 526 273 514 q 397 537 368 537 q 567 474 466 537 q 574 463 574 471 q 573 457 574 460 q 569 450 571 454 q 564 441 567 445 q 558 430 562 437 q 552 420 554 424 q 472 282 511 346 q 349 317 402 317 q 272 307 320 317 q 193 296 223 296 q 26 357 121 298 q 19 369 19 361 z "},"":{"ha":347,"x_min":60,"x_max":315,"o":"m 70 721 q 71 814 70 765 q 171 816 120 816 q 288 814 216 816 q 297 810 293 814 q 301 800 301 806 q 302 696 302 745 q 301 604 302 652 q 228 602 271 602 q 84 606 165 602 q 74 611 78 607 q 71 620 71 614 q 70 721 70 673 m 60 271 q 65 543 60 404 q 184 546 130 546 q 296 543 230 546 q 305 538 301 542 q 309 529 309 534 q 315 271 315 384 q 307 0 315 153 q 211 -3 258 -3 q 79 0 125 -3 q 69 4 73 0 q 65 14 65 8 q 60 271 60 158 z "},"":{"ha":543,"x_min":35,"x_max":542,"o":"m 35 407 q 54 572 35 503 q 105 682 72 641 q 189 747 139 723 q 193 977 191 885 q 298 980 257 980 q 423 977 340 980 q 433 972 429 977 q 437 963 437 968 q 439 781 437 948 q 542 763 480 778 l 517 575 l 404 582 q 322 541 352 586 q 292 407 292 496 q 299 319 292 354 q 321 264 306 283 q 356 237 336 244 q 404 232 376 230 l 517 239 l 541 51 q 440 39 487 41 q 437 -163 438 -105 q 332 -166 372 -166 q 206 -163 289 -166 q 197 -159 201 -163 q 193 -149 193 -155 q 189 78 191 -88 q 74 197 114 117 q 35 407 35 277 z "},"":{"ha":515,"x_min":8,"x_max":528,"o":"m 8 121 q 12 140 8 139 q 42 149 26 142 q 73 166 57 156 q 99 193 89 177 q 110 227 110 209 q 103 305 110 258 q 43 307 99 305 q 34 311 38 307 q 30 320 30 315 q 28 416 28 391 q 30 505 28 439 q 65 506 43 505 q 57 589 57 556 q 70 682 57 642 q 107 749 83 722 q 166 792 130 775 q 245 816 202 809 q 342 823 288 823 q 507 802 421 823 l 479 589 l 357 597 q 309 585 328 598 q 289 549 289 572 q 294 507 289 535 q 423 505 374 506 q 433 500 429 505 q 437 491 437 496 q 438 392 438 436 q 437 304 438 353 l 340 304 q 350 231 348 263 q 513 228 461 230 q 522 224 518 228 q 526 214 526 220 q 528 97 528 132 q 526 -3 528 44 q 325 -6 462 -6 q 175 -4 291 -6 q 23 0 58 -1 q 14 4 18 0 q 9 14 9 8 q 8 121 8 89 z "},"":{"ha":836,"x_min":46,"x_max":815,"o":"m 360 406 q 363 374 360 387 q 371 353 367 361 q 385 342 376 346 q 404 337 394 338 q 427 336 413 336 q 455 338 445 336 q 475 347 465 340 q 488 368 484 353 q 492 406 492 382 q 488 442 492 428 q 474 464 484 456 q 454 473 465 471 q 426 476 443 476 q 398 473 409 476 q 378 464 387 471 q 365 442 369 456 q 360 406 360 428 m 46 161 q 165 284 72 190 q 150 406 150 333 q 165 513 150 469 q 102 578 142 537 q 50 633 63 619 q 115 702 84 671 q 195 779 136 723 q 205 783 200 783 q 215 779 210 783 q 359 640 282 714 q 426 642 389 642 q 518 637 480 642 q 661 777 629 747 q 671 781 666 781 q 681 777 676 781 q 741 718 690 769 q 815 643 798 661 q 688 512 793 618 q 702 406 702 468 q 691 302 702 345 q 808 185 774 221 q 743 116 773 147 q 662 40 721 95 q 653 35 658 35 q 643 40 647 35 q 515 162 571 106 q 426 158 478 158 q 336 162 369 158 q 197 29 235 62 q 188 25 193 25 q 178 29 182 25 q 121 84 157 48 q 46 161 89 117 z "},"":{"ha":712,"x_min":11,"x_max":728,"o":"m 11 809 q 153 817 73 817 q 262 813 211 817 q 274 809 268 813 q 282 800 280 805 q 369 504 315 701 q 456 800 422 694 q 465 809 458 805 q 477 813 471 813 q 586 817 528 817 q 728 809 666 817 q 615 463 674 581 q 568 397 594 427 q 658 399 618 398 q 667 395 664 399 q 671 385 671 391 q 673 275 673 343 q 671 195 673 252 q 507 193 656 195 q 509 0 508 64 q 387 -3 444 -3 q 245 0 329 -3 q 236 4 240 0 q 232 14 232 8 q 233 194 232 72 q 81 198 101 197 q 72 202 76 198 q 68 212 68 206 q 66 305 66 282 q 68 399 66 340 q 112 398 76 398 q 171 397 148 398 q 124 463 143 430 q 11 809 65 579 z "},"":{"ha":380,"x_min":62,"x_max":345,"o":"m 62 99 q 68 361 62 261 q 186 364 140 364 q 326 361 231 364 q 335 357 331 361 q 339 351 339 354 q 345 99 345 233 q 339 -163 345 -63 q 220 -166 273 -166 q 81 -163 143 -166 q 72 -159 76 -163 q 68 -153 68 -156 q 62 99 62 -35 m 62 715 q 68 977 62 877 q 186 980 140 980 q 326 977 231 980 q 335 973 331 977 q 339 966 339 969 q 345 715 345 849 q 339 453 345 552 q 220 450 273 450 q 81 453 143 450 q 72 457 76 453 q 68 463 68 460 q 62 715 62 581 z "},"":{"ha":722,"x_min":16,"x_max":732,"o":"m 16 401 q 107 611 16 547 q 75 744 75 668 q 83 826 75 790 q 105 887 92 862 q 143 929 119 911 q 191 956 167 946 q 251 971 215 966 q 319 978 288 976 q 396 979 351 979 q 517 971 459 979 q 644 945 575 962 l 614 720 q 383 779 481 779 q 333 769 351 779 q 315 741 315 759 q 326 723 315 731 q 358 707 338 714 q 405 693 378 701 q 462 676 432 684 q 524 656 492 668 q 585 629 555 643 q 642 594 615 615 q 689 547 669 572 q 721 488 709 522 q 732 413 732 453 q 641 203 732 267 q 673 71 673 146 q 665 -12 673 24 q 643 -73 656 -48 q 605 -115 629 -97 q 557 -142 581 -132 q 497 -157 533 -152 q 429 -164 460 -162 q 352 -165 397 -165 q 231 -157 289 -165 q 104 -131 173 -148 l 134 94 q 365 35 266 35 q 415 45 397 35 q 433 73 433 55 q 422 92 433 83 q 390 107 410 100 q 343 122 370 113 q 286 138 316 130 q 224 159 256 146 q 163 185 193 171 q 106 221 133 199 q 59 267 79 242 q 27 327 39 292 q 16 401 16 361 m 280 407 q 296 380 280 393 q 337 359 312 367 q 388 351 362 351 q 447 368 425 351 q 468 407 468 385 q 452 434 468 421 q 411 455 436 448 q 360 463 386 463 q 301 446 323 463 q 280 407 280 429 z "},"":{"ha":597,"x_min":56,"x_max":568,"o":"m 357 770 q 358 857 357 808 q 448 859 398 859 q 553 857 501 859 q 563 853 559 857 q 567 844 567 849 q 568 746 568 789 q 567 659 568 708 q 498 657 526 657 q 372 662 451 657 q 362 666 366 662 q 358 675 358 670 q 357 770 357 729 m 56 770 q 57 857 56 808 q 150 859 97 859 q 252 857 200 859 q 262 853 258 857 q 266 844 266 849 q 267 746 267 789 q 266 659 267 708 q 197 657 225 657 q 71 662 150 657 q 61 666 65 662 q 57 675 57 670 q 56 770 56 729 z "},"":{"ha":936,"x_min":41,"x_max":922,"o":"m 138 552 q 123 517 138 552 q 109 407 109 483 q 138 262 109 331 q 217 143 167 193 q 336 63 267 93 q 481 34 405 34 q 627 63 558 34 q 746 143 696 93 q 825 262 796 193 q 854 407 854 331 q 825 552 854 483 q 746 671 796 621 q 627 750 696 721 q 481 780 558 780 q 336 750 405 780 q 217 671 267 721 q 138 552 167 621 m 76 236 q 58 277 76 236 q 41 407 41 317 q 76 578 41 496 q 170 719 111 660 q 310 813 229 778 q 481 848 392 848 q 653 813 571 848 q 793 719 734 778 q 887 578 852 660 q 922 407 922 496 q 887 236 922 317 q 793 95 852 154 q 653 1 734 36 q 481 -34 571 -34 q 310 1 392 -34 q 170 95 229 36 q 76 236 111 154 m 259 409 q 272 518 259 470 q 307 598 284 565 q 365 651 330 630 q 441 681 399 672 q 534 691 482 691 q 576 688 554 691 q 612 682 597 685 q 652 672 626 679 l 629 508 l 533 515 q 511 512 521 515 q 493 497 502 508 q 480 464 485 486 q 475 408 475 441 q 490 329 475 358 q 533 301 504 299 l 629 308 l 651 142 q 532 130 584 130 q 439 137 479 130 q 364 164 399 145 q 307 214 329 183 q 272 294 284 246 q 259 409 259 343 z "},"":{"ha":556,"x_min":30,"x_max":539,"o":"m 253 566 q 253 536 253 548 q 256 516 254 525 q 261 501 258 506 q 270 493 264 496 q 283 488 276 489 q 302 488 290 488 l 324 488 l 324 640 l 309 640 q 288 638 297 640 q 270 628 279 635 q 257 605 262 620 q 253 566 253 589 m 30 563 q 37 642 30 607 q 56 704 43 678 q 87 751 68 731 q 130 783 107 770 q 185 804 154 796 q 249 815 216 811 q 323 818 282 818 q 377 817 350 818 q 438 812 403 815 q 490 808 474 809 q 523 794 509 807 q 537 762 537 781 q 539 640 539 692 q 538 480 539 585 q 537 321 537 376 q 323 302 414 302 q 248 304 279 302 q 184 313 217 307 q 129 330 151 319 q 87 361 107 342 q 55 408 67 380 q 37 474 44 435 q 30 563 30 512 z "},"":{"ha":637,"x_min":40,"x_max":620,"o":"m 352 413 q 353 511 352 444 q 573 687 424 574 q 607 709 603 709 q 613 702 613 709 q 615 588 615 642 q 613 491 615 534 q 466 408 557 450 q 604 341 543 374 q 614 332 610 338 q 617 320 617 326 q 620 215 620 258 q 617 122 620 163 q 503 192 572 145 q 372 284 433 239 q 357 303 358 295 q 352 413 352 352 m 40 413 q 41 511 40 444 q 261 687 112 574 q 295 709 291 709 q 301 702 301 709 q 303 588 303 642 q 301 491 303 534 q 154 408 245 450 q 292 341 231 374 q 302 332 298 338 q 306 320 306 326 q 308 215 308 257 q 306 122 308 163 q 191 192 260 145 q 60 284 121 239 q 45 303 46 295 q 40 413 40 352 z "},"":{"ha":567,"x_min":39,"x_max":555,"o":"m 39 409 q 41 507 39 449 q 341 510 105 510 q 540 507 457 510 q 549 503 545 507 q 553 494 553 499 q 555 378 555 452 q 553 293 555 352 q 321 290 487 290 q 190 292 288 290 q 54 296 92 294 q 45 300 49 296 q 41 309 41 303 q 39 409 39 380 z "},"":{"ha":936,"x_min":41,"x_max":922,"o":"m 138 552 q 123 517 138 552 q 109 407 109 483 q 138 262 109 331 q 217 143 167 193 q 336 63 267 93 q 481 34 405 34 q 627 63 558 34 q 746 143 696 93 q 825 262 796 193 q 854 407 854 331 q 825 552 854 483 q 746 671 796 621 q 627 750 696 721 q 481 780 558 780 q 336 750 405 780 q 217 671 267 721 q 138 552 167 621 m 76 236 q 58 277 76 236 q 41 407 41 317 q 76 578 41 496 q 170 719 111 660 q 310 813 229 778 q 481 848 392 848 q 653 813 571 848 q 793 719 734 778 q 887 578 852 660 q 922 407 922 496 q 887 236 922 317 q 793 95 852 154 q 653 1 734 36 q 481 -34 571 -34 q 310 1 392 -34 q 170 95 229 36 q 76 236 111 154 m 271 424 q 272 544 271 467 q 273 664 273 621 l 273 674 l 282 675 q 461 690 378 690 q 514 689 491 690 q 562 684 537 688 q 605 672 587 680 q 640 653 623 665 q 667 624 657 641 q 684 583 678 607 q 690 528 690 559 q 669 448 690 484 q 611 390 648 413 q 645 353 631 376 l 645 353 l 645 353 q 715 155 688 269 l 718 143 l 706 141 q 613 137 664 137 q 543 139 578 137 q 529 143 536 139 q 520 155 523 147 q 465 328 482 272 q 468 152 468 210 l 468 142 l 458 141 q 381 140 415 140 q 292 141 341 140 q 278 147 284 141 q 273 161 273 153 q 272 290 273 201 q 271 424 271 380 m 464 481 l 468 481 q 497 490 485 481 q 508 510 508 499 q 474 545 508 545 q 469 545 472 545 q 464 545 465 545 q 464 513 464 535 q 464 481 464 490 z "},"":{"ha":488,"x_min":53,"x_max":462,"o":"m 53 768 q 54 856 53 807 q 295 859 119 859 q 448 856 365 859 q 457 852 453 856 q 461 842 461 848 q 462 753 462 812 q 461 663 462 687 q 275 660 395 660 q 68 666 224 660 q 58 670 62 666 q 54 680 55 674 q 53 768 53 727 z "},"":{"ha":369,"x_min":29,"x_max":367,"o":"m 29 666 q 70 774 29 734 q 181 819 112 815 q 325 782 282 819 q 367 666 367 746 q 327 558 367 599 q 218 515 287 518 q 73 551 116 515 q 29 666 29 587 m 165 666 q 173 637 165 644 q 198 629 180 629 q 223 637 215 629 q 231 666 231 644 q 222 695 231 688 q 195 703 214 703 q 173 695 180 703 q 165 666 165 687 z "},"":{"ha":620,"x_min":43,"x_max":605,"o":"m 43 511 q 44 610 43 532 q 218 612 73 611 q 222 803 219 670 q 311 805 265 805 q 413 803 346 805 q 422 799 418 803 q 426 790 426 795 q 428 708 426 767 q 430 612 429 648 q 591 610 543 612 q 600 606 596 610 q 604 598 603 603 q 605 519 605 581 q 604 421 605 461 q 430 419 579 420 q 426 241 429 371 q 337 239 383 239 q 235 241 302 239 q 226 245 230 241 q 222 253 223 248 q 219 420 221 292 q 57 424 124 422 q 48 427 52 424 q 44 436 45 431 q 43 511 43 474 m 60 118 q 62 209 60 156 q 356 212 131 212 q 572 209 479 212 q 581 206 577 209 q 584 197 584 202 q 585 91 585 169 q 584 11 585 51 q 338 8 531 8 q 208 11 309 8 q 74 14 107 13 q 65 17 69 14 q 62 26 62 21 q 60 118 60 89 z "},"":{"ha":430,"x_min":45,"x_max":413,"o":"m 47 673 q 173 861 102 764 q 282 864 224 864 q 407 861 337 864 q 413 856 413 861 q 372 799 413 848 q 317 735 362 786 q 249 654 271 684 q 51 659 149 654 q 45 663 46 660 q 47 673 44 667 z "},"":{"ha":285,"x_min":40,"x_max":272,"o":"m 40 415 q 41 509 40 460 q 141 511 90 511 q 258 509 186 511 q 267 505 263 509 q 271 495 271 500 q 272 391 272 440 q 271 298 272 347 q 198 297 241 297 q 54 301 135 297 q 45 305 48 301 q 41 315 41 309 q 40 415 40 368 z "},"":{"ha":439,"x_min":51,"x_max":401,"o":"m 217 69 q 356 -18 310 31 q 401 -119 401 -67 q 340 -228 401 -184 q 183 -271 279 -271 q 134 -269 157 -271 q 100 -265 111 -267 q 51 -256 88 -263 l 75 -66 l 141 -75 q 186 -69 170 -78 q 202 -43 202 -59 q 186 -18 202 -29 q 141 -4 170 -6 l 217 69 z "},"":{"ha":575,"x_min":31,"x_max":571,"o":"m 254 567 q 255 533 254 546 q 258 510 256 520 q 266 497 260 501 q 278 491 271 493 q 297 489 285 489 q 318 492 310 490 q 334 502 326 495 q 345 524 341 509 q 349 563 349 539 q 340 627 349 612 q 302 642 332 642 q 274 635 283 641 q 259 614 264 630 q 254 567 254 598 m 31 564 q 37 650 31 612 q 59 715 44 688 q 93 762 73 743 q 142 793 113 781 q 203 811 171 805 q 278 819 236 817 q 347 817 319 819 q 408 809 375 815 q 463 792 441 803 q 508 762 486 782 q 543 716 530 743 q 563 649 555 689 q 571 559 571 610 q 560 458 571 502 q 528 387 549 415 q 475 341 507 359 q 404 315 442 323 q 314 304 365 307 q 148 332 210 304 q 58 416 85 360 q 31 564 31 472 z "},"":{"ha":637,"x_min":46,"x_max":625,"o":"m 313 419 q 313 321 313 354 q 92 145 242 258 q 58 122 63 122 q 52 129 52 122 q 50 243 50 199 q 52 340 50 290 q 200 423 109 381 q 62 491 126 455 q 52 500 56 494 q 48 511 48 506 q 46 616 46 584 q 48 709 46 662 q 163 639 93 686 q 294 547 233 592 q 309 528 308 537 q 313 419 313 483 m 625 419 q 625 321 625 354 q 404 145 554 258 q 370 122 375 122 q 364 129 364 122 q 362 243 362 199 q 364 340 362 290 q 512 423 420 381 q 374 491 438 455 q 364 500 368 494 q 360 511 360 506 q 358 616 358 584 q 360 709 358 662 q 475 639 405 686 q 606 547 545 592 q 621 528 620 537 q 625 419 625 483 z "},"":{"ha":540,"x_min":19,"x_max":543,"o":"m 201 721 q 202 814 201 765 q 302 816 252 816 q 419 814 347 816 q 429 810 425 814 q 433 800 433 806 q 434 696 434 745 q 433 604 434 652 q 359 602 402 602 q 216 606 297 602 q 206 611 210 607 q 202 620 202 614 q 201 721 201 673 m 19 189 q 41 283 19 240 q 102 367 63 327 q 129 396 120 386 q 153 425 138 406 q 174 459 167 444 q 188 497 182 475 q 194 542 194 518 q 296 545 240 545 q 422 542 352 545 q 431 537 428 541 q 435 528 435 533 q 426 454 435 489 q 400 395 416 419 q 366 349 385 371 q 328 312 347 328 q 293 281 309 295 q 268 252 277 267 q 258 224 258 238 q 314 184 258 184 q 425 207 359 184 q 512 245 492 230 l 543 19 q 294 -9 423 -9 q 203 -4 243 -9 q 128 16 163 2 q 69 52 93 30 q 32 109 46 75 q 19 189 19 143 z "},"":{"ha":705,"x_min":13,"x_max":719,"o":"m 13 11 q 20 54 13 17 q 61 285 38 165 q 120 581 84 404 q 168 814 157 759 q 355 817 236 817 q 548 814 465 817 q 558 810 553 814 q 564 800 563 806 q 615 553 579 725 q 676 250 650 381 q 719 0 701 118 q 601 -3 655 -3 q 468 0 514 -3 q 458 4 462 0 q 452 14 453 8 q 427 149 437 92 l 301 149 q 275 0 291 77 q 163 -3 210 -3 q 24 0 107 -3 q 16 3 19 0 q 13 11 13 6 m 324 326 l 400 326 q 378 484 392 381 q 358 630 365 587 q 340 471 352 574 q 324 326 329 368 m 156 1051 q 255 1054 203 1054 q 373 1051 300 1054 q 384 1047 378 1051 q 393 1038 390 1043 q 427 975 406 1014 q 465 904 448 936 q 497 841 482 872 q 279 846 384 841 q 267 851 273 847 q 258 860 261 854 q 156 1051 184 994 z "},"":{"ha":705,"x_min":13,"x_max":719,"o":"m 13 11 q 20 54 13 17 q 61 285 38 165 q 120 581 84 404 q 168 814 157 759 q 355 817 236 817 q 548 814 465 817 q 558 810 553 814 q 564 800 563 806 q 615 553 579 725 q 676 250 650 381 q 719 0 701 118 q 601 -3 655 -3 q 468 0 514 -3 q 458 4 462 0 q 452 14 453 8 q 427 149 437 92 l 301 149 q 275 0 291 77 q 163 -3 210 -3 q 24 0 107 -3 q 16 3 19 0 q 13 11 13 6 m 324 326 l 400 326 q 378 484 392 381 q 358 630 365 587 q 340 471 352 574 q 324 326 329 368 m 249 849 q 242 855 242 850 q 267 897 242 860 q 371 1051 309 965 q 480 1054 422 1054 q 605 1051 535 1054 q 611 1045 611 1051 q 584 1005 611 1039 q 518 928 565 982 q 447 844 470 875 q 249 849 347 844 z "},"":{"ha":705,"x_min":13,"x_max":719,"o":"m 13 11 q 20 54 13 17 q 61 285 38 165 q 120 581 84 404 q 168 814 157 759 q 355 817 236 817 q 548 814 465 817 q 558 810 553 814 q 564 800 563 806 q 615 553 579 725 q 676 250 650 381 q 719 0 701 118 q 601 -3 655 -3 q 468 0 514 -3 q 458 4 462 0 q 452 14 453 8 q 427 149 437 92 l 301 149 q 275 0 291 77 q 163 -3 210 -3 q 24 0 107 -3 q 16 3 19 0 q 13 11 13 6 m 324 326 l 400 326 q 378 484 392 381 q 358 630 365 587 q 340 471 352 574 q 324 326 329 368 m 74 842 q 127 932 97 887 q 200 1036 157 978 q 221 1048 209 1047 q 412 1053 310 1053 q 506 1052 473 1053 q 634 892 556 996 q 640 886 635 891 q 647 876 644 880 q 654 867 650 872 q 660 858 658 862 q 662 852 662 854 q 655 846 662 846 q 546 844 585 844 q 449 846 499 844 q 415 896 431 870 q 390 938 399 921 q 366 985 381 956 q 298 856 329 910 q 289 846 295 850 q 278 842 283 842 q 168 840 205 840 q 74 842 122 840 z "},"":{"ha":705,"x_min":13,"x_max":719,"o":"m 13 11 q 20 54 13 17 q 61 285 38 165 q 120 581 84 404 q 168 814 157 759 q 355 817 236 817 q 548 814 465 817 q 558 810 553 814 q 564 800 563 806 q 615 553 579 725 q 676 250 650 381 q 719 0 701 118 q 601 -3 655 -3 q 468 0 514 -3 q 458 4 462 0 q 452 14 453 8 q 427 149 437 92 l 301 149 q 275 0 291 77 q 163 -3 210 -3 q 24 0 107 -3 q 16 3 19 0 q 13 11 13 6 m 324 326 l 400 326 q 378 484 392 381 q 358 630 365 587 q 340 471 352 574 q 324 326 329 368 m 98 988 q 104 1000 98 997 q 194 1048 159 1034 q 262 1062 230 1061 q 348 1044 293 1062 q 433 1027 404 1027 q 556 1066 478 1027 q 613 967 587 1016 q 623 951 615 963 q 633 932 630 938 q 636 923 636 925 q 629 910 636 915 q 464 844 532 844 q 385 859 435 844 q 307 873 335 873 q 183 835 257 873 q 128 930 159 875 q 120 945 125 936 q 112 959 115 954 q 105 972 108 965 q 99 982 101 978 q 98 988 98 987 z "},"":{"ha":705,"x_min":13,"x_max":719,"o":"m 13 14 q 55 253 32 131 q 118 572 78 376 q 168 814 159 767 q 355 817 236 817 q 548 814 465 817 q 558 810 553 814 q 564 800 563 806 q 615 553 579 725 q 676 250 650 381 q 719 0 701 118 q 601 -3 655 -3 q 468 0 514 -3 q 458 4 462 0 q 452 14 453 8 q 427 149 437 92 l 301 149 q 275 0 291 77 q 163 -3 210 -3 q 24 0 107 -3 q 15 4 19 0 q 13 14 12 8 m 324 326 l 400 326 q 378 484 392 381 q 358 630 365 587 q 340 471 352 574 q 324 326 329 368 m 411 960 q 412 1047 411 998 q 502 1049 453 1049 q 608 1047 555 1049 q 617 1043 613 1047 q 621 1034 621 1039 q 622 936 622 979 q 621 849 622 898 q 552 847 581 847 q 426 852 505 847 q 416 856 420 852 q 412 865 412 860 q 411 960 411 919 m 110 960 q 111 1047 110 998 q 204 1049 152 1049 q 307 1047 254 1049 q 316 1043 312 1047 q 320 1034 320 1039 q 321 936 321 979 q 320 849 321 898 q 251 847 279 847 q 125 852 204 847 q 115 856 119 852 q 111 865 111 860 q 110 960 110 919 z "},"":{"ha":705,"x_min":13,"x_max":719,"o":"m 13 11 q 20 54 13 17 q 61 285 38 165 q 120 581 84 404 q 168 814 157 759 q 311 817 227 816 q 246 857 267 828 q 226 935 226 885 q 260 1024 226 990 q 352 1061 295 1058 q 471 1031 436 1061 q 506 935 506 1001 q 484 859 506 890 q 423 817 463 829 q 548 814 477 816 q 558 810 553 814 q 564 800 563 806 q 615 553 579 725 q 676 250 650 381 q 719 0 701 118 q 601 -3 655 -3 q 468 0 514 -3 q 458 4 462 0 q 452 14 453 8 q 427 149 437 92 l 301 149 q 275 0 291 77 q 163 -3 210 -3 q 24 0 107 -3 q 16 3 19 0 q 13 11 13 6 m 339 935 q 345 911 339 917 q 366 904 351 904 q 387 910 380 904 q 393 935 393 917 q 386 959 393 953 q 363 965 379 965 q 345 959 351 965 q 339 935 339 952 m 324 326 l 400 326 q 378 484 392 381 q 358 630 365 587 q 340 471 352 574 q 324 326 329 368 z "},"":{"ha":982,"x_min":13,"x_max":970,"o":"m 13 11 q 20 54 13 17 q 61 285 38 165 q 120 581 84 404 q 168 814 157 759 q 562 818 319 818 q 952 814 778 818 q 962 810 958 813 q 966 800 966 806 q 967 683 967 718 q 966 583 967 630 q 750 581 908 581 q 699 581 723 581 q 697 510 698 546 q 860 507 819 509 q 869 503 865 507 q 873 494 873 499 q 874 392 874 438 q 873 301 874 350 l 697 301 q 699 231 698 277 l 715 231 q 955 228 881 231 q 964 224 960 228 q 968 214 968 220 q 970 97 970 132 q 968 -3 970 44 q 736 -6 904 -6 q 593 -4 702 -6 q 448 0 484 -1 q 438 4 442 0 q 434 14 434 8 q 429 296 431 167 l 321 296 q 275 0 300 122 q 163 -3 210 -3 q 24 0 107 -3 q 16 3 19 0 q 13 11 13 6 m 343 495 l 429 495 q 429 544 429 510 q 430 592 429 577 q 402 592 416 592 q 374 593 388 593 q 353 593 359 593 q 343 495 347 555 z "},"":{"ha":563,"x_min":35,"x_max":563,"o":"m 35 407 q 52 573 35 502 q 100 692 70 644 q 178 769 131 739 q 281 811 225 798 q 408 823 337 823 q 480 818 446 823 q 563 800 514 812 l 534 588 l 409 596 q 380 593 393 597 q 356 577 368 590 q 336 544 344 565 q 323 489 328 524 q 319 407 319 454 q 323 325 319 360 q 335 270 327 291 q 353 237 342 249 q 378 221 365 225 q 409 218 391 217 l 534 227 l 562 12 q 412 -3 483 -2 q 521 -138 521 -48 q 466 -235 521 -198 q 305 -271 410 -271 q 271 -270 285 -271 q 249 -268 256 -269 q 226 -264 241 -267 q 199 -259 211 -261 l 217 -123 l 249 -128 q 299 -117 284 -132 q 301 -84 315 -102 q 253 -64 288 -66 l 262 11 q 166 51 207 24 q 96 123 126 77 q 50 240 65 170 q 35 407 35 311 z "},"":{"ha":616,"x_min":62,"x_max":604,"o":"m 62 407 q 68 814 62 597 q 349 817 132 817 q 586 814 503 817 q 595 810 591 814 q 600 800 600 806 q 601 683 601 718 q 600 583 601 630 q 384 581 542 581 q 332 581 355 581 q 331 510 332 534 q 494 507 453 509 q 503 503 499 507 q 507 494 507 499 q 508 392 508 438 q 507 301 508 350 l 331 301 q 332 231 332 277 l 349 231 q 589 228 515 231 q 598 224 594 228 q 602 214 602 220 q 604 97 604 132 q 602 -3 604 44 q 370 -6 538 -6 q 227 -4 336 -6 q 81 0 117 -1 q 72 4 76 0 q 68 14 68 8 q 62 407 62 269 m 119 1051 q 218 1054 167 1054 q 336 1051 263 1054 q 348 1047 341 1051 q 357 1038 354 1043 q 390 975 369 1014 q 428 904 411 936 q 461 841 445 872 q 242 846 347 841 q 231 851 237 847 q 222 860 225 854 q 119 1051 148 994 z "},"":{"ha":616,"x_min":62,"x_max":604,"o":"m 62 407 q 68 814 62 597 q 349 817 132 817 q 586 814 503 817 q 595 810 591 814 q 600 800 600 806 q 601 683 601 718 q 600 583 601 630 q 384 581 542 581 q 332 581 355 581 q 331 510 332 534 q 494 507 453 509 q 503 503 499 507 q 507 494 507 499 q 508 392 508 438 q 507 301 508 350 l 331 301 q 332 231 332 277 l 349 231 q 589 228 515 231 q 598 224 594 228 q 602 214 602 220 q 604 97 604 132 q 602 -3 604 44 q 370 -6 538 -6 q 227 -4 336 -6 q 81 0 117 -1 q 72 4 76 0 q 68 14 68 8 q 62 407 62 269 m 213 849 q 206 855 206 850 q 230 897 206 860 q 335 1051 272 965 q 444 1054 386 1054 q 568 1051 498 1054 q 575 1045 575 1051 q 547 1005 575 1039 q 481 928 529 982 q 410 844 434 875 q 213 849 311 844 z "},"":{"ha":616,"x_min":38,"x_max":625,"o":"m 62 407 q 68 814 62 597 q 349 817 132 817 q 586 814 503 817 q 595 810 591 814 q 600 800 600 806 q 601 683 601 718 q 600 583 601 630 q 384 581 542 581 q 332 581 355 581 q 331 510 332 534 q 494 507 453 509 q 503 503 499 507 q 507 494 507 499 q 508 392 508 438 q 507 301 508 350 l 331 301 q 332 231 332 277 l 349 231 q 589 228 515 231 q 598 224 594 228 q 602 214 602 220 q 604 97 604 132 q 602 -3 604 44 q 370 -6 538 -6 q 227 -4 336 -6 q 81 0 117 -1 q 72 4 76 0 q 68 14 68 8 q 62 407 62 269 m 38 842 q 91 932 61 887 q 163 1036 121 978 q 184 1048 172 1047 q 376 1053 273 1053 q 470 1052 436 1053 q 598 892 519 996 q 603 886 599 891 q 611 876 607 880 q 617 867 614 872 q 623 858 621 862 q 625 852 625 854 q 618 846 625 846 q 509 844 548 844 q 412 846 463 844 q 379 896 395 870 q 354 938 363 921 q 329 985 345 956 q 262 856 292 910 q 253 846 259 850 q 241 842 247 842 q 131 840 168 840 q 38 842 85 840 z "},"":{"ha":616,"x_min":62,"x_max":604,"o":"m 62 407 q 68 814 62 597 q 349 817 132 817 q 586 814 503 817 q 595 810 591 814 q 600 800 600 806 q 601 683 601 718 q 600 583 601 630 q 384 581 542 581 q 332 581 355 581 q 331 510 332 534 q 494 507 453 509 q 503 503 499 507 q 507 494 507 499 q 508 392 508 438 q 507 301 508 350 l 331 301 q 332 231 332 277 l 349 231 q 589 228 515 231 q 598 224 594 228 q 602 214 602 220 q 604 97 604 132 q 602 -3 604 44 q 370 -6 538 -6 q 227 -4 336 -6 q 81 0 117 -1 q 72 4 76 0 q 68 14 68 8 q 62 407 62 269 m 375 960 q 376 1047 375 998 q 466 1049 416 1049 q 571 1047 519 1049 q 581 1043 576 1047 q 585 1034 585 1039 q 586 936 586 979 q 585 849 586 898 q 516 847 544 847 q 389 852 469 847 q 380 856 384 852 q 376 865 376 860 q 375 960 375 919 m 74 960 q 75 1047 74 998 q 167 1049 115 1049 q 270 1047 218 1049 q 279 1043 275 1047 q 283 1034 283 1039 q 284 936 284 979 q 283 849 284 898 q 215 847 243 847 q 88 852 168 847 q 78 856 82 852 q 75 865 75 860 q 74 960 74 919 z "},"":{"ha":380,"x_min":-14,"x_max":345,"o":"m 62 407 q 68 814 62 597 q 186 817 132 817 q 326 814 242 817 q 335 810 331 814 q 339 800 339 806 q 345 407 345 545 q 339 0 345 217 q 220 -3 275 -3 q 81 0 164 -3 q 72 4 76 0 q 68 14 68 8 q 62 407 62 269 m -14 1051 q 85 1054 34 1054 q 203 1051 130 1054 q 215 1047 209 1051 q 224 1038 221 1043 q 257 975 236 1014 q 295 904 278 936 q 328 841 312 872 q 110 846 214 841 q 98 851 104 847 q 89 860 92 854 q -14 1051 15 994 z "},"":{"ha":380,"x_min":62,"x_max":442,"o":"m 62 407 q 68 814 62 597 q 186 817 132 817 q 326 814 242 817 q 335 810 331 814 q 339 800 339 806 q 345 407 345 545 q 339 0 345 217 q 220 -3 275 -3 q 81 0 164 -3 q 72 4 76 0 q 68 14 68 8 q 62 407 62 269 m 80 849 q 73 855 73 850 q 97 897 73 860 q 202 1051 139 965 q 311 1054 253 1054 q 435 1051 365 1054 q 442 1045 442 1051 q 414 1005 442 1039 q 348 928 396 982 q 277 844 301 875 q 80 849 178 844 z "},"":{"ha":380,"x_min":-95,"x_max":492,"o":"m 62 407 q 68 814 62 597 q 186 817 132 817 q 326 814 242 817 q 335 810 331 814 q 339 800 339 806 q 345 407 345 545 q 339 0 345 217 q 220 -3 275 -3 q 81 0 164 -3 q 72 4 76 0 q 68 14 68 8 q 62 407 62 269 m -95 842 q -42 932 -72 887 q 31 1036 -12 978 q 51 1048 39 1047 q 243 1053 140 1053 q 337 1052 303 1053 q 465 892 387 996 q 470 886 466 891 q 478 876 474 880 q 485 867 481 872 q 490 858 488 862 q 492 852 492 854 q 485 846 492 846 q 376 844 415 844 q 279 846 330 844 q 246 896 262 870 q 221 938 230 921 q 196 985 212 956 q 129 856 159 910 q 120 846 126 850 q 108 842 114 842 q -2 840 35 840 q -95 842 -47 840 z "},"":{"ha":380,"x_min":-59,"x_max":453,"o":"m 62 407 q 68 814 62 597 q 186 817 132 817 q 326 814 242 817 q 335 810 331 814 q 339 800 339 806 q 345 407 345 545 q 339 0 345 217 q 220 -3 275 -3 q 81 0 164 -3 q 72 4 76 0 q 68 14 68 8 q 62 407 62 269 m 242 960 q 243 1047 242 998 q 333 1049 283 1049 q 438 1047 386 1049 q 448 1043 444 1047 q 452 1034 452 1039 q 453 936 453 979 q 452 849 453 898 q 383 847 411 847 q 256 852 336 847 q 247 856 251 852 q 243 865 243 860 q 242 960 242 919 m -59 960 q -58 1047 -59 998 q 34 1049 -18 1049 q 137 1047 85 1049 q 146 1043 142 1047 q 151 1034 151 1039 q 152 936 152 979 q 151 849 152 898 q 82 847 110 847 q -45 852 35 847 q -54 856 -51 852 q -58 865 -58 860 q -59 960 -59 919 z "},"":{"ha":732,"x_min":15,"x_max":705,"o":"m 15 409 q 16 507 15 449 q 65 509 42 509 q 67 637 65 532 q 68 800 68 741 q 214 817 135 810 q 351 823 294 823 q 476 811 422 823 q 575 769 531 798 q 647 692 619 739 q 690 573 675 644 q 705 407 705 502 q 698 278 705 335 q 676 178 690 220 q 639 104 662 135 q 588 52 616 72 q 523 19 561 32 q 445 2 486 7 q 354 -3 405 -3 q 81 14 269 -3 q 72 18 76 14 q 68 27 68 22 q 67 112 68 67 q 67 210 67 156 q 66 294 66 263 q 30 296 44 295 q 21 300 24 296 q 16 309 17 303 q 15 409 15 380 m 335 508 q 374 507 360 508 q 384 503 380 507 q 388 494 388 499 q 389 378 389 452 q 388 293 389 352 q 335 292 362 292 q 336 259 335 280 q 336 228 336 238 l 373 228 q 391 230 383 228 q 407 238 398 232 q 421 257 415 244 q 431 289 427 270 q 438 338 436 308 q 441 407 441 368 q 437 488 441 454 q 428 540 433 521 q 412 570 422 559 q 394 584 403 581 q 373 587 385 587 l 336 587 q 335 508 335 536 z "},"":{"ha":746,"x_min":62,"x_max":711,"o":"m 62 407 q 68 814 62 597 q 180 817 132 817 q 297 814 220 817 q 312 800 307 813 l 452 453 l 448 814 q 566 817 512 817 q 692 814 619 817 q 701 810 697 813 q 705 800 705 806 q 711 407 711 545 q 705 0 711 217 q 600 -3 649 -3 q 476 0 542 -3 q 461 14 466 0 l 321 361 l 326 0 q 214 -3 261 -3 q 81 0 160 -3 q 72 4 76 0 q 68 14 68 8 q 62 407 62 269 m 122 988 q 129 1000 122 997 q 219 1048 183 1034 q 286 1062 254 1061 q 373 1044 317 1062 q 457 1027 428 1027 q 580 1066 503 1027 q 638 967 611 1016 q 647 951 640 963 q 657 932 654 938 q 661 923 661 925 q 654 910 661 915 q 488 844 556 844 q 409 859 459 844 q 331 873 359 873 q 208 835 282 873 q 153 930 183 875 q 144 945 150 936 q 136 959 139 954 q 129 972 133 965 q 124 982 125 978 q 122 988 122 987 z "},"":{"ha":732,"x_min":35,"x_max":724,"o":"m 35 407 q 57 583 35 506 q 118 712 78 660 q 215 791 158 763 q 345 823 273 820 q 463 814 411 823 q 558 785 514 805 q 631 733 601 765 q 683 654 662 701 q 714 547 704 608 q 724 407 724 486 q 703 231 724 309 q 640 103 681 154 q 542 24 599 52 q 412 -8 485 -4 q 295 1 347 -8 q 200 30 243 10 q 127 82 157 50 q 76 160 97 114 q 45 267 55 206 q 35 407 35 329 m 319 407 q 322 327 319 360 q 330 274 325 293 q 343 244 335 255 q 360 231 352 234 q 381 228 369 228 q 401 231 393 228 q 418 244 410 234 q 430 274 426 255 q 438 327 435 293 q 441 407 441 360 q 439 476 441 447 q 432 525 437 506 q 423 557 428 545 q 410 575 418 569 q 395 584 402 582 q 377 586 387 586 q 360 584 367 586 q 346 576 353 582 q 334 557 339 569 q 326 525 330 545 q 320 476 322 506 q 319 407 319 447 m 175 1051 q 274 1054 222 1054 q 392 1051 319 1054 q 403 1047 397 1051 q 412 1038 409 1043 q 446 975 425 1014 q 484 904 467 936 q 516 841 501 872 q 298 846 402 841 q 286 851 292 847 q 277 860 280 854 q 175 1051 203 994 z "},"":{"ha":732,"x_min":35,"x_max":724,"o":"m 35 407 q 57 583 35 506 q 118 712 78 660 q 215 791 158 763 q 345 823 273 820 q 463 814 411 823 q 558 785 514 805 q 631 733 601 765 q 683 654 662 701 q 714 547 704 608 q 724 407 724 486 q 703 231 724 309 q 640 103 681 154 q 542 24 599 52 q 412 -8 485 -4 q 295 1 347 -8 q 200 30 243 10 q 127 82 157 50 q 76 160 97 114 q 45 267 55 206 q 35 407 35 329 m 319 407 q 322 327 319 360 q 330 274 325 293 q 343 244 335 255 q 360 231 352 234 q 381 228 369 228 q 401 231 393 228 q 418 244 410 234 q 430 274 426 255 q 438 327 435 293 q 441 407 441 360 q 439 476 441 447 q 432 525 437 506 q 423 557 428 545 q 410 575 418 569 q 395 584 402 582 q 377 586 387 586 q 360 584 367 586 q 346 576 353 582 q 334 557 339 569 q 326 525 330 545 q 320 476 322 506 q 319 407 319 447 m 268 849 q 261 855 261 850 q 286 897 261 860 q 390 1051 328 965 q 499 1054 441 1054 q 624 1051 554 1054 q 630 1045 630 1051 q 603 1005 630 1039 q 537 928 584 982 q 466 844 489 875 q 268 849 366 844 z "},"":{"ha":732,"x_min":35,"x_max":724,"o":"m 35 407 q 57 583 35 506 q 118 712 78 660 q 215 791 158 763 q 345 823 273 820 q 463 814 411 823 q 558 785 514 805 q 631 733 601 765 q 683 654 662 701 q 714 547 704 608 q 724 407 724 486 q 703 231 724 309 q 640 103 681 154 q 542 24 599 52 q 412 -8 485 -4 q 295 1 347 -8 q 200 30 243 10 q 127 82 157 50 q 76 160 97 114 q 45 267 55 206 q 35 407 35 329 m 319 407 q 322 327 319 360 q 330 274 325 293 q 343 244 335 255 q 360 231 352 234 q 381 228 369 228 q 401 231 393 228 q 418 244 410 234 q 430 274 426 255 q 438 327 435 293 q 441 407 441 360 q 439 476 441 447 q 432 525 437 506 q 423 557 428 545 q 410 575 418 569 q 395 584 402 582 q 377 586 387 586 q 360 584 367 586 q 346 576 353 582 q 334 557 339 569 q 326 525 330 545 q 320 476 322 506 q 319 407 319 447 m 93 842 q 146 932 116 887 q 219 1036 176 978 q 240 1048 228 1047 q 431 1053 329 1053 q 525 1052 492 1053 q 653 892 575 996 q 659 886 654 891 q 666 876 663 880 q 673 867 669 872 q 679 858 677 862 q 681 852 681 854 q 674 846 681 846 q 565 844 604 844 q 468 846 518 844 q 434 896 450 870 q 409 938 418 921 q 385 985 400 956 q 317 856 348 910 q 308 846 314 850 q 297 842 302 842 q 186 840 224 840 q 93 842 141 840 z "},"":{"ha":732,"x_min":35,"x_max":724,"o":"m 35 407 q 57 583 35 506 q 118 712 78 660 q 215 791 158 763 q 345 823 273 820 q 463 814 411 823 q 558 785 514 805 q 631 733 601 765 q 683 654 662 701 q 714 547 704 608 q 724 407 724 486 q 703 231 724 309 q 640 103 681 154 q 542 24 599 52 q 412 -8 485 -4 q 295 1 347 -8 q 200 30 243 10 q 127 82 157 50 q 76 160 97 114 q 45 267 55 206 q 35 407 35 329 m 319 407 q 322 327 319 360 q 330 274 325 293 q 343 244 335 255 q 360 231 352 234 q 381 228 369 228 q 401 231 393 228 q 418 244 410 234 q 430 274 426 255 q 438 327 435 293 q 441 407 441 360 q 439 476 441 447 q 432 525 437 506 q 423 557 428 545 q 410 575 418 569 q 395 584 402 582 q 377 586 387 586 q 360 584 367 586 q 346 576 353 582 q 334 557 339 569 q 326 525 330 545 q 320 476 322 506 q 319 407 319 447 m 117 988 q 123 1000 117 997 q 213 1048 178 1034 q 281 1062 249 1061 q 367 1044 312 1062 q 452 1027 423 1027 q 575 1066 497 1027 q 632 967 606 1016 q 642 951 634 963 q 652 932 649 938 q 655 923 655 925 q 648 910 655 915 q 483 844 551 844 q 404 859 454 844 q 326 873 354 873 q 202 835 276 873 q 147 930 178 875 q 139 945 144 936 q 131 959 134 954 q 124 972 127 965 q 118 982 120 978 q 117 988 117 987 z "},"":{"ha":732,"x_min":35,"x_max":724,"o":"m 35 407 q 57 583 35 506 q 118 712 78 660 q 215 791 158 763 q 345 823 273 820 q 463 814 411 823 q 558 785 514 805 q 631 733 601 765 q 683 654 662 701 q 714 547 704 608 q 724 407 724 486 q 703 231 724 309 q 640 103 681 154 q 542 24 599 52 q 412 -8 485 -4 q 295 1 347 -8 q 200 30 243 10 q 127 82 157 50 q 76 160 97 114 q 45 267 55 206 q 35 407 35 329 m 319 407 q 322 327 319 360 q 330 274 325 293 q 343 244 335 255 q 360 231 352 234 q 381 228 369 228 q 401 231 393 228 q 418 244 410 234 q 430 274 426 255 q 438 327 435 293 q 441 407 441 360 q 439 476 441 447 q 432 525 437 506 q 423 557 428 545 q 410 575 418 569 q 395 584 402 582 q 377 586 387 586 q 360 584 367 586 q 346 576 353 582 q 334 557 339 569 q 326 525 330 545 q 320 476 322 506 q 319 407 319 447 m 430 960 q 431 1047 430 998 q 521 1049 472 1049 q 627 1047 574 1049 q 636 1043 632 1047 q 640 1034 640 1039 q 641 936 641 979 q 640 849 641 898 q 571 847 600 847 q 445 852 524 847 q 435 856 439 852 q 431 865 431 860 q 430 960 430 919 m 129 960 q 130 1047 129 998 q 223 1049 171 1049 q 326 1047 273 1049 q 335 1043 331 1047 q 339 1034 339 1039 q 340 936 340 979 q 339 849 340 898 q 270 847 298 847 q 144 852 223 847 q 134 856 138 852 q 130 865 130 860 q 129 960 129 919 z "},"":{"ha":601,"x_min":55,"x_max":585,"o":"m 113 604 q 184 673 137 628 q 309 552 204 655 q 447 684 360 601 q 510 622 471 662 q 582 548 545 587 q 585 540 585 545 q 582 531 585 535 q 531 478 576 525 q 459 402 486 430 q 571 287 543 317 q 575 278 575 283 q 571 269 575 273 q 516 213 562 258 q 447 144 472 169 q 322 266 426 163 q 193 143 279 224 q 130 204 165 168 q 58 278 95 239 q 55 286 55 281 q 58 295 55 291 q 174 416 82 321 q 62 533 76 517 q 58 541 58 536 q 62 550 58 546 q 113 604 95 586 z "},"":{"ha":732,"x_min":35,"x_max":724,"o":"m 35 407 q 57 583 35 506 q 118 712 78 660 q 215 791 158 763 q 345 823 273 820 q 535 795 461 823 l 594 914 l 667 879 l 603 758 q 695 626 665 711 q 724 407 724 540 q 703 231 724 309 q 640 103 681 154 q 542 24 599 52 q 412 -8 485 -4 q 225 19 300 -8 l 165 -100 l 92 -65 l 156 56 q 65 188 95 102 q 35 407 35 273 m 319 407 q 319 365 319 391 l 359 441 l 420 563 q 402 581 412 576 q 377 586 391 586 q 360 584 367 586 q 346 576 353 582 q 334 557 339 569 q 326 525 330 545 q 320 476 322 506 q 319 407 319 447 m 340 250 q 357 232 347 237 q 381 228 367 228 q 401 231 393 228 q 418 244 410 234 q 430 274 426 255 q 438 327 435 293 q 441 407 441 360 q 440 449 441 424 l 419 408 l 340 250 z "},"":{"ha":716,"x_min":37,"x_max":707,"o":"m 37 402 q 42 814 37 597 q 161 817 106 817 q 300 814 217 817 q 309 810 305 814 q 313 800 313 806 q 319 361 319 545 q 322 289 319 316 q 332 246 325 261 q 349 227 340 232 q 373 222 358 222 q 403 232 393 222 q 419 271 413 241 q 425 361 425 301 q 430 814 425 597 q 549 817 495 817 q 688 814 605 817 q 697 810 693 814 q 701 800 701 806 q 707 402 707 545 q 693 247 707 315 q 655 131 680 179 q 593 52 631 84 q 509 5 556 21 q 404 -14 463 -11 q 318 -10 356 -14 q 244 3 280 -6 q 180 28 208 13 q 129 66 153 43 q 89 121 105 89 q 60 193 72 152 q 42 286 48 234 q 37 402 37 338 m 161 1051 q 260 1054 209 1054 q 378 1051 305 1054 q 390 1047 384 1051 q 399 1038 396 1043 q 432 975 411 1014 q 470 904 453 936 q 503 841 487 872 q 284 846 389 841 q 273 851 279 847 q 264 860 267 854 q 161 1051 190 994 z "},"":{"ha":716,"x_min":37,"x_max":707,"o":"m 37 402 q 42 814 37 597 q 161 817 106 817 q 300 814 217 817 q 309 810 305 814 q 313 800 313 806 q 319 361 319 545 q 322 289 319 316 q 332 246 325 261 q 349 227 340 232 q 373 222 358 222 q 403 232 393 222 q 419 271 413 241 q 425 361 425 301 q 430 814 425 597 q 549 817 495 817 q 688 814 605 817 q 697 810 693 814 q 701 800 701 806 q 707 402 707 545 q 693 247 707 315 q 655 131 680 179 q 593 52 631 84 q 509 5 556 21 q 404 -14 463 -11 q 318 -10 356 -14 q 244 3 280 -6 q 180 28 208 13 q 129 66 153 43 q 89 121 105 89 q 60 193 72 152 q 42 286 48 234 q 37 402 37 338 m 255 849 q 248 855 248 850 q 272 897 248 860 q 377 1051 314 965 q 486 1054 428 1054 q 610 1051 540 1054 q 617 1045 617 1051 q 589 1005 617 1039 q 523 928 571 982 q 452 844 476 875 q 255 849 353 844 z "},"":{"ha":716,"x_min":37,"x_max":707,"o":"m 37 402 q 42 814 37 597 q 161 817 106 817 q 300 814 217 817 q 309 810 305 814 q 313 800 313 806 q 319 361 319 545 q 322 289 319 316 q 332 246 325 261 q 349 227 340 232 q 373 222 358 222 q 403 232 393 222 q 419 271 413 241 q 425 361 425 301 q 430 814 425 597 q 549 817 495 817 q 688 814 605 817 q 697 810 693 814 q 701 800 701 806 q 707 402 707 545 q 693 247 707 315 q 655 131 680 179 q 593 52 631 84 q 509 5 556 21 q 404 -14 463 -11 q 318 -10 356 -14 q 244 3 280 -6 q 180 28 208 13 q 129 66 153 43 q 89 121 105 89 q 60 193 72 152 q 42 286 48 234 q 37 402 37 338 m 80 842 q 133 932 103 887 q 205 1036 163 978 q 226 1048 214 1047 q 418 1053 315 1053 q 512 1052 478 1053 q 640 892 562 996 q 645 886 641 891 q 653 876 649 880 q 660 867 656 872 q 665 858 663 862 q 667 852 667 854 q 660 846 667 846 q 551 844 590 844 q 454 846 505 844 q 421 896 437 870 q 396 938 405 921 q 371 985 387 956 q 304 856 334 910 q 295 846 301 850 q 283 842 289 842 q 173 840 210 840 q 80 842 127 840 z "},"":{"ha":716,"x_min":37,"x_max":707,"o":"m 37 402 q 42 814 37 597 q 161 817 106 817 q 300 814 217 817 q 309 810 305 814 q 313 800 313 806 q 319 361 319 545 q 322 289 319 316 q 332 246 325 261 q 349 227 340 232 q 373 222 358 222 q 403 232 393 222 q 419 271 413 241 q 425 361 425 301 q 430 814 425 597 q 549 817 495 817 q 688 814 605 817 q 697 810 693 814 q 701 800 701 806 q 707 402 707 545 q 693 247 707 315 q 655 131 680 179 q 593 52 631 84 q 509 5 556 21 q 404 -14 463 -11 q 318 -10 356 -14 q 244 3 280 -6 q 180 28 208 13 q 129 66 153 43 q 89 121 105 89 q 60 193 72 152 q 42 286 48 234 q 37 402 37 338 m 417 960 q 418 1047 417 998 q 508 1049 458 1049 q 613 1047 561 1049 q 623 1043 618 1047 q 627 1034 627 1039 q 628 936 628 979 q 627 849 628 898 q 558 847 586 847 q 431 852 511 847 q 422 856 426 852 q 418 865 418 860 q 417 960 417 919 m 116 960 q 117 1047 116 998 q 209 1049 157 1049 q 312 1047 260 1049 q 321 1043 317 1047 q 326 1034 326 1039 q 327 936 327 979 q 326 849 327 898 q 257 847 285 847 q 130 852 210 847 q 121 856 124 852 q 117 865 117 860 q 116 960 116 919 z "},"":{"ha":712,"x_min":11,"x_max":728,"o":"m 11 809 q 153 817 73 817 q 262 813 211 817 q 274 809 268 813 q 282 800 280 805 q 369 504 315 701 q 456 800 422 694 q 465 809 458 805 q 477 813 471 813 q 586 817 528 817 q 728 809 666 817 q 615 463 674 581 q 505 335 572 391 q 509 0 508 111 q 387 -3 444 -3 q 245 0 329 -3 q 236 4 240 0 q 232 14 232 8 q 234 335 232 115 q 124 463 166 392 q 11 809 65 579 m 255 849 q 248 855 248 850 q 272 897 248 860 q 377 1051 314 965 q 486 1054 428 1054 q 610 1051 540 1054 q 617 1045 617 1051 q 589 1005 617 1039 q 523 928 571 982 q 452 844 476 875 q 255 849 353 844 z "},"":{"ha":692,"x_min":62,"x_max":692,"o":"m 334 407 q 334 381 334 398 q 334 355 334 364 l 347 355 q 368 357 359 355 q 387 363 377 358 q 403 375 397 367 q 412 397 409 383 q 416 430 416 411 q 416 461 416 450 q 413 483 415 473 q 407 497 410 492 q 396 505 403 502 q 380 510 389 509 q 356 511 371 511 q 346 510 353 511 q 334 510 339 510 q 334 407 334 442 m 62 407 q 68 814 62 597 q 186 817 132 817 q 326 814 242 817 q 335 810 331 814 q 339 800 339 806 q 338 742 339 776 q 402 740 374 742 q 460 736 430 739 q 512 726 489 732 q 558 712 535 721 q 598 690 581 703 q 631 660 615 677 q 657 621 647 643 q 676 571 668 598 q 688 509 684 543 q 692 434 692 475 q 684 342 692 384 q 660 270 675 301 q 622 215 645 239 q 570 176 598 192 q 504 151 542 161 q 427 137 467 142 q 337 133 387 133 q 339 0 339 44 q 220 -3 275 -3 q 81 0 164 -3 q 72 4 76 0 q 68 14 68 8 q 62 407 62 269 z "},"":{"ha":774,"x_min":52,"x_max":780,"o":"m 52 414 q 57 517 52 470 q 71 602 62 564 q 96 670 81 640 q 129 724 111 701 q 171 764 147 747 q 221 792 195 781 q 279 811 247 804 q 344 820 311 818 q 416 823 377 823 q 712 799 574 823 q 629 466 685 677 q 780 240 780 391 q 765 141 780 184 q 726 69 751 97 q 664 24 701 41 q 587 -1 628 6 q 498 -8 547 -8 q 372 1 441 -8 l 401 218 q 469 206 450 206 q 495 215 485 206 q 505 238 505 223 q 495 257 505 248 q 467 274 486 267 q 433 285 449 281 q 392 296 416 290 q 433 593 409 453 l 399 593 q 377 590 386 593 q 358 576 368 587 q 343 546 349 565 q 333 494 337 528 q 330 414 330 460 q 323 0 330 271 q 207 -3 258 -3 q 71 0 154 -3 q 61 4 65 0 q 57 14 57 8 q 52 414 52 269 z "},"":{"ha":705,"x_min":13,"x_max":719,"o":"m 13 11 q 20 54 13 17 q 61 285 38 165 q 120 581 84 404 q 168 814 157 759 q 355 817 236 817 q 548 814 465 817 q 558 810 553 814 q 564 800 563 806 q 615 553 579 725 q 676 250 650 381 q 719 0 701 118 q 601 -3 655 -3 q 468 0 514 -3 q 458 4 462 0 q 452 14 453 8 q 427 149 437 92 l 301 149 q 275 0 291 77 q 163 -3 210 -3 q 24 0 107 -3 q 16 3 19 0 q 13 11 13 6 m 324 326 l 400 326 q 378 484 392 381 q 358 630 365 587 q 340 471 352 574 q 324 326 329 368 m 156 1051 q 255 1054 203 1054 q 373 1051 300 1054 q 384 1047 378 1051 q 393 1038 390 1043 q 427 975 406 1014 q 465 904 448 936 q 497 841 482 872 q 279 846 384 841 q 267 851 273 847 q 258 860 261 854 q 156 1051 184 994 z "},"":{"ha":705,"x_min":13,"x_max":719,"o":"m 13 11 q 20 54 13 17 q 61 285 38 165 q 120 581 84 404 q 168 814 157 759 q 355 817 236 817 q 548 814 465 817 q 558 810 553 814 q 564 800 563 806 q 615 553 579 725 q 676 250 650 381 q 719 0 701 118 q 601 -3 655 -3 q 468 0 514 -3 q 458 4 462 0 q 452 14 453 8 q 427 149 437 92 l 301 149 q 275 0 291 77 q 163 -3 210 -3 q 24 0 107 -3 q 16 3 19 0 q 13 11 13 6 m 324 326 l 400 326 q 378 484 392 381 q 358 630 365 587 q 340 471 352 574 q 324 326 329 368 m 249 849 q 242 855 242 850 q 267 897 242 860 q 371 1051 309 965 q 480 1054 422 1054 q 605 1051 535 1054 q 611 1045 611 1051 q 584 1005 611 1039 q 518 928 565 982 q 447 844 470 875 q 249 849 347 844 z "},"":{"ha":705,"x_min":13,"x_max":719,"o":"m 13 11 q 20 54 13 17 q 61 285 38 165 q 120 581 84 404 q 168 814 157 759 q 355 817 236 817 q 548 814 465 817 q 558 810 553 814 q 564 800 563 806 q 615 553 579 725 q 676 250 650 381 q 719 0 701 118 q 601 -3 655 -3 q 468 0 514 -3 q 458 4 462 0 q 452 14 453 8 q 427 149 437 92 l 301 149 q 275 0 291 77 q 163 -3 210 -3 q 24 0 107 -3 q 16 3 19 0 q 13 11 13 6 m 324 326 l 400 326 q 378 484 392 381 q 358 630 365 587 q 340 471 352 574 q 324 326 329 368 m 74 842 q 127 932 97 887 q 200 1036 157 978 q 221 1048 209 1047 q 412 1053 310 1053 q 506 1052 473 1053 q 634 892 556 996 q 640 886 635 891 q 647 876 644 880 q 654 867 650 872 q 660 858 658 862 q 662 852 662 854 q 655 846 662 846 q 546 844 585 844 q 449 846 499 844 q 415 896 431 870 q 390 938 399 921 q 366 985 381 956 q 298 856 329 910 q 289 846 295 850 q 278 842 283 842 q 168 840 205 840 q 74 842 122 840 z "},"":{"ha":705,"x_min":13,"x_max":719,"o":"m 13 11 q 20 54 13 17 q 61 285 38 165 q 120 581 84 404 q 168 814 157 759 q 355 817 236 817 q 548 814 465 817 q 558 810 553 814 q 564 800 563 806 q 615 553 579 725 q 676 250 650 381 q 719 0 701 118 q 601 -3 655 -3 q 468 0 514 -3 q 458 4 462 0 q 452 14 453 8 q 427 149 437 92 l 301 149 q 275 0 291 77 q 163 -3 210 -3 q 24 0 107 -3 q 16 3 19 0 q 13 11 13 6 m 324 326 l 400 326 q 378 484 392 381 q 358 630 365 587 q 340 471 352 574 q 324 326 329 368 m 98 988 q 104 1000 98 997 q 194 1048 159 1034 q 262 1062 230 1061 q 348 1044 293 1062 q 433 1027 404 1027 q 556 1066 478 1027 q 613 967 587 1016 q 623 951 615 963 q 633 932 630 938 q 636 923 636 925 q 629 910 636 915 q 464 844 532 844 q 385 859 435 844 q 307 873 335 873 q 183 835 257 873 q 128 930 159 875 q 120 945 125 936 q 112 959 115 954 q 105 972 108 965 q 99 982 101 978 q 98 988 98 987 z "},"":{"ha":705,"x_min":13,"x_max":719,"o":"m 13 14 q 55 253 32 131 q 118 572 78 376 q 168 814 159 767 q 355 817 236 817 q 548 814 465 817 q 558 810 553 814 q 564 800 563 806 q 615 553 579 725 q 676 250 650 381 q 719 0 701 118 q 601 -3 655 -3 q 468 0 514 -3 q 458 4 462 0 q 452 14 453 8 q 427 149 437 92 l 301 149 q 275 0 291 77 q 163 -3 210 -3 q 24 0 107 -3 q 15 4 19 0 q 13 14 12 8 m 324 326 l 400 326 q 378 484 392 381 q 358 630 365 587 q 340 471 352 574 q 324 326 329 368 m 411 960 q 412 1047 411 998 q 502 1049 453 1049 q 608 1047 555 1049 q 617 1043 613 1047 q 621 1034 621 1039 q 622 936 622 979 q 621 849 622 898 q 552 847 581 847 q 426 852 505 847 q 416 856 420 852 q 412 865 412 860 q 411 960 411 919 m 110 960 q 111 1047 110 998 q 204 1049 152 1049 q 307 1047 254 1049 q 316 1043 312 1047 q 320 1034 320 1039 q 321 936 321 979 q 320 849 321 898 q 251 847 279 847 q 125 852 204 847 q 115 856 119 852 q 111 865 111 860 q 110 960 110 919 z "},"":{"ha":705,"x_min":13,"x_max":719,"o":"m 13 11 q 20 54 13 17 q 61 285 38 165 q 120 581 84 404 q 168 814 157 759 q 311 817 227 816 q 246 857 267 828 q 226 935 226 885 q 260 1024 226 990 q 352 1061 295 1058 q 471 1031 436 1061 q 506 935 506 1001 q 484 859 506 890 q 423 817 463 829 q 548 814 477 816 q 558 810 553 814 q 564 800 563 806 q 615 553 579 725 q 676 250 650 381 q 719 0 701 118 q 601 -3 655 -3 q 468 0 514 -3 q 458 4 462 0 q 452 14 453 8 q 427 149 437 92 l 301 149 q 275 0 291 77 q 163 -3 210 -3 q 24 0 107 -3 q 16 3 19 0 q 13 11 13 6 m 339 935 q 345 911 339 917 q 366 904 351 904 q 387 910 380 904 q 393 935 393 917 q 386 959 393 953 q 363 965 379 965 q 345 959 351 965 q 339 935 339 952 m 324 326 l 400 326 q 378 484 392 381 q 358 630 365 587 q 340 471 352 574 q 324 326 329 368 z "},"":{"ha":982,"x_min":13,"x_max":970,"o":"m 13 11 q 20 54 13 17 q 61 285 38 165 q 120 581 84 404 q 168 814 157 759 q 562 818 319 818 q 952 814 778 818 q 962 810 958 813 q 966 800 966 806 q 967 683 967 718 q 966 583 967 630 q 750 581 908 581 q 699 581 723 581 q 697 510 698 546 q 860 507 819 509 q 869 503 865 507 q 873 494 873 499 q 874 392 874 438 q 873 301 874 350 l 697 301 q 699 231 698 277 l 715 231 q 955 228 881 231 q 964 224 960 228 q 968 214 968 220 q 970 97 970 132 q 968 -3 970 44 q 736 -6 904 -6 q 593 -4 702 -6 q 448 0 484 -1 q 438 4 442 0 q 434 14 434 8 q 429 296 431 167 l 321 296 q 275 0 300 122 q 163 -3 210 -3 q 24 0 107 -3 q 16 3 19 0 q 13 11 13 6 m 343 495 l 429 495 q 429 544 429 510 q 430 592 429 577 q 402 592 416 592 q 374 593 388 593 q 353 593 359 593 q 343 495 347 555 z "},"":{"ha":563,"x_min":35,"x_max":563,"o":"m 35 407 q 52 573 35 502 q 100 692 70 644 q 178 769 131 739 q 281 811 225 798 q 408 823 337 823 q 480 818 446 823 q 563 800 514 812 l 534 588 l 409 596 q 380 593 393 597 q 356 577 368 590 q 336 544 344 565 q 323 489 328 524 q 319 407 319 454 q 323 325 319 360 q 335 270 327 291 q 353 237 342 249 q 378 221 365 225 q 409 218 391 217 l 534 227 l 562 12 q 412 -3 483 -2 q 521 -138 521 -48 q 466 -235 521 -198 q 305 -271 410 -271 q 271 -270 285 -271 q 249 -268 256 -269 q 226 -264 241 -267 q 199 -259 211 -261 l 217 -123 l 249 -128 q 299 -117 284 -132 q 301 -84 315 -102 q 253 -64 288 -66 l 262 11 q 166 51 207 24 q 96 123 126 77 q 50 240 65 170 q 35 407 35 311 z "},"":{"ha":616,"x_min":62,"x_max":604,"o":"m 62 407 q 68 814 62 597 q 349 817 132 817 q 586 814 503 817 q 595 810 591 814 q 600 800 600 806 q 601 683 601 718 q 600 583 601 630 q 384 581 542 581 q 332 581 355 581 q 331 510 332 534 q 494 507 453 509 q 503 503 499 507 q 507 494 507 499 q 508 392 508 438 q 507 301 508 350 l 331 301 q 332 231 332 277 l 349 231 q 589 228 515 231 q 598 224 594 228 q 602 214 602 220 q 604 97 604 132 q 602 -3 604 44 q 370 -6 538 -6 q 227 -4 336 -6 q 81 0 117 -1 q 72 4 76 0 q 68 14 68 8 q 62 407 62 269 m 119 1051 q 218 1054 167 1054 q 336 1051 263 1054 q 348 1047 341 1051 q 357 1038 354 1043 q 390 975 369 1014 q 428 904 411 936 q 461 841 445 872 q 242 846 347 841 q 231 851 237 847 q 222 860 225 854 q 119 1051 148 994 z "},"":{"ha":616,"x_min":62,"x_max":604,"o":"m 62 407 q 68 814 62 597 q 349 817 132 817 q 586 814 503 817 q 595 810 591 814 q 600 800 600 806 q 601 683 601 718 q 600 583 601 630 q 384 581 542 581 q 332 581 355 581 q 331 510 332 534 q 494 507 453 509 q 503 503 499 507 q 507 494 507 499 q 508 392 508 438 q 507 301 508 350 l 331 301 q 332 231 332 277 l 349 231 q 589 228 515 231 q 598 224 594 228 q 602 214 602 220 q 604 97 604 132 q 602 -3 604 44 q 370 -6 538 -6 q 227 -4 336 -6 q 81 0 117 -1 q 72 4 76 0 q 68 14 68 8 q 62 407 62 269 m 213 849 q 206 855 206 850 q 230 897 206 860 q 335 1051 272 965 q 444 1054 386 1054 q 568 1051 498 1054 q 575 1045 575 1051 q 547 1005 575 1039 q 481 928 529 982 q 410 844 434 875 q 213 849 311 844 z "},"":{"ha":616,"x_min":38,"x_max":625,"o":"m 62 407 q 68 814 62 597 q 349 817 132 817 q 586 814 503 817 q 595 810 591 814 q 600 800 600 806 q 601 683 601 718 q 600 583 601 630 q 384 581 542 581 q 332 581 355 581 q 331 510 332 534 q 494 507 453 509 q 503 503 499 507 q 507 494 507 499 q 508 392 508 438 q 507 301 508 350 l 331 301 q 332 231 332 277 l 349 231 q 589 228 515 231 q 598 224 594 228 q 602 214 602 220 q 604 97 604 132 q 602 -3 604 44 q 370 -6 538 -6 q 227 -4 336 -6 q 81 0 117 -1 q 72 4 76 0 q 68 14 68 8 q 62 407 62 269 m 38 842 q 91 932 61 887 q 163 1036 121 978 q 184 1048 172 1047 q 376 1053 273 1053 q 470 1052 436 1053 q 598 892 519 996 q 603 886 599 891 q 611 876 607 880 q 617 867 614 872 q 623 858 621 862 q 625 852 625 854 q 618 846 625 846 q 509 844 548 844 q 412 846 463 844 q 379 896 395 870 q 354 938 363 921 q 329 985 345 956 q 262 856 292 910 q 253 846 259 850 q 241 842 247 842 q 131 840 168 840 q 38 842 85 840 z "},"":{"ha":616,"x_min":62,"x_max":604,"o":"m 62 407 q 68 814 62 597 q 349 817 132 817 q 586 814 503 817 q 595 810 591 814 q 600 800 600 806 q 601 683 601 718 q 600 583 601 630 q 384 581 542 581 q 332 581 355 581 q 331 510 332 534 q 494 507 453 509 q 503 503 499 507 q 507 494 507 499 q 508 392 508 438 q 507 301 508 350 l 331 301 q 332 231 332 277 l 349 231 q 589 228 515 231 q 598 224 594 228 q 602 214 602 220 q 604 97 604 132 q 602 -3 604 44 q 370 -6 538 -6 q 227 -4 336 -6 q 81 0 117 -1 q 72 4 76 0 q 68 14 68 8 q 62 407 62 269 m 375 960 q 376 1047 375 998 q 466 1049 416 1049 q 571 1047 519 1049 q 581 1043 576 1047 q 585 1034 585 1039 q 586 936 586 979 q 585 849 586 898 q 516 847 544 847 q 389 852 469 847 q 380 856 384 852 q 376 865 376 860 q 375 960 375 919 m 74 960 q 75 1047 74 998 q 167 1049 115 1049 q 270 1047 218 1049 q 279 1043 275 1047 q 283 1034 283 1039 q 284 936 284 979 q 283 849 284 898 q 215 847 243 847 q 88 852 168 847 q 78 856 82 852 q 75 865 75 860 q 74 960 74 919 z "},"":{"ha":380,"x_min":-14,"x_max":345,"o":"m 62 407 q 68 814 62 597 q 186 817 132 817 q 326 814 242 817 q 335 810 331 814 q 339 800 339 806 q 345 407 345 545 q 339 0 345 217 q 220 -3 275 -3 q 81 0 164 -3 q 72 4 76 0 q 68 14 68 8 q 62 407 62 269 m -14 1051 q 85 1054 34 1054 q 203 1051 130 1054 q 215 1047 209 1051 q 224 1038 221 1043 q 257 975 236 1014 q 295 904 278 936 q 328 841 312 872 q 110 846 214 841 q 98 851 104 847 q 89 860 92 854 q -14 1051 15 994 z "},"":{"ha":380,"x_min":62,"x_max":442,"o":"m 62 407 q 68 814 62 597 q 186 817 132 817 q 326 814 242 817 q 335 810 331 814 q 339 800 339 806 q 345 407 345 545 q 339 0 345 217 q 220 -3 275 -3 q 81 0 164 -3 q 72 4 76 0 q 68 14 68 8 q 62 407 62 269 m 80 849 q 73 855 73 850 q 97 897 73 860 q 202 1051 139 965 q 311 1054 253 1054 q 435 1051 365 1054 q 442 1045 442 1051 q 414 1005 442 1039 q 348 928 396 982 q 277 844 301 875 q 80 849 178 844 z "},"":{"ha":380,"x_min":-95,"x_max":492,"o":"m 62 407 q 68 814 62 597 q 186 817 132 817 q 326 814 242 817 q 335 810 331 814 q 339 800 339 806 q 345 407 345 545 q 339 0 345 217 q 220 -3 275 -3 q 81 0 164 -3 q 72 4 76 0 q 68 14 68 8 q 62 407 62 269 m -95 842 q -42 932 -72 887 q 31 1036 -12 978 q 51 1048 39 1047 q 243 1053 140 1053 q 337 1052 303 1053 q 465 892 387 996 q 470 886 466 891 q 478 876 474 880 q 485 867 481 872 q 490 858 488 862 q 492 852 492 854 q 485 846 492 846 q 376 844 415 844 q 279 846 330 844 q 246 896 262 870 q 221 938 230 921 q 196 985 212 956 q 129 856 159 910 q 120 846 126 850 q 108 842 114 842 q -2 840 35 840 q -95 842 -47 840 z "},"":{"ha":380,"x_min":-59,"x_max":453,"o":"m 62 407 q 68 814 62 597 q 186 817 132 817 q 326 814 242 817 q 335 810 331 814 q 339 800 339 806 q 345 407 345 545 q 339 0 345 217 q 220 -3 275 -3 q 81 0 164 -3 q 72 4 76 0 q 68 14 68 8 q 62 407 62 269 m 242 960 q 243 1047 242 998 q 333 1049 283 1049 q 438 1047 386 1049 q 448 1043 444 1047 q 452 1034 452 1039 q 453 936 453 979 q 452 849 453 898 q 383 847 411 847 q 256 852 336 847 q 247 856 251 852 q 243 865 243 860 q 242 960 242 919 m -59 960 q -58 1047 -59 998 q 34 1049 -18 1049 q 137 1047 85 1049 q 146 1043 142 1047 q 151 1034 151 1039 q 152 936 152 979 q 151 849 152 898 q 82 847 110 847 q -45 852 35 847 q -54 856 -51 852 q -58 865 -58 860 q -59 960 -59 919 z "},"":{"ha":732,"x_min":15,"x_max":705,"o":"m 15 409 q 16 507 15 449 q 65 509 42 509 q 67 637 65 532 q 68 800 68 741 q 214 817 135 810 q 351 823 294 823 q 476 811 422 823 q 575 769 531 798 q 647 692 619 739 q 690 573 675 644 q 705 407 705 502 q 698 278 705 335 q 676 178 690 220 q 639 104 662 135 q 588 52 616 72 q 523 19 561 32 q 445 2 486 7 q 354 -3 405 -3 q 81 14 269 -3 q 72 18 76 14 q 68 27 68 22 q 67 112 68 67 q 67 210 67 156 q 66 294 66 263 q 30 296 44 295 q 21 300 24 296 q 16 309 17 303 q 15 409 15 380 m 335 508 q 374 507 360 508 q 384 503 380 507 q 388 494 388 499 q 389 378 389 452 q 388 293 389 352 q 335 292 362 292 q 336 259 335 280 q 336 228 336 238 l 373 228 q 391 230 383 228 q 407 238 398 232 q 421 257 415 244 q 431 289 427 270 q 438 338 436 308 q 441 407 441 368 q 437 488 441 454 q 428 540 433 521 q 412 570 422 559 q 394 584 403 581 q 373 587 385 587 l 336 587 q 335 508 335 536 z "},"":{"ha":746,"x_min":62,"x_max":711,"o":"m 62 407 q 68 814 62 597 q 180 817 132 817 q 297 814 220 817 q 312 800 307 813 l 452 453 l 448 814 q 566 817 512 817 q 692 814 619 817 q 701 810 697 813 q 705 800 705 806 q 711 407 711 545 q 705 0 711 217 q 600 -3 649 -3 q 476 0 542 -3 q 461 14 466 0 l 321 361 l 326 0 q 214 -3 261 -3 q 81 0 160 -3 q 72 4 76 0 q 68 14 68 8 q 62 407 62 269 m 122 988 q 129 1000 122 997 q 219 1048 183 1034 q 286 1062 254 1061 q 373 1044 317 1062 q 457 1027 428 1027 q 580 1066 503 1027 q 638 967 611 1016 q 647 951 640 963 q 657 932 654 938 q 661 923 661 925 q 654 910 661 915 q 488 844 556 844 q 409 859 459 844 q 331 873 359 873 q 208 835 282 873 q 153 930 183 875 q 144 945 150 936 q 136 959 139 954 q 129 972 133 965 q 124 982 125 978 q 122 988 122 987 z "},"":{"ha":732,"x_min":35,"x_max":724,"o":"m 35 407 q 57 583 35 506 q 118 712 78 660 q 215 791 158 763 q 345 823 273 820 q 463 814 411 823 q 558 785 514 805 q 631 733 601 765 q 683 654 662 701 q 714 547 704 608 q 724 407 724 486 q 703 231 724 309 q 640 103 681 154 q 542 24 599 52 q 412 -8 485 -4 q 295 1 347 -8 q 200 30 243 10 q 127 82 157 50 q 76 160 97 114 q 45 267 55 206 q 35 407 35 329 m 319 407 q 322 327 319 360 q 330 274 325 293 q 343 244 335 255 q 360 231 352 234 q 381 228 369 228 q 401 231 393 228 q 418 244 410 234 q 430 274 426 255 q 438 327 435 293 q 441 407 441 360 q 439 476 441 447 q 432 525 437 506 q 423 557 428 545 q 410 575 418 569 q 395 584 402 582 q 377 586 387 586 q 360 584 367 586 q 346 576 353 582 q 334 557 339 569 q 326 525 330 545 q 320 476 322 506 q 319 407 319 447 m 175 1051 q 274 1054 222 1054 q 392 1051 319 1054 q 403 1047 397 1051 q 412 1038 409 1043 q 446 975 425 1014 q 484 904 467 936 q 516 841 501 872 q 298 846 402 841 q 286 851 292 847 q 277 860 280 854 q 175 1051 203 994 z "},"":{"ha":732,"x_min":35,"x_max":724,"o":"m 35 407 q 57 583 35 506 q 118 712 78 660 q 215 791 158 763 q 345 823 273 820 q 463 814 411 823 q 558 785 514 805 q 631 733 601 765 q 683 654 662 701 q 714 547 704 608 q 724 407 724 486 q 703 231 724 309 q 640 103 681 154 q 542 24 599 52 q 412 -8 485 -4 q 295 1 347 -8 q 200 30 243 10 q 127 82 157 50 q 76 160 97 114 q 45 267 55 206 q 35 407 35 329 m 319 407 q 322 327 319 360 q 330 274 325 293 q 343 244 335 255 q 360 231 352 234 q 381 228 369 228 q 401 231 393 228 q 418 244 410 234 q 430 274 426 255 q 438 327 435 293 q 441 407 441 360 q 439 476 441 447 q 432 525 437 506 q 423 557 428 545 q 410 575 418 569 q 395 584 402 582 q 377 586 387 586 q 360 584 367 586 q 346 576 353 582 q 334 557 339 569 q 326 525 330 545 q 320 476 322 506 q 319 407 319 447 m 268 849 q 261 855 261 850 q 286 897 261 860 q 390 1051 328 965 q 499 1054 441 1054 q 624 1051 554 1054 q 630 1045 630 1051 q 603 1005 630 1039 q 537 928 584 982 q 466 844 489 875 q 268 849 366 844 z "},"":{"ha":732,"x_min":35,"x_max":724,"o":"m 35 407 q 57 583 35 506 q 118 712 78 660 q 215 791 158 763 q 345 823 273 820 q 463 814 411 823 q 558 785 514 805 q 631 733 601 765 q 683 654 662 701 q 714 547 704 608 q 724 407 724 486 q 703 231 724 309 q 640 103 681 154 q 542 24 599 52 q 412 -8 485 -4 q 295 1 347 -8 q 200 30 243 10 q 127 82 157 50 q 76 160 97 114 q 45 267 55 206 q 35 407 35 329 m 319 407 q 322 327 319 360 q 330 274 325 293 q 343 244 335 255 q 360 231 352 234 q 381 228 369 228 q 401 231 393 228 q 418 244 410 234 q 430 274 426 255 q 438 327 435 293 q 441 407 441 360 q 439 476 441 447 q 432 525 437 506 q 423 557 428 545 q 410 575 418 569 q 395 584 402 582 q 377 586 387 586 q 360 584 367 586 q 346 576 353 582 q 334 557 339 569 q 326 525 330 545 q 320 476 322 506 q 319 407 319 447 m 93 842 q 146 932 116 887 q 219 1036 176 978 q 240 1048 228 1047 q 431 1053 329 1053 q 525 1052 492 1053 q 653 892 575 996 q 659 886 654 891 q 666 876 663 880 q 673 867 669 872 q 679 858 677 862 q 681 852 681 854 q 674 846 681 846 q 565 844 604 844 q 468 846 518 844 q 434 896 450 870 q 409 938 418 921 q 385 985 400 956 q 317 856 348 910 q 308 846 314 850 q 297 842 302 842 q 186 840 224 840 q 93 842 141 840 z "},"":{"ha":732,"x_min":35,"x_max":724,"o":"m 35 407 q 57 583 35 506 q 118 712 78 660 q 215 791 158 763 q 345 823 273 820 q 463 814 411 823 q 558 785 514 805 q 631 733 601 765 q 683 654 662 701 q 714 547 704 608 q 724 407 724 486 q 703 231 724 309 q 640 103 681 154 q 542 24 599 52 q 412 -8 485 -4 q 295 1 347 -8 q 200 30 243 10 q 127 82 157 50 q 76 160 97 114 q 45 267 55 206 q 35 407 35 329 m 319 407 q 322 327 319 360 q 330 274 325 293 q 343 244 335 255 q 360 231 352 234 q 381 228 369 228 q 401 231 393 228 q 418 244 410 234 q 430 274 426 255 q 438 327 435 293 q 441 407 441 360 q 439 476 441 447 q 432 525 437 506 q 423 557 428 545 q 410 575 418 569 q 395 584 402 582 q 377 586 387 586 q 360 584 367 586 q 346 576 353 582 q 334 557 339 569 q 326 525 330 545 q 320 476 322 506 q 319 407 319 447 m 117 988 q 123 1000 117 997 q 213 1048 178 1034 q 281 1062 249 1061 q 367 1044 312 1062 q 452 1027 423 1027 q 575 1066 497 1027 q 632 967 606 1016 q 642 951 634 963 q 652 932 649 938 q 655 923 655 925 q 648 910 655 915 q 483 844 551 844 q 404 859 454 844 q 326 873 354 873 q 202 835 276 873 q 147 930 178 875 q 139 945 144 936 q 131 959 134 954 q 124 972 127 965 q 118 982 120 978 q 117 988 117 987 z "},"":{"ha":732,"x_min":35,"x_max":724,"o":"m 35 407 q 57 583 35 506 q 118 712 78 660 q 215 791 158 763 q 345 823 273 820 q 463 814 411 823 q 558 785 514 805 q 631 733 601 765 q 683 654 662 701 q 714 547 704 608 q 724 407 724 486 q 703 231 724 309 q 640 103 681 154 q 542 24 599 52 q 412 -8 485 -4 q 295 1 347 -8 q 200 30 243 10 q 127 82 157 50 q 76 160 97 114 q 45 267 55 206 q 35 407 35 329 m 319 407 q 322 327 319 360 q 330 274 325 293 q 343 244 335 255 q 360 231 352 234 q 381 228 369 228 q 401 231 393 228 q 418 244 410 234 q 430 274 426 255 q 438 327 435 293 q 441 407 441 360 q 439 476 441 447 q 432 525 437 506 q 423 557 428 545 q 410 575 418 569 q 395 584 402 582 q 377 586 387 586 q 360 584 367 586 q 346 576 353 582 q 334 557 339 569 q 326 525 330 545 q 320 476 322 506 q 319 407 319 447 m 430 960 q 431 1047 430 998 q 521 1049 472 1049 q 627 1047 574 1049 q 636 1043 632 1047 q 640 1034 640 1039 q 641 936 641 979 q 640 849 641 898 q 571 847 600 847 q 445 852 524 847 q 435 856 439 852 q 431 865 431 860 q 430 960 430 919 m 129 960 q 130 1047 129 998 q 223 1049 171 1049 q 326 1047 273 1049 q 335 1043 331 1047 q 339 1034 339 1039 q 340 936 340 979 q 339 849 340 898 q 270 847 298 847 q 144 852 223 847 q 134 856 138 852 q 130 865 130 860 q 129 960 129 919 z "},"":{"ha":675,"x_min":39,"x_max":663,"o":"m 39 409 q 41 507 39 449 q 379 510 105 510 q 648 507 565 510 q 658 503 654 507 q 662 494 662 499 q 663 378 663 452 q 662 293 663 352 q 522 291 642 292 q 359 290 402 290 q 207 292 325 290 q 54 296 89 294 q 45 300 49 296 q 41 309 41 303 q 39 409 39 380 m 234 136 q 235 229 234 180 q 335 232 284 232 q 452 229 380 232 q 461 225 457 229 q 465 216 465 221 q 466 112 466 161 q 465 19 466 68 q 392 17 435 17 q 248 22 329 17 q 239 26 242 22 q 235 35 235 30 q 234 136 234 89 m 234 684 q 235 777 234 728 q 335 780 284 780 q 452 777 380 780 q 461 773 457 777 q 465 764 465 769 q 466 660 466 709 q 465 567 466 616 q 392 565 435 565 q 248 570 329 565 q 239 574 242 570 q 235 583 235 578 q 234 684 234 636 z "},"":{"ha":732,"x_min":35,"x_max":724,"o":"m 35 407 q 57 583 35 506 q 118 712 78 660 q 215 791 158 763 q 345 823 273 820 q 535 795 461 823 l 594 914 l 667 879 l 603 758 q 695 626 665 711 q 724 407 724 540 q 703 231 724 309 q 640 103 681 154 q 542 24 599 52 q 412 -8 485 -4 q 225 19 300 -8 l 165 -100 l 92 -65 l 156 56 q 65 188 95 102 q 35 407 35 273 m 319 407 q 319 365 319 391 l 359 441 l 420 563 q 402 581 412 576 q 377 586 391 586 q 360 584 367 586 q 346 576 353 582 q 334 557 339 569 q 326 525 330 545 q 320 476 322 506 q 319 407 319 447 m 340 250 q 357 232 347 237 q 381 228 367 228 q 401 231 393 228 q 418 244 410 234 q 430 274 426 255 q 438 327 435 293 q 441 407 441 360 q 440 449 441 424 l 419 408 l 340 250 z "},"":{"ha":716,"x_min":37,"x_max":707,"o":"m 37 402 q 42 814 37 597 q 161 817 106 817 q 300 814 217 817 q 309 810 305 814 q 313 800 313 806 q 319 361 319 545 q 322 289 319 316 q 332 246 325 261 q 349 227 340 232 q 373 222 358 222 q 403 232 393 222 q 419 271 413 241 q 425 361 425 301 q 430 814 425 597 q 549 817 495 817 q 688 814 605 817 q 697 810 693 814 q 701 800 701 806 q 707 402 707 545 q 693 247 707 315 q 655 131 680 179 q 593 52 631 84 q 509 5 556 21 q 404 -14 463 -11 q 318 -10 356 -14 q 244 3 280 -6 q 180 28 208 13 q 129 66 153 43 q 89 121 105 89 q 60 193 72 152 q 42 286 48 234 q 37 402 37 338 m 161 1051 q 260 1054 209 1054 q 378 1051 305 1054 q 390 1047 384 1051 q 399 1038 396 1043 q 432 975 411 1014 q 470 904 453 936 q 503 841 487 872 q 284 846 389 841 q 273 851 279 847 q 264 860 267 854 q 161 1051 190 994 z "},"":{"ha":716,"x_min":37,"x_max":707,"o":"m 37 402 q 42 814 37 597 q 161 817 106 817 q 300 814 217 817 q 309 810 305 814 q 313 800 313 806 q 319 361 319 545 q 322 289 319 316 q 332 246 325 261 q 349 227 340 232 q 373 222 358 222 q 403 232 393 222 q 419 271 413 241 q 425 361 425 301 q 430 814 425 597 q 549 817 495 817 q 688 814 605 817 q 697 810 693 814 q 701 800 701 806 q 707 402 707 545 q 693 247 707 315 q 655 131 680 179 q 593 52 631 84 q 509 5 556 21 q 404 -14 463 -11 q 318 -10 356 -14 q 244 3 280 -6 q 180 28 208 13 q 129 66 153 43 q 89 121 105 89 q 60 193 72 152 q 42 286 48 234 q 37 402 37 338 m 255 849 q 248 855 248 850 q 272 897 248 860 q 377 1051 314 965 q 486 1054 428 1054 q 610 1051 540 1054 q 617 1045 617 1051 q 589 1005 617 1039 q 523 928 571 982 q 452 844 476 875 q 255 849 353 844 z "},"":{"ha":716,"x_min":37,"x_max":707,"o":"m 37 402 q 42 814 37 597 q 161 817 106 817 q 300 814 217 817 q 309 810 305 814 q 313 800 313 806 q 319 361 319 545 q 322 289 319 316 q 332 246 325 261 q 349 227 340 232 q 373 222 358 222 q 403 232 393 222 q 419 271 413 241 q 425 361 425 301 q 430 814 425 597 q 549 817 495 817 q 688 814 605 817 q 697 810 693 814 q 701 800 701 806 q 707 402 707 545 q 693 247 707 315 q 655 131 680 179 q 593 52 631 84 q 509 5 556 21 q 404 -14 463 -11 q 318 -10 356 -14 q 244 3 280 -6 q 180 28 208 13 q 129 66 153 43 q 89 121 105 89 q 60 193 72 152 q 42 286 48 234 q 37 402 37 338 m 80 842 q 133 932 103 887 q 205 1036 163 978 q 226 1048 214 1047 q 418 1053 315 1053 q 512 1052 478 1053 q 640 892 562 996 q 645 886 641 891 q 653 876 649 880 q 660 867 656 872 q 665 858 663 862 q 667 852 667 854 q 660 846 667 846 q 551 844 590 844 q 454 846 505 844 q 421 896 437 870 q 396 938 405 921 q 371 985 387 956 q 304 856 334 910 q 295 846 301 850 q 283 842 289 842 q 173 840 210 840 q 80 842 127 840 z "},"":{"ha":716,"x_min":37,"x_max":707,"o":"m 37 402 q 42 814 37 597 q 161 817 106 817 q 300 814 217 817 q 309 810 305 814 q 313 800 313 806 q 319 361 319 545 q 322 289 319 316 q 332 246 325 261 q 349 227 340 232 q 373 222 358 222 q 403 232 393 222 q 419 271 413 241 q 425 361 425 301 q 430 814 425 597 q 549 817 495 817 q 688 814 605 817 q 697 810 693 814 q 701 800 701 806 q 707 402 707 545 q 693 247 707 315 q 655 131 680 179 q 593 52 631 84 q 509 5 556 21 q 404 -14 463 -11 q 318 -10 356 -14 q 244 3 280 -6 q 180 28 208 13 q 129 66 153 43 q 89 121 105 89 q 60 193 72 152 q 42 286 48 234 q 37 402 37 338 m 417 960 q 418 1047 417 998 q 508 1049 458 1049 q 613 1047 561 1049 q 623 1043 618 1047 q 627 1034 627 1039 q 628 936 628 979 q 627 849 628 898 q 558 847 586 847 q 431 852 511 847 q 422 856 426 852 q 418 865 418 860 q 417 960 417 919 m 116 960 q 117 1047 116 998 q 209 1049 157 1049 q 312 1047 260 1049 q 321 1043 317 1047 q 326 1034 326 1039 q 327 936 327 979 q 326 849 327 898 q 257 847 285 847 q 130 852 210 847 q 121 856 124 852 q 117 865 117 860 q 116 960 116 919 z "},"":{"ha":712,"x_min":11,"x_max":728,"o":"m 11 809 q 153 817 73 817 q 262 813 211 817 q 274 809 268 813 q 282 800 280 805 q 369 504 315 701 q 456 800 422 694 q 465 809 458 805 q 477 813 471 813 q 586 817 528 817 q 728 809 666 817 q 615 463 674 581 q 505 335 572 391 q 509 0 508 111 q 387 -3 444 -3 q 245 0 329 -3 q 236 4 240 0 q 232 14 232 8 q 234 335 232 115 q 124 463 166 392 q 11 809 65 579 m 255 849 q 248 855 248 850 q 272 897 248 860 q 377 1051 314 965 q 486 1054 428 1054 q 610 1051 540 1054 q 617 1045 617 1051 q 589 1005 617 1039 q 523 928 571 982 q 452 844 476 875 q 255 849 353 844 z "},"":{"ha":692,"x_min":62,"x_max":692,"o":"m 334 407 q 334 381 334 398 q 334 355 334 364 l 347 355 q 368 357 359 355 q 387 363 377 358 q 403 375 397 367 q 412 397 409 383 q 416 430 416 411 q 416 461 416 450 q 413 483 415 473 q 407 497 410 492 q 396 505 403 502 q 380 510 389 509 q 356 511 371 511 q 346 510 353 511 q 334 510 339 510 q 334 407 334 442 m 62 407 q 68 814 62 597 q 186 817 132 817 q 326 814 242 817 q 335 810 331 814 q 339 800 339 806 q 338 742 339 776 q 402 740 374 742 q 460 736 430 739 q 512 726 489 732 q 558 712 535 721 q 598 690 581 703 q 631 660 615 677 q 657 621 647 643 q 676 571 668 598 q 688 509 684 543 q 692 434 692 475 q 684 342 692 384 q 660 270 675 301 q 622 215 645 239 q 570 176 598 192 q 504 151 542 161 q 427 137 467 142 q 337 133 387 133 q 339 0 339 44 q 220 -3 275 -3 q 81 0 164 -3 q 72 4 76 0 q 68 14 68 8 q 62 407 62 269 z "},"":{"ha":712,"x_min":11,"x_max":728,"o":"m 414 960 q 415 1047 414 998 q 505 1049 455 1049 q 610 1047 558 1049 q 620 1043 616 1047 q 624 1034 624 1039 q 625 936 625 979 q 624 849 625 898 q 555 847 583 847 q 429 852 508 847 q 419 856 423 852 q 415 865 415 860 q 414 960 414 919 m 113 960 q 114 1047 113 998 q 207 1049 154 1049 q 309 1047 257 1049 q 319 1043 315 1047 q 323 1034 323 1039 q 324 936 324 979 q 323 849 324 898 q 254 847 282 847 q 127 852 207 847 q 118 856 122 852 q 114 865 114 860 q 113 960 113 919 m 11 809 q 153 817 73 817 q 262 813 211 817 q 274 809 268 813 q 282 800 280 805 q 369 504 315 701 q 456 800 422 694 q 465 809 458 805 q 477 813 471 813 q 586 817 528 817 q 728 809 666 817 q 615 463 674 581 q 505 335 572 391 q 509 0 508 111 q 387 -3 444 -3 q 245 0 329 -3 q 236 4 240 0 q 232 14 232 8 q 234 335 232 115 q 124 463 166 392 q 11 809 65 579 z "},"":{"ha":705,"x_min":13,"x_max":719,"o":"m 13 11 q 20 54 13 17 q 61 285 38 165 q 120 581 84 404 q 168 814 157 759 q 355 817 236 817 q 548 814 465 817 q 558 810 553 814 q 564 800 563 806 q 615 553 579 725 q 676 250 650 381 q 719 0 701 118 q 601 -3 655 -3 q 468 0 514 -3 q 458 4 462 0 q 452 14 453 8 q 427 149 437 92 l 301 149 q 275 0 291 77 q 163 -3 210 -3 q 24 0 107 -3 q 16 3 19 0 q 13 11 13 6 m 324 326 l 400 326 q 378 484 392 381 q 358 630 365 587 q 340 471 352 574 q 324 326 329 368 m 163 958 q 164 1046 163 997 q 405 1049 229 1049 q 557 1046 474 1049 q 567 1042 563 1046 q 571 1032 571 1038 q 572 943 572 1002 q 571 853 572 877 q 385 850 505 850 q 178 856 334 850 q 168 860 172 856 q 164 869 164 864 q 163 958 163 917 z "},"":{"ha":705,"x_min":13,"x_max":719,"o":"m 13 11 q 20 54 13 17 q 61 285 38 165 q 120 581 84 404 q 168 814 157 759 q 355 817 236 817 q 548 814 465 817 q 558 810 553 814 q 564 800 563 806 q 615 553 579 725 q 676 250 650 381 q 719 0 701 118 q 601 -3 655 -3 q 468 0 514 -3 q 458 4 462 0 q 452 14 453 8 q 427 149 437 92 l 301 149 q 275 0 291 77 q 163 -3 210 -3 q 24 0 107 -3 q 16 3 19 0 q 13 11 13 6 m 324 326 l 400 326 q 378 484 392 381 q 358 630 365 587 q 340 471 352 574 q 324 326 329 368 m 163 958 q 164 1046 163 997 q 405 1049 229 1049 q 557 1046 474 1049 q 567 1042 563 1046 q 571 1032 571 1038 q 572 943 572 1002 q 571 853 572 877 q 385 850 505 850 q 178 856 334 850 q 168 860 172 856 q 164 869 164 864 q 163 958 163 917 z "},"":{"ha":705,"x_min":13,"x_max":719,"o":"m 13 11 q 20 54 13 17 q 61 285 38 165 q 120 581 84 404 q 168 814 157 759 q 355 817 236 817 q 548 814 465 817 q 558 810 553 814 q 564 800 563 806 q 615 553 579 725 q 676 250 650 381 q 719 0 701 118 q 601 -3 655 -3 q 468 0 514 -3 q 458 4 462 0 q 452 14 453 8 q 427 149 437 92 l 301 149 q 275 0 291 77 q 163 -3 210 -3 q 24 0 107 -3 q 16 3 19 0 q 13 11 13 6 m 324 326 l 400 326 q 378 484 392 381 q 358 630 365 587 q 340 471 352 574 q 324 326 329 368 m 74 1052 q 166 1055 122 1055 q 275 1052 202 1055 q 287 1048 281 1052 q 296 1039 293 1044 q 328 1002 308 1014 q 369 989 347 989 q 415 1005 394 989 q 449 1048 437 1020 q 546 1050 499 1050 q 655 1048 585 1050 q 661 1043 661 1048 q 652 1013 661 1035 q 634 977 643 991 q 523 875 596 912 q 367 839 450 839 q 272 852 318 839 q 187 890 227 865 q 117 958 147 916 q 74 1052 87 999 z "},"":{"ha":705,"x_min":13,"x_max":719,"o":"m 13 11 q 20 54 13 17 q 61 285 38 165 q 120 581 84 404 q 168 814 157 759 q 355 817 236 817 q 548 814 465 817 q 558 810 553 814 q 564 800 563 806 q 615 553 579 725 q 676 250 650 381 q 719 0 701 118 q 601 -3 655 -3 q 468 0 514 -3 q 458 4 462 0 q 452 14 453 8 q 427 149 437 92 l 301 149 q 275 0 291 77 q 163 -3 210 -3 q 24 0 107 -3 q 16 3 19 0 q 13 11 13 6 m 324 326 l 400 326 q 378 484 392 381 q 358 630 365 587 q 340 471 352 574 q 324 326 329 368 m 74 1052 q 166 1055 122 1055 q 275 1052 202 1055 q 287 1048 281 1052 q 296 1039 293 1044 q 328 1002 308 1014 q 369 989 347 989 q 415 1005 394 989 q 449 1048 437 1020 q 546 1050 499 1050 q 655 1048 585 1050 q 661 1043 661 1048 q 652 1013 661 1035 q 634 977 643 991 q 523 875 596 912 q 367 839 450 839 q 272 852 318 839 q 187 890 227 865 q 117 958 147 916 q 74 1052 87 999 z "},"":{"ha":705,"x_min":13,"x_max":753,"o":"m 13 11 q 20 54 13 17 q 61 285 38 165 q 120 581 84 404 q 168 814 157 759 q 355 817 238 817 q 548 814 465 817 q 558 810 553 814 q 564 800 563 806 q 615 553 579 725 q 676 250 650 381 q 719 0 701 118 q 663 -2 677 -2 q 617 -16 633 -4 q 601 -42 601 -27 q 617 -68 601 -58 q 662 -75 634 -78 l 728 -66 l 753 -256 q 681 -268 708 -265 q 620 -271 655 -271 q 532 -259 573 -271 q 463 -226 491 -247 q 418 -177 434 -205 q 402 -119 402 -150 q 466 0 402 -55 q 457 5 461 1 q 452 14 453 8 q 427 149 437 92 l 301 149 q 275 0 291 77 q 163 -3 210 -3 q 24 0 107 -3 q 16 3 19 0 q 13 11 13 6 m 324 326 l 400 326 q 378 484 392 381 q 358 630 365 587 q 340 471 352 574 q 324 326 329 368 z "},"":{"ha":705,"x_min":13,"x_max":753,"o":"m 13 11 q 20 54 13 17 q 61 285 38 165 q 120 581 84 404 q 168 814 157 759 q 355 817 238 817 q 548 814 465 817 q 558 810 553 814 q 564 800 563 806 q 615 553 579 725 q 676 250 650 381 q 719 0 701 118 q 663 -2 677 -2 q 617 -16 633 -4 q 601 -42 601 -27 q 617 -68 601 -58 q 662 -75 634 -78 l 728 -66 l 753 -256 q 681 -268 708 -265 q 620 -271 655 -271 q 532 -259 573 -271 q 463 -226 491 -247 q 418 -177 434 -205 q 402 -119 402 -150 q 466 0 402 -55 q 457 5 461 1 q 452 14 453 8 q 427 149 437 92 l 301 149 q 275 0 291 77 q 163 -3 210 -3 q 24 0 107 -3 q 16 3 19 0 q 13 11 13 6 m 324 326 l 400 326 q 378 484 392 381 q 358 630 365 587 q 340 471 352 574 q 324 326 329 368 z "},"":{"ha":563,"x_min":35,"x_max":603,"o":"m 35 407 q 52 573 35 502 q 100 692 70 644 q 178 769 131 739 q 281 811 225 798 q 408 823 337 823 q 480 818 446 823 q 563 800 514 812 l 534 588 l 409 596 q 380 593 393 597 q 356 577 368 590 q 336 544 344 565 q 323 489 328 524 q 319 407 319 454 q 323 325 319 360 q 335 270 327 291 q 353 237 342 249 q 378 221 365 225 q 409 218 391 217 l 534 227 l 562 12 q 406 -3 480 -3 q 333 0 366 -3 q 267 10 299 3 q 208 28 235 17 q 158 57 182 39 q 115 97 133 74 q 81 150 96 120 q 56 219 65 181 q 41 304 46 257 q 35 407 35 351 m 241 849 q 234 855 234 850 q 258 897 234 860 q 363 1051 300 965 q 472 1054 414 1054 q 596 1051 527 1054 q 603 1045 603 1051 q 576 1005 603 1039 q 510 928 557 982 q 438 844 462 875 q 241 849 339 844 z "},"":{"ha":563,"x_min":35,"x_max":603,"o":"m 35 407 q 52 573 35 502 q 100 692 70 644 q 178 769 131 739 q 281 811 225 798 q 408 823 337 823 q 480 818 446 823 q 563 800 514 812 l 534 588 l 409 596 q 380 593 393 597 q 356 577 368 590 q 336 544 344 565 q 323 489 328 524 q 319 407 319 454 q 323 325 319 360 q 335 270 327 291 q 353 237 342 249 q 378 221 365 225 q 409 218 391 217 l 534 227 l 562 12 q 406 -3 480 -3 q 333 0 366 -3 q 267 10 299 3 q 208 28 235 17 q 158 57 182 39 q 115 97 133 74 q 81 150 96 120 q 56 219 65 181 q 41 304 46 257 q 35 407 35 351 m 241 849 q 234 855 234 850 q 258 897 234 860 q 363 1051 300 965 q 472 1054 414 1054 q 596 1051 527 1054 q 603 1045 603 1051 q 576 1005 603 1039 q 510 928 557 982 q 438 844 462 875 q 241 849 339 844 z "},"":{"ha":563,"x_min":35,"x_max":654,"o":"m 35 407 q 52 573 35 502 q 100 692 70 644 q 178 769 131 739 q 281 811 225 798 q 408 823 337 823 q 480 818 446 823 q 563 800 514 812 l 534 588 l 409 596 q 380 593 393 597 q 356 577 368 590 q 336 544 344 565 q 323 489 328 524 q 319 407 319 454 q 323 325 319 360 q 335 270 327 291 q 353 237 342 249 q 378 221 365 225 q 409 218 391 217 l 534 227 l 562 12 q 406 -3 480 -3 q 333 0 366 -3 q 267 10 299 3 q 208 28 235 17 q 158 57 182 39 q 115 97 133 74 q 81 150 96 120 q 56 219 65 181 q 41 304 46 257 q 35 407 35 351 m 66 842 q 119 932 89 887 q 192 1036 149 978 q 213 1048 201 1047 q 404 1053 302 1053 q 498 1052 465 1053 q 626 892 548 996 q 632 886 627 891 q 639 876 636 880 q 646 867 642 872 q 652 858 650 862 q 654 852 654 854 q 647 846 654 846 q 537 844 576 844 q 440 846 491 844 q 407 896 423 870 q 382 938 391 921 q 358 985 373 956 q 290 856 320 910 q 281 846 287 850 q 270 842 275 842 q 159 840 197 840 q 66 842 114 840 z "},"":{"ha":563,"x_min":35,"x_max":654,"o":"m 35 407 q 52 573 35 502 q 100 692 70 644 q 178 769 131 739 q 281 811 225 798 q 408 823 337 823 q 480 818 446 823 q 563 800 514 812 l 534 588 l 409 596 q 380 593 393 597 q 356 577 368 590 q 336 544 344 565 q 323 489 328 524 q 319 407 319 454 q 323 325 319 360 q 335 270 327 291 q 353 237 342 249 q 378 221 365 225 q 409 218 391 217 l 534 227 l 562 12 q 406 -3 480 -3 q 333 0 366 -3 q 267 10 299 3 q 208 28 235 17 q 158 57 182 39 q 115 97 133 74 q 81 150 96 120 q 56 219 65 181 q 41 304 46 257 q 35 407 35 351 m 66 842 q 119 932 89 887 q 192 1036 149 978 q 213 1048 201 1047 q 404 1053 302 1053 q 498 1052 465 1053 q 626 892 548 996 q 632 886 627 891 q 639 876 636 880 q 646 867 642 872 q 652 858 650 862 q 654 852 654 854 q 647 846 654 846 q 537 844 576 844 q 440 846 491 844 q 407 896 423 870 q 382 938 391 921 q 358 985 373 956 q 290 856 320 910 q 281 846 287 850 q 270 842 275 842 q 159 840 197 840 q 66 842 114 840 z "},"":{"ha":563,"x_min":35,"x_max":563,"o":"m 35 407 q 52 573 35 502 q 100 692 70 644 q 178 769 131 739 q 281 811 225 798 q 408 823 337 823 q 480 818 446 823 q 563 800 514 812 l 534 588 l 409 596 q 380 593 393 597 q 356 577 368 590 q 336 544 344 565 q 323 489 328 524 q 319 407 319 454 q 323 325 319 360 q 335 270 327 291 q 353 237 342 249 q 378 221 365 225 q 409 218 391 217 l 534 227 l 562 12 q 406 -3 480 -3 q 333 0 366 -3 q 267 10 299 3 q 208 28 235 17 q 158 57 182 39 q 115 97 133 74 q 81 150 96 120 q 56 219 65 181 q 41 304 46 257 q 35 407 35 351 m 243 960 q 244 1050 243 1001 q 343 1052 294 1052 q 458 1050 387 1052 q 468 1046 464 1050 q 472 1036 472 1042 q 473 936 473 981 q 472 846 473 895 q 397 845 439 845 q 258 849 339 845 q 248 853 252 849 q 244 863 244 857 q 243 960 243 916 z "},"":{"ha":563,"x_min":35,"x_max":563,"o":"m 35 407 q 52 573 35 502 q 100 692 70 644 q 178 769 131 739 q 281 811 225 798 q 408 823 337 823 q 480 818 446 823 q 563 800 514 812 l 534 588 l 409 596 q 380 593 393 597 q 356 577 368 590 q 336 544 344 565 q 323 489 328 524 q 319 407 319 454 q 323 325 319 360 q 335 270 327 291 q 353 237 342 249 q 378 221 365 225 q 409 218 391 217 l 534 227 l 562 12 q 406 -3 480 -3 q 333 0 366 -3 q 267 10 299 3 q 208 28 235 17 q 158 57 182 39 q 115 97 133 74 q 81 150 96 120 q 56 219 65 181 q 41 304 46 257 q 35 407 35 351 m 243 960 q 244 1050 243 1001 q 343 1052 294 1052 q 458 1050 387 1052 q 468 1046 464 1050 q 472 1036 472 1042 q 473 936 473 981 q 472 846 473 895 q 397 845 439 845 q 258 849 339 845 q 248 853 252 849 q 244 863 244 857 q 243 960 243 916 z "},"":{"ha":563,"x_min":35,"x_max":654,"o":"m 35 407 q 52 573 35 502 q 100 692 70 644 q 178 769 131 739 q 281 811 225 798 q 408 823 337 823 q 480 818 446 823 q 563 800 514 812 l 534 588 l 409 596 q 380 593 393 597 q 356 577 368 590 q 336 544 344 565 q 323 489 328 524 q 319 407 319 454 q 323 325 319 360 q 335 270 327 291 q 353 237 342 249 q 378 221 365 225 q 409 218 391 217 l 534 227 l 562 12 q 406 -3 480 -3 q 333 0 366 -3 q 267 10 299 3 q 208 28 235 17 q 158 57 182 39 q 115 97 133 74 q 81 150 96 120 q 56 219 65 181 q 41 304 46 257 q 35 407 35 351 m 66 1046 q 159 1048 114 1048 q 270 1046 197 1048 q 281 1042 275 1046 q 290 1033 287 1038 q 324 970 302 1010 q 357 908 347 929 q 440 1047 402 995 q 537 1050 491 1050 q 647 1047 576 1050 q 654 1042 654 1047 q 650 1034 654 1040 q 641 1021 647 1028 q 630 1006 635 1013 q 619 991 625 999 q 611 981 612 983 q 498 841 546 895 l 379 841 q 211 847 299 841 q 191 859 199 847 q 145 920 163 896 q 105 980 127 944 q 66 1046 82 1015 z "},"":{"ha":563,"x_min":35,"x_max":654,"o":"m 35 407 q 52 573 35 502 q 100 692 70 644 q 178 769 131 739 q 281 811 225 798 q 408 823 337 823 q 480 818 446 823 q 563 800 514 812 l 534 588 l 409 596 q 380 593 393 597 q 356 577 368 590 q 336 544 344 565 q 323 489 328 524 q 319 407 319 454 q 323 325 319 360 q 335 270 327 291 q 353 237 342 249 q 378 221 365 225 q 409 218 391 217 l 534 227 l 562 12 q 406 -3 480 -3 q 333 0 366 -3 q 267 10 299 3 q 208 28 235 17 q 158 57 182 39 q 115 97 133 74 q 81 150 96 120 q 56 219 65 181 q 41 304 46 257 q 35 407 35 351 m 66 1046 q 159 1048 114 1048 q 270 1046 197 1048 q 281 1042 275 1046 q 290 1033 287 1038 q 324 970 302 1010 q 357 908 347 929 q 440 1047 402 995 q 537 1050 491 1050 q 647 1047 576 1050 q 654 1042 654 1047 q 650 1034 654 1040 q 641 1021 647 1028 q 630 1006 635 1013 q 619 991 625 999 q 611 981 612 983 q 498 841 546 895 l 379 841 q 211 847 299 841 q 191 859 199 847 q 145 920 163 896 q 105 980 127 944 q 66 1046 82 1015 z "},"":{"ha":713,"x_min":63,"x_max":705,"o":"m 334 407 q 336 228 334 326 l 359 228 q 377 230 369 228 q 392 238 384 232 q 405 257 399 244 q 414 289 410 269 q 420 338 418 308 q 422 407 422 368 q 419 488 422 454 q 410 540 415 521 q 397 570 406 559 q 380 584 388 581 q 359 587 372 587 l 336 587 q 334 407 334 474 m 65 407 q 66 604 65 475 q 68 800 68 732 q 332 823 218 823 q 459 811 404 823 q 562 769 515 798 q 640 692 609 739 q 688 573 671 644 q 705 407 705 502 q 700 304 705 351 q 685 219 695 257 q 660 150 675 181 q 626 97 645 120 q 583 57 607 74 q 532 28 559 39 q 474 10 506 17 q 408 0 441 3 q 335 -3 375 -3 q 306 -2 321 -3 q 278 -1 290 -2 q 246 0 266 -1 q 216 2 225 2 q 182 5 207 3 q 151 8 157 7 q 115 11 145 8 q 81 14 86 13 q 72 18 76 14 q 68 27 68 22 q 66 214 68 90 q 65 407 65 338 m 63 1046 q 157 1048 111 1048 q 267 1046 194 1048 q 278 1042 272 1046 q 288 1033 284 1038 q 321 970 299 1010 q 355 908 344 929 q 438 1047 399 995 q 535 1050 489 1050 q 644 1047 574 1050 q 651 1042 651 1047 q 648 1034 651 1040 q 638 1021 644 1028 q 627 1006 633 1013 q 616 991 622 999 q 608 981 610 983 q 495 841 543 895 l 377 841 q 209 847 297 841 q 188 859 197 847 q 142 920 160 896 q 102 980 125 944 q 63 1046 79 1015 z "},"":{"ha":713,"x_min":63,"x_max":705,"o":"m 334 407 q 336 228 334 326 l 359 228 q 377 230 369 228 q 392 238 384 232 q 405 257 399 244 q 414 289 410 269 q 420 338 418 308 q 422 407 422 368 q 419 488 422 454 q 410 540 415 521 q 397 570 406 559 q 380 584 388 581 q 359 587 372 587 l 336 587 q 334 407 334 474 m 65 407 q 66 604 65 475 q 68 800 68 732 q 332 823 218 823 q 459 811 404 823 q 562 769 515 798 q 640 692 609 739 q 688 573 671 644 q 705 407 705 502 q 700 304 705 351 q 685 219 695 257 q 660 150 675 181 q 626 97 645 120 q 583 57 607 74 q 532 28 559 39 q 474 10 506 17 q 408 0 441 3 q 335 -3 375 -3 q 306 -2 321 -3 q 278 -1 290 -2 q 246 0 266 -1 q 216 2 225 2 q 182 5 207 3 q 151 8 157 7 q 115 11 145 8 q 81 14 86 13 q 72 18 76 14 q 68 27 68 22 q 66 214 68 90 q 65 407 65 338 m 63 1046 q 157 1048 111 1048 q 267 1046 194 1048 q 278 1042 272 1046 q 288 1033 284 1038 q 321 970 299 1010 q 355 908 344 929 q 438 1047 399 995 q 535 1050 489 1050 q 644 1047 574 1050 q 651 1042 651 1047 q 648 1034 651 1040 q 638 1021 644 1028 q 627 1006 633 1013 q 616 991 622 999 q 608 981 610 983 q 495 841 543 895 l 377 841 q 209 847 297 841 q 188 859 197 847 q 142 920 160 896 q 102 980 125 944 q 63 1046 79 1015 z "},"":{"ha":732,"x_min":15,"x_max":705,"o":"m 15 409 q 16 507 15 449 q 65 509 42 509 q 67 637 65 532 q 68 800 68 741 q 214 817 135 810 q 351 823 294 823 q 476 811 422 823 q 575 769 531 798 q 647 692 619 739 q 690 573 675 644 q 705 407 705 502 q 698 278 705 335 q 676 178 690 220 q 639 104 662 135 q 588 52 616 72 q 523 19 561 32 q 445 2 486 7 q 354 -3 405 -3 q 81 14 269 -3 q 72 18 76 14 q 68 27 68 22 q 67 112 68 67 q 67 210 67 156 q 66 294 66 263 q 30 296 44 295 q 21 300 24 296 q 16 309 17 303 q 15 409 15 380 m 335 508 q 374 507 360 508 q 384 503 380 507 q 388 494 388 499 q 389 378 389 452 q 388 293 389 352 q 335 292 362 292 q 336 259 335 280 q 336 228 336 238 l 373 228 q 391 230 383 228 q 407 238 398 232 q 421 257 415 244 q 431 289 427 270 q 438 338 436 308 q 441 407 441 368 q 437 488 441 454 q 428 540 433 521 q 412 570 422 559 q 394 584 403 581 q 373 587 385 587 l 336 587 q 335 508 335 536 z "},"":{"ha":732,"x_min":15,"x_max":705,"o":"m 15 409 q 16 507 15 449 q 65 509 42 509 q 67 637 65 532 q 68 800 68 741 q 214 817 135 810 q 351 823 294 823 q 476 811 422 823 q 575 769 531 798 q 647 692 619 739 q 690 573 675 644 q 705 407 705 502 q 698 278 705 335 q 676 178 690 220 q 639 104 662 135 q 588 52 616 72 q 523 19 561 32 q 445 2 486 7 q 354 -3 405 -3 q 81 14 269 -3 q 72 18 76 14 q 68 27 68 22 q 67 112 68 67 q 67 210 67 156 q 66 294 66 263 q 30 296 44 295 q 21 300 24 296 q 16 309 17 303 q 15 409 15 380 m 335 508 q 374 507 360 508 q 384 503 380 507 q 388 494 388 499 q 389 378 389 452 q 388 293 389 352 q 335 292 362 292 q 336 259 335 280 q 336 228 336 238 l 373 228 q 391 230 383 228 q 407 238 398 232 q 421 257 415 244 q 431 289 427 270 q 438 338 436 308 q 441 407 441 368 q 437 488 441 454 q 428 540 433 521 q 412 570 422 559 q 394 584 403 581 q 373 587 385 587 l 336 587 q 335 508 335 536 z "},"":{"ha":616,"x_min":62,"x_max":604,"o":"m 62 407 q 68 814 62 597 q 349 817 132 817 q 586 814 503 817 q 595 810 591 814 q 600 800 600 806 q 601 683 601 718 q 600 583 601 630 q 384 581 542 581 q 332 581 355 581 q 331 510 332 534 q 494 507 453 509 q 503 503 499 507 q 507 494 507 499 q 508 392 508 438 q 507 301 508 350 l 331 301 q 332 231 332 277 l 349 231 q 589 228 515 231 q 598 224 594 228 q 602 214 602 220 q 604 97 604 132 q 602 -3 604 44 q 370 -6 538 -6 q 227 -4 336 -6 q 81 0 117 -1 q 72 4 76 0 q 68 14 68 8 q 62 407 62 269 m 126 958 q 127 1046 126 997 q 368 1049 192 1049 q 521 1046 438 1049 q 530 1042 526 1046 q 534 1032 534 1038 q 535 943 535 1002 q 534 853 535 877 q 348 850 468 850 q 141 856 298 850 q 132 860 136 856 q 127 869 128 864 q 126 958 126 917 z "},"":{"ha":616,"x_min":62,"x_max":604,"o":"m 62 407 q 68 814 62 597 q 349 817 132 817 q 586 814 503 817 q 595 810 591 814 q 600 800 600 806 q 601 683 601 718 q 600 583 601 630 q 384 581 542 581 q 332 581 355 581 q 331 510 332 534 q 494 507 453 509 q 503 503 499 507 q 507 494 507 499 q 508 392 508 438 q 507 301 508 350 l 331 301 q 332 231 332 277 l 349 231 q 589 228 515 231 q 598 224 594 228 q 602 214 602 220 q 604 97 604 132 q 602 -3 604 44 q 370 -6 538 -6 q 227 -4 336 -6 q 81 0 117 -1 q 72 4 76 0 q 68 14 68 8 q 62 407 62 269 m 126 958 q 127 1046 126 997 q 368 1049 192 1049 q 521 1046 438 1049 q 530 1042 526 1046 q 534 1032 534 1038 q 535 943 535 1002 q 534 853 535 877 q 348 850 468 850 q 141 856 298 850 q 132 860 136 856 q 127 869 128 864 q 126 958 126 917 z "},"":{"ha":616,"x_min":38,"x_max":624,"o":"m 62 407 q 68 814 62 597 q 349 817 132 817 q 586 814 503 817 q 595 810 591 814 q 600 800 600 806 q 601 683 601 718 q 600 583 601 630 q 384 581 542 581 q 332 581 355 581 q 331 510 332 534 q 494 507 453 509 q 503 503 499 507 q 507 494 507 499 q 508 392 508 438 q 507 301 508 350 l 331 301 q 332 231 332 277 l 349 231 q 589 228 515 231 q 598 224 594 228 q 602 214 602 220 q 604 97 604 132 q 602 -3 604 44 q 370 -6 538 -6 q 227 -4 336 -6 q 81 0 117 -1 q 72 4 76 0 q 68 14 68 8 q 62 407 62 269 m 38 1052 q 130 1055 85 1055 q 238 1052 165 1055 q 250 1048 244 1052 q 259 1039 256 1044 q 291 1002 272 1014 q 332 989 311 989 q 379 1005 357 989 q 412 1048 400 1020 q 509 1050 463 1050 q 618 1048 548 1050 q 624 1043 624 1048 q 615 1013 624 1035 q 597 977 606 991 q 486 875 559 912 q 330 839 413 839 q 236 852 281 839 q 150 890 190 865 q 80 958 110 916 q 38 1052 51 999 z "},"":{"ha":616,"x_min":38,"x_max":624,"o":"m 62 407 q 68 814 62 597 q 349 817 132 817 q 586 814 503 817 q 595 810 591 814 q 600 800 600 806 q 601 683 601 718 q 600 583 601 630 q 384 581 542 581 q 332 581 355 581 q 331 510 332 534 q 494 507 453 509 q 503 503 499 507 q 507 494 507 499 q 508 392 508 438 q 507 301 508 350 l 331 301 q 332 231 332 277 l 349 231 q 589 228 515 231 q 598 224 594 228 q 602 214 602 220 q 604 97 604 132 q 602 -3 604 44 q 370 -6 538 -6 q 227 -4 336 -6 q 81 0 117 -1 q 72 4 76 0 q 68 14 68 8 q 62 407 62 269 m 38 1052 q 130 1055 85 1055 q 238 1052 165 1055 q 250 1048 244 1052 q 259 1039 256 1044 q 291 1002 272 1014 q 332 989 311 989 q 379 1005 357 989 q 412 1048 400 1020 q 509 1050 463 1050 q 618 1048 548 1050 q 624 1043 624 1048 q 615 1013 624 1035 q 597 977 606 991 q 486 875 559 912 q 330 839 413 839 q 236 852 281 839 q 150 890 190 865 q 80 958 110 916 q 38 1052 51 999 z "},"":{"ha":616,"x_min":62,"x_max":604,"o":"m 62 407 q 68 814 62 597 q 349 817 132 817 q 586 814 503 817 q 595 810 591 814 q 600 800 600 806 q 601 683 601 718 q 600 583 601 630 q 384 581 542 581 q 332 581 355 581 q 331 510 332 534 q 494 507 453 509 q 503 503 499 507 q 507 494 507 499 q 508 392 508 438 q 507 301 508 350 l 331 301 q 332 231 332 277 l 349 231 q 589 228 515 231 q 598 224 594 228 q 602 214 602 220 q 604 97 604 132 q 602 -3 604 44 q 370 -6 538 -6 q 227 -4 336 -6 q 81 0 117 -1 q 72 4 76 0 q 68 14 68 8 q 62 407 62 269 m 215 960 q 216 1050 215 1001 q 315 1052 265 1052 q 430 1050 358 1052 q 439 1046 435 1050 q 444 1036 444 1042 q 445 936 445 981 q 444 846 445 895 q 368 845 410 845 q 229 849 310 845 q 220 853 223 849 q 216 863 216 857 q 215 960 215 916 z "},"":{"ha":616,"x_min":62,"x_max":604,"o":"m 62 407 q 68 814 62 597 q 349 817 132 817 q 586 814 503 817 q 595 810 591 814 q 600 800 600 806 q 601 683 601 718 q 600 583 601 630 q 384 581 542 581 q 332 581 355 581 q 331 510 332 534 q 494 507 453 509 q 503 503 499 507 q 507 494 507 499 q 508 392 508 438 q 507 301 508 350 l 331 301 q 332 231 332 277 l 349 231 q 589 228 515 231 q 598 224 594 228 q 602 214 602 220 q 604 97 604 132 q 602 -3 604 44 q 370 -6 538 -6 q 227 -4 336 -6 q 81 0 117 -1 q 72 4 76 0 q 68 14 68 8 q 62 407 62 269 m 215 960 q 216 1050 215 1001 q 315 1052 265 1052 q 430 1050 358 1052 q 439 1046 435 1050 q 444 1036 444 1042 q 445 936 445 981 q 444 846 445 895 q 368 845 410 845 q 229 849 310 845 q 220 853 223 849 q 216 863 216 857 q 215 960 215 916 z "},"":{"ha":616,"x_min":62,"x_max":637,"o":"m 62 407 q 68 814 62 597 q 349 817 132 817 q 586 814 503 817 q 595 810 591 814 q 600 800 600 806 q 601 683 601 718 q 600 583 601 630 q 384 581 542 581 q 332 581 355 581 q 331 510 332 534 q 494 507 453 509 q 503 503 499 507 q 507 494 507 499 q 508 392 508 438 q 507 301 508 350 l 331 301 q 332 231 332 277 l 349 231 q 589 228 515 231 q 598 224 594 228 q 602 214 602 220 q 604 97 604 132 q 602 -3 604 44 q 546 -4 589 -3 q 501 -17 517 -5 q 486 -43 486 -29 q 502 -68 486 -59 q 547 -75 519 -78 l 613 -66 l 637 -256 q 565 -268 590 -265 q 505 -271 541 -271 q 391 -251 442 -271 q 313 -195 341 -230 q 286 -120 286 -161 q 346 -5 286 -59 q 81 0 200 -4 q 72 4 76 0 q 68 14 68 8 q 62 407 62 269 z "},"":{"ha":616,"x_min":62,"x_max":637,"o":"m 62 407 q 68 814 62 597 q 349 817 132 817 q 586 814 503 817 q 595 810 591 814 q 600 800 600 806 q 601 683 601 718 q 600 583 601 630 q 384 581 542 581 q 332 581 355 581 q 331 510 332 534 q 494 507 453 509 q 503 503 499 507 q 507 494 507 499 q 508 392 508 438 q 507 301 508 350 l 331 301 q 332 231 332 277 l 349 231 q 589 228 515 231 q 598 224 594 228 q 602 214 602 220 q 604 97 604 132 q 602 -3 604 44 q 546 -4 589 -3 q 501 -17 517 -5 q 486 -43 486 -29 q 502 -68 486 -59 q 547 -75 519 -78 l 613 -66 l 637 -256 q 565 -268 590 -265 q 505 -271 541 -271 q 391 -251 442 -271 q 313 -195 341 -230 q 286 -120 286 -161 q 346 -5 286 -59 q 81 0 200 -4 q 72 4 76 0 q 68 14 68 8 q 62 407 62 269 z "},"":{"ha":616,"x_min":38,"x_max":625,"o":"m 62 407 q 68 814 62 597 q 349 817 132 817 q 586 814 503 817 q 595 810 591 814 q 600 800 600 806 q 601 683 601 718 q 600 583 601 630 q 384 581 542 581 q 332 581 355 581 q 331 510 332 534 q 494 507 453 509 q 503 503 499 507 q 507 494 507 499 q 508 392 508 438 q 507 301 508 350 l 331 301 q 332 231 332 277 l 349 231 q 589 228 515 231 q 598 224 594 228 q 602 214 602 220 q 604 97 604 132 q 602 -3 604 44 q 370 -6 538 -6 q 227 -4 336 -6 q 81 0 117 -1 q 72 4 76 0 q 68 14 68 8 q 62 407 62 269 m 38 1046 q 131 1048 85 1048 q 241 1046 168 1048 q 253 1042 247 1046 q 262 1033 259 1038 q 296 970 273 1010 q 329 908 318 929 q 412 1047 374 995 q 509 1050 463 1050 q 618 1047 548 1050 q 625 1042 625 1047 q 622 1034 625 1040 q 613 1021 618 1028 q 602 1006 607 1013 q 590 991 596 999 q 582 981 584 983 q 470 841 517 895 l 351 841 q 183 847 271 841 q 162 859 171 847 q 117 920 134 896 q 76 980 99 944 q 38 1046 54 1015 z "},"":{"ha":616,"x_min":38,"x_max":625,"o":"m 62 407 q 68 814 62 597 q 349 817 132 817 q 586 814 503 817 q 595 810 591 814 q 600 800 600 806 q 601 683 601 718 q 600 583 601 630 q 384 581 542 581 q 332 581 355 581 q 331 510 332 534 q 494 507 453 509 q 503 503 499 507 q 507 494 507 499 q 508 392 508 438 q 507 301 508 350 l 331 301 q 332 231 332 277 l 349 231 q 589 228 515 231 q 598 224 594 228 q 602 214 602 220 q 604 97 604 132 q 602 -3 604 44 q 370 -6 538 -6 q 227 -4 336 -6 q 81 0 117 -1 q 72 4 76 0 q 68 14 68 8 q 62 407 62 269 m 38 1046 q 131 1048 85 1048 q 241 1046 168 1048 q 253 1042 247 1046 q 262 1033 259 1038 q 296 970 273 1010 q 329 908 318 929 q 412 1047 374 995 q 509 1050 463 1050 q 618 1047 548 1050 q 625 1042 625 1047 q 622 1034 625 1040 q 613 1021 618 1028 q 602 1006 607 1013 q 590 991 596 999 q 582 981 584 983 q 470 841 517 895 l 351 841 q 183 847 271 841 q 162 859 171 847 q 117 920 134 896 q 76 980 99 944 q 38 1046 54 1015 z "},"":{"ha":681,"x_min":35,"x_max":694,"o":"m 35 407 q 52 573 35 502 q 100 692 70 644 q 178 769 131 739 q 281 811 225 798 q 408 823 337 823 q 651 800 508 823 l 623 586 l 381 586 q 360 583 369 586 q 343 569 352 580 q 330 540 335 559 q 322 488 325 521 q 319 407 319 454 q 321 338 319 368 q 328 289 323 308 q 339 257 333 270 q 353 238 345 244 q 370 230 362 232 q 388 228 377 228 l 415 228 q 410 434 415 294 q 517 437 469 437 q 635 434 567 437 q 644 430 640 434 q 648 420 648 426 q 654 231 654 295 q 648 23 654 119 q 563 8 591 13 q 494 1 535 4 q 406 -3 452 -3 q 333 0 366 -3 q 267 10 299 3 q 208 28 235 17 q 158 57 182 39 q 115 97 133 74 q 81 150 96 120 q 56 219 65 181 q 41 304 46 257 q 35 407 35 351 m 107 842 q 160 932 130 887 q 233 1036 190 978 q 253 1048 241 1047 q 445 1053 342 1053 q 539 1052 505 1053 q 667 892 589 996 q 672 886 668 891 q 680 876 676 880 q 687 867 683 872 q 692 858 690 862 q 694 852 694 854 q 687 846 694 846 q 578 844 617 844 q 481 846 532 844 q 448 896 464 870 q 423 938 432 921 q 398 985 414 956 q 331 856 361 910 q 322 846 328 850 q 310 842 316 842 q 200 840 237 840 q 107 842 155 840 z "},"":{"ha":681,"x_min":35,"x_max":694,"o":"m 35 407 q 52 573 35 502 q 100 692 70 644 q 178 769 131 739 q 281 811 225 798 q 408 823 337 823 q 651 800 508 823 l 623 586 l 381 586 q 360 583 369 586 q 343 569 352 580 q 330 540 335 559 q 322 488 325 521 q 319 407 319 454 q 321 338 319 368 q 328 289 323 308 q 339 257 333 270 q 353 238 345 244 q 370 230 362 232 q 388 228 377 228 l 415 228 q 410 434 415 294 q 517 437 469 437 q 635 434 567 437 q 644 430 640 434 q 648 420 648 426 q 654 231 654 295 q 648 23 654 119 q 563 8 591 13 q 494 1 535 4 q 406 -3 452 -3 q 333 0 366 -3 q 267 10 299 3 q 208 28 235 17 q 158 57 182 39 q 115 97 133 74 q 81 150 96 120 q 56 219 65 181 q 41 304 46 257 q 35 407 35 351 m 107 842 q 160 932 130 887 q 233 1036 190 978 q 253 1048 241 1047 q 445 1053 342 1053 q 539 1052 505 1053 q 667 892 589 996 q 672 886 668 891 q 680 876 676 880 q 687 867 683 872 q 692 858 690 862 q 694 852 694 854 q 687 846 694 846 q 578 844 617 844 q 481 846 532 844 q 448 896 464 870 q 423 938 432 921 q 398 985 414 956 q 331 856 361 910 q 322 846 328 850 q 310 842 316 842 q 200 840 237 840 q 107 842 155 840 z "},"":{"ha":681,"x_min":35,"x_max":693,"o":"m 35 407 q 52 573 35 502 q 100 692 70 644 q 178 769 131 739 q 281 811 225 798 q 408 823 337 823 q 651 800 508 823 l 623 586 l 381 586 q 360 583 369 586 q 343 569 352 580 q 330 540 335 559 q 322 488 325 521 q 319 407 319 454 q 321 338 319 368 q 328 289 323 308 q 339 257 333 270 q 353 238 345 244 q 370 230 362 232 q 388 228 377 228 l 415 228 q 410 434 415 294 q 517 437 469 437 q 635 434 567 437 q 644 430 640 434 q 648 420 648 426 q 654 231 654 295 q 648 23 654 119 q 563 8 591 13 q 494 1 535 4 q 406 -3 452 -3 q 333 0 366 -3 q 267 10 299 3 q 208 28 235 17 q 158 57 182 39 q 115 97 133 74 q 81 150 96 120 q 56 219 65 181 q 41 304 46 257 q 35 407 35 351 m 107 1052 q 199 1055 155 1055 q 308 1052 235 1055 q 319 1048 313 1052 q 328 1039 326 1044 q 360 1002 341 1014 q 401 989 380 989 q 448 1005 426 989 q 481 1048 470 1020 q 578 1050 532 1050 q 687 1048 617 1050 q 693 1043 693 1048 q 684 1013 693 1035 q 667 977 675 991 q 555 875 628 912 q 399 839 483 839 q 305 852 351 839 q 219 890 259 865 q 150 958 179 916 q 107 1052 120 999 z "},"":{"ha":681,"x_min":35,"x_max":693,"o":"m 35 407 q 52 573 35 502 q 100 692 70 644 q 178 769 131 739 q 281 811 225 798 q 408 823 337 823 q 651 800 508 823 l 623 586 l 381 586 q 360 583 369 586 q 343 569 352 580 q 330 540 335 559 q 322 488 325 521 q 319 407 319 454 q 321 338 319 368 q 328 289 323 308 q 339 257 333 270 q 353 238 345 244 q 370 230 362 232 q 388 228 377 228 l 415 228 q 410 434 415 294 q 517 437 469 437 q 635 434 567 437 q 644 430 640 434 q 648 420 648 426 q 654 231 654 295 q 648 23 654 119 q 563 8 591 13 q 494 1 535 4 q 406 -3 452 -3 q 333 0 366 -3 q 267 10 299 3 q 208 28 235 17 q 158 57 182 39 q 115 97 133 74 q 81 150 96 120 q 56 219 65 181 q 41 304 46 257 q 35 407 35 351 m 107 1052 q 199 1055 155 1055 q 308 1052 235 1055 q 319 1048 313 1052 q 328 1039 326 1044 q 360 1002 341 1014 q 401 989 380 989 q 448 1005 426 989 q 481 1048 470 1020 q 578 1050 532 1050 q 687 1048 617 1050 q 693 1043 693 1048 q 684 1013 693 1035 q 667 977 675 991 q 555 875 628 912 q 399 839 483 839 q 305 852 351 839 q 219 890 259 865 q 150 958 179 916 q 107 1052 120 999 z "},"":{"ha":681,"x_min":35,"x_max":654,"o":"m 35 407 q 52 573 35 502 q 100 692 70 644 q 178 769 131 739 q 281 811 225 798 q 408 823 337 823 q 651 800 508 823 l 623 586 l 381 586 q 360 583 369 586 q 343 569 352 580 q 330 540 335 559 q 322 488 325 521 q 319 407 319 454 q 321 338 319 368 q 328 289 323 308 q 339 257 333 270 q 353 238 345 244 q 370 230 362 232 q 388 228 377 228 l 415 228 q 410 434 415 294 q 517 437 469 437 q 635 434 567 437 q 644 430 640 434 q 648 420 648 426 q 654 231 654 295 q 648 23 654 119 q 563 8 591 13 q 494 1 535 4 q 406 -3 452 -3 q 333 0 366 -3 q 267 10 299 3 q 208 28 235 17 q 158 57 182 39 q 115 97 133 74 q 81 150 96 120 q 56 219 65 181 q 41 304 46 257 q 35 407 35 351 m 284 960 q 285 1050 284 1001 q 384 1052 334 1052 q 499 1050 427 1052 q 509 1046 505 1050 q 513 1036 513 1042 q 514 936 514 981 q 513 846 514 895 q 437 845 479 845 q 298 849 379 845 q 289 853 293 849 q 285 863 285 857 q 284 960 284 916 z "},"":{"ha":681,"x_min":35,"x_max":654,"o":"m 35 407 q 52 573 35 502 q 100 692 70 644 q 178 769 131 739 q 281 811 225 798 q 408 823 337 823 q 651 800 508 823 l 623 586 l 381 586 q 360 583 369 586 q 343 569 352 580 q 330 540 335 559 q 322 488 325 521 q 319 407 319 454 q 321 338 319 368 q 328 289 323 308 q 339 257 333 270 q 353 238 345 244 q 370 230 362 232 q 388 228 377 228 l 415 228 q 410 434 415 294 q 517 437 469 437 q 635 434 567 437 q 644 430 640 434 q 648 420 648 426 q 654 231 654 295 q 648 23 654 119 q 563 8 591 13 q 494 1 535 4 q 406 -3 452 -3 q 333 0 366 -3 q 267 10 299 3 q 208 28 235 17 q 158 57 182 39 q 115 97 133 74 q 81 150 96 120 q 56 219 65 181 q 41 304 46 257 q 35 407 35 351 m 284 960 q 285 1050 284 1001 q 384 1052 334 1052 q 499 1050 427 1052 q 509 1046 505 1050 q 513 1036 513 1042 q 514 936 514 981 q 513 846 514 895 q 437 845 479 845 q 298 849 379 845 q 289 853 293 849 q 285 863 285 857 q 284 960 284 916 z "},"":{"ha":681,"x_min":35,"x_max":654,"o":"m 35 407 q 52 573 35 502 q 100 692 70 644 q 178 769 131 739 q 281 811 225 798 q 408 823 337 823 q 651 800 508 823 l 623 586 l 381 586 q 360 583 369 586 q 343 569 352 580 q 330 540 335 559 q 322 488 325 521 q 319 407 319 454 q 321 338 319 368 q 328 289 323 308 q 339 257 333 270 q 353 238 345 244 q 370 230 362 232 q 388 228 377 228 l 415 228 q 410 434 415 294 q 517 437 469 437 q 635 434 567 437 q 644 430 640 434 q 648 420 648 426 q 654 231 654 295 q 648 23 654 119 q 563 8 591 13 q 494 1 535 4 q 406 -3 452 -3 q 333 0 366 -3 q 267 10 299 3 q 208 28 235 17 q 158 57 182 39 q 115 97 133 74 q 81 150 96 120 q 56 219 65 181 q 41 304 46 257 q 35 407 35 351 m 302 -27 q 497 -27 386 -24 q 506 -30 502 -27 q 509 -37 509 -33 q 510 -81 509 -54 q 510 -123 510 -108 q 486 -199 506 -152 q 455 -269 467 -247 q 354 -271 407 -271 q 365 -160 361 -219 q 314 -159 331 -160 q 305 -156 309 -159 q 302 -150 302 -154 q 302 -27 300 -82 z "},"":{"ha":681,"x_min":35,"x_max":654,"o":"m 35 407 q 52 573 35 502 q 100 692 70 644 q 178 769 131 739 q 281 811 225 798 q 408 823 337 823 q 651 800 508 823 l 623 586 l 381 586 q 360 583 369 586 q 343 569 352 580 q 330 540 335 559 q 322 488 325 521 q 319 407 319 454 q 321 338 319 368 q 328 289 323 308 q 339 257 333 270 q 353 238 345 244 q 370 230 362 232 q 388 228 377 228 l 415 228 q 410 434 415 294 q 517 437 469 437 q 635 434 567 437 q 644 430 640 434 q 648 420 648 426 q 654 231 654 295 q 648 23 654 119 q 563 8 591 13 q 494 1 535 4 q 406 -3 452 -3 q 333 0 366 -3 q 267 10 299 3 q 208 28 235 17 q 158 57 182 39 q 115 97 133 74 q 81 150 96 120 q 56 219 65 181 q 41 304 46 257 q 35 407 35 351 m 302 -27 q 497 -27 386 -24 q 506 -30 502 -27 q 509 -37 509 -33 q 510 -81 509 -54 q 510 -123 510 -108 q 486 -199 506 -152 q 455 -269 467 -247 q 354 -271 407 -271 q 365 -160 361 -219 q 314 -159 331 -160 q 305 -156 309 -159 q 302 -150 302 -154 q 302 -27 300 -82 z "},"":{"ha":746,"x_min":62,"x_max":711,"o":"m 62 407 q 68 814 62 597 q 186 817 132 817 q 326 814 242 817 q 335 810 331 814 q 339 800 339 806 q 342 515 342 676 l 431 515 q 434 814 431 700 q 553 817 498 817 q 692 814 609 817 q 701 810 697 814 q 705 800 705 806 q 711 407 711 545 q 705 0 711 217 q 587 -3 641 -3 q 448 0 531 -3 q 438 4 442 0 q 434 14 434 8 q 431 285 432 103 l 342 285 q 339 0 342 109 q 220 -3 275 -3 q 81 0 164 -3 q 72 4 76 0 q 68 14 68 8 q 62 407 62 269 m 93 842 q 146 932 116 887 q 219 1036 176 978 q 240 1048 228 1047 q 431 1053 329 1053 q 525 1052 492 1053 q 653 892 575 996 q 659 886 654 891 q 666 876 663 880 q 673 867 669 872 q 679 858 677 862 q 681 852 681 854 q 674 846 681 846 q 565 844 604 844 q 468 846 518 844 q 434 896 450 870 q 409 938 418 921 q 385 985 400 956 q 317 856 348 910 q 308 846 314 850 q 297 842 302 842 q 186 840 224 840 q 93 842 141 840 z "},"":{"ha":746,"x_min":62,"x_max":711,"o":"m 62 407 q 68 814 62 597 q 186 817 132 817 q 326 814 242 817 q 335 810 331 814 q 339 800 339 806 q 342 515 342 676 l 431 515 q 434 814 431 700 q 553 817 498 817 q 692 814 609 817 q 701 810 697 814 q 705 800 705 806 q 711 407 711 545 q 705 0 711 217 q 587 -3 641 -3 q 448 0 531 -3 q 438 4 442 0 q 434 14 434 8 q 431 285 432 103 l 342 285 q 339 0 342 109 q 220 -3 275 -3 q 81 0 164 -3 q 72 4 76 0 q 68 14 68 8 q 62 407 62 269 m 93 842 q 146 932 116 887 q 219 1036 176 978 q 240 1048 228 1047 q 431 1053 329 1053 q 525 1052 492 1053 q 653 892 575 996 q 659 886 654 891 q 666 876 663 880 q 673 867 669 872 q 679 858 677 862 q 681 852 681 854 q 674 846 681 846 q 565 844 604 844 q 468 846 518 844 q 434 896 450 870 q 409 938 418 921 q 385 985 400 956 q 317 856 348 910 q 308 846 314 850 q 297 842 302 842 q 186 840 224 840 q 93 842 141 840 z "},"":{"ha":757,"x_min":30,"x_max":755,"o":"m 31 575 q 30 650 30 628 q 31 727 30 674 q 39 727 34 727 q 54 728 44 727 q 71 728 64 728 q 72 771 72 742 q 73 814 73 800 q 192 817 138 817 q 331 814 248 817 q 340 810 336 814 q 345 800 345 806 q 345 766 345 790 q 346 730 346 743 l 438 730 q 439 814 438 763 q 558 817 504 817 q 697 814 614 817 q 707 810 703 814 q 711 800 711 806 q 712 728 711 776 q 727 728 717 728 q 741 727 736 727 q 750 723 746 727 q 754 713 754 719 q 755 640 755 685 q 754 559 755 599 q 715 558 745 558 q 716 407 716 484 q 711 0 716 217 q 592 -3 646 -3 q 453 0 536 -3 q 444 4 448 0 q 439 14 439 8 q 437 277 437 104 l 347 277 q 345 0 347 109 q 226 -3 280 -3 q 87 0 170 -3 q 77 4 81 0 q 73 14 73 8 q 68 407 68 269 q 68 561 68 510 q 45 562 47 562 q 35 565 39 562 q 31 575 32 569 m 347 557 q 347 524 347 546 q 347 491 347 502 l 437 491 l 437 556 q 347 557 403 557 z "},"":{"ha":757,"x_min":30,"x_max":755,"o":"m 31 575 q 30 650 30 628 q 31 727 30 674 q 39 727 34 727 q 54 728 44 727 q 71 728 64 728 q 72 771 72 742 q 73 814 73 800 q 192 817 138 817 q 331 814 248 817 q 340 810 336 814 q 345 800 345 806 q 345 766 345 790 q 346 730 346 743 l 438 730 q 439 814 438 763 q 558 817 504 817 q 697 814 614 817 q 707 810 703 814 q 711 800 711 806 q 712 728 711 776 q 727 728 717 728 q 741 727 736 727 q 750 723 746 727 q 754 713 754 719 q 755 640 755 685 q 754 559 755 599 q 715 558 745 558 q 716 407 716 484 q 711 0 716 217 q 592 -3 646 -3 q 453 0 536 -3 q 444 4 448 0 q 439 14 439 8 q 437 277 437 104 l 347 277 q 345 0 347 109 q 226 -3 280 -3 q 87 0 170 -3 q 77 4 81 0 q 73 14 73 8 q 68 407 68 269 q 68 561 68 510 q 45 562 47 562 q 35 565 39 562 q 31 575 32 569 m 347 557 q 347 524 347 546 q 347 491 347 502 l 437 491 l 437 556 q 347 557 403 557 z "},"":{"ha":380,"x_min":-72,"x_max":467,"o":"m 62 407 q 68 814 62 597 q 186 817 132 817 q 326 814 242 817 q 335 810 331 814 q 339 800 339 806 q 345 407 345 545 q 339 0 345 217 q 220 -3 275 -3 q 81 0 164 -3 q 72 4 76 0 q 68 14 68 8 q 62 407 62 269 m -72 988 q -65 1000 -72 997 q 25 1048 -11 1034 q 92 1062 60 1061 q 179 1044 123 1062 q 263 1027 234 1027 q 386 1066 309 1027 q 444 967 417 1016 q 453 951 446 963 q 464 932 460 938 q 467 923 467 925 q 460 910 467 915 q 294 844 362 844 q 215 859 265 844 q 137 873 165 873 q 14 835 88 873 q -41 930 -11 875 q -50 945 -44 936 q -58 959 -55 954 q -65 972 -61 965 q -70 982 -68 978 q -72 988 -72 987 z "},"":{"ha":380,"x_min":-72,"x_max":467,"o":"m 62 407 q 68 814 62 597 q 186 817 132 817 q 326 814 242 817 q 335 810 331 814 q 339 800 339 806 q 345 407 345 545 q 339 0 345 217 q 220 -3 275 -3 q 81 0 164 -3 q 72 4 76 0 q 68 14 68 8 q 62 407 62 269 m -72 988 q -65 1000 -72 997 q 25 1048 -11 1034 q 92 1062 60 1061 q 179 1044 123 1062 q 263 1027 234 1027 q 386 1066 309 1027 q 444 967 417 1016 q 453 951 446 963 q 464 932 460 938 q 467 923 467 925 q 460 910 467 915 q 294 844 362 844 q 215 859 265 844 q 137 873 165 873 q 14 835 88 873 q -41 930 -11 875 q -50 945 -44 936 q -58 959 -55 954 q -65 972 -61 965 q -70 982 -68 978 q -72 988 -72 987 z "},"":{"ha":380,"x_min":-7,"x_max":402,"o":"m 62 407 q 68 814 62 597 q 186 817 132 817 q 326 814 242 817 q 335 810 331 814 q 339 800 339 806 q 345 407 345 545 q 339 0 345 217 q 220 -3 275 -3 q 81 0 164 -3 q 72 4 76 0 q 68 14 68 8 q 62 407 62 269 m -7 958 q -5 1046 -7 997 q 235 1049 59 1049 q 388 1046 305 1049 q 397 1042 393 1046 q 401 1032 401 1038 q 402 943 402 1002 q 401 853 402 877 q 215 850 335 850 q 8 856 165 850 q -1 860 3 856 q -5 869 -5 864 q -7 958 -7 917 z "},"":{"ha":380,"x_min":-7,"x_max":402,"o":"m 62 407 q 68 814 62 597 q 186 817 132 817 q 326 814 242 817 q 335 810 331 814 q 339 800 339 806 q 345 407 345 545 q 339 0 345 217 q 220 -3 275 -3 q 81 0 164 -3 q 72 4 76 0 q 68 14 68 8 q 62 407 62 269 m -7 958 q -5 1046 -7 997 q 235 1049 59 1049 q 388 1046 305 1049 q 397 1042 393 1046 q 401 1032 401 1038 q 402 943 402 1002 q 401 853 402 877 q 215 850 335 850 q 8 856 165 850 q -1 860 3 856 q -5 869 -5 864 q -7 958 -7 917 z "},"":{"ha":380,"x_min":-95,"x_max":491,"o":"m 62 407 q 68 814 62 597 q 186 817 132 817 q 326 814 242 817 q 335 810 331 814 q 339 800 339 806 q 345 407 345 545 q 339 0 345 217 q 220 -3 275 -3 q 81 0 164 -3 q 72 4 76 0 q 68 14 68 8 q 62 407 62 269 m -95 1052 q -3 1055 -47 1055 q 105 1052 33 1055 q 117 1048 111 1052 q 126 1039 123 1044 q 158 1002 139 1014 q 199 989 178 989 q 246 1005 224 989 q 279 1048 268 1020 q 376 1050 330 1050 q 485 1048 415 1050 q 491 1043 491 1048 q 482 1013 491 1035 q 465 977 473 991 q 353 875 426 912 q 197 839 280 839 q 103 852 149 839 q 17 890 57 865 q -53 958 -23 916 q -95 1052 -82 999 z "},"":{"ha":380,"x_min":-95,"x_max":491,"o":"m 62 407 q 68 814 62 597 q 186 817 132 817 q 326 814 242 817 q 335 810 331 814 q 339 800 339 806 q 345 407 345 545 q 339 0 345 217 q 220 -3 275 -3 q 81 0 164 -3 q 72 4 76 0 q 68 14 68 8 q 62 407 62 269 m -95 1052 q -3 1055 -47 1055 q 105 1052 33 1055 q 117 1048 111 1052 q 126 1039 123 1044 q 158 1002 139 1014 q 199 989 178 989 q 246 1005 224 989 q 279 1048 268 1020 q 376 1050 330 1050 q 485 1048 415 1050 q 491 1043 491 1048 q 482 1013 491 1035 q 465 977 473 991 q 353 875 426 912 q 197 839 280 839 q 103 852 149 839 q 17 890 57 865 q -53 958 -23 916 q -95 1052 -82 999 z "},"":{"ha":380,"x_min":28,"x_max":378,"o":"m 28 -119 q 91 0 28 -56 q 86 0 90 0 q 81 0 83 0 q 72 4 76 0 q 68 14 68 8 q 62 407 62 269 q 68 814 62 597 q 186 817 132 817 q 326 814 242 817 q 335 810 331 814 q 339 800 339 806 q 345 407 345 545 q 339 0 345 217 q 287 -2 309 -2 q 242 -16 258 -4 q 227 -42 227 -27 q 243 -68 227 -58 q 288 -74 260 -78 l 354 -66 l 378 -256 q 289 -270 314 -268 q 245 -271 270 -271 q 90 -227 151 -271 q 28 -119 28 -182 z "},"":{"ha":380,"x_min":28,"x_max":378,"o":"m 28 -119 q 91 0 28 -56 q 86 0 90 0 q 81 0 83 0 q 72 4 76 0 q 68 14 68 8 q 62 407 62 269 q 68 814 62 597 q 186 817 132 817 q 326 814 242 817 q 335 810 331 814 q 339 800 339 806 q 345 407 345 545 q 339 0 345 217 q 287 -2 309 -2 q 242 -16 258 -4 q 227 -42 227 -27 q 243 -68 227 -58 q 288 -74 260 -78 l 354 -66 l 378 -256 q 289 -270 314 -268 q 245 -271 270 -271 q 90 -227 151 -271 q 28 -119 28 -182 z "},"":{"ha":380,"x_min":62,"x_max":345,"o":"m 62 407 q 68 814 62 597 q 186 817 132 817 q 326 814 242 817 q 335 810 331 814 q 339 800 339 806 q 345 407 345 545 q 339 0 345 217 q 220 -3 275 -3 q 81 0 164 -3 q 72 4 76 0 q 68 14 68 8 q 62 407 62 269 m 86 960 q 87 1050 86 1001 q 186 1052 136 1052 q 301 1050 229 1052 q 311 1046 307 1050 q 315 1036 315 1042 q 316 936 316 981 q 315 846 316 895 q 239 845 281 845 q 100 849 181 845 q 91 853 95 849 q 87 863 87 857 q 86 960 86 916 z "},"":{"ha":380,"x_min":62,"x_max":345,"o":"m 62 407 q 68 814 62 597 q 186 817 132 817 q 326 814 242 817 q 335 810 331 814 q 339 800 339 806 q 345 407 345 545 q 339 0 345 217 q 220 -3 275 -3 q 81 0 164 -3 q 72 4 76 0 q 68 14 68 8 q 62 407 62 269 z "},"":{"ha":968,"x_min":62,"x_max":941,"o":"m 62 407 q 68 814 62 597 q 186 817 132 817 q 326 814 242 817 q 335 810 331 814 q 339 800 339 806 q 345 407 345 545 q 339 0 345 217 q 220 -3 275 -3 q 81 0 164 -3 q 72 4 76 0 q 68 14 68 8 q 62 407 62 269 m 423 -5 l 433 217 l 568 206 q 599 206 586 204 q 623 216 611 208 q 643 239 636 224 q 655 282 650 255 q 659 349 659 309 q 661 581 659 471 q 454 586 557 583 q 445 590 449 586 q 441 600 441 594 q 439 711 439 677 q 441 814 439 765 q 739 817 505 817 q 922 814 839 817 q 932 810 928 814 q 936 800 936 806 q 941 356 941 545 q 932 237 941 290 q 908 144 924 183 q 866 76 891 105 q 811 28 841 46 q 742 -3 781 9 q 661 -18 702 -14 q 568 -23 620 -23 q 548 -23 558 -23 q 530 -22 538 -22 q 512 -20 523 -21 q 496 -18 501 -19 q 478 -15 491 -18 q 462 -13 466 -13 q 443 -9 458 -12 q 423 -5 428 -6 z "},"":{"ha":968,"x_min":62,"x_max":941,"o":"m 423 -5 l 433 217 l 568 206 q 599 206 586 204 q 623 216 611 208 q 643 239 636 224 q 655 282 650 255 q 659 349 659 309 q 661 581 659 471 q 454 586 557 583 q 445 590 449 586 q 441 600 441 594 q 439 711 439 677 q 441 814 439 765 q 739 817 505 817 q 922 814 839 817 q 932 810 928 814 q 936 800 936 806 q 941 356 941 545 q 932 237 941 290 q 908 144 924 183 q 866 76 891 105 q 811 28 841 46 q 742 -3 781 9 q 661 -18 702 -14 q 568 -23 620 -23 q 548 -23 558 -23 q 530 -22 538 -22 q 512 -20 523 -21 q 496 -18 501 -19 q 478 -15 491 -18 q 462 -13 466 -13 q 443 -9 458 -12 q 423 -5 428 -6 m 62 407 q 68 814 62 597 q 186 817 132 817 q 326 814 242 817 q 335 810 331 814 q 339 800 339 806 q 345 407 345 545 q 339 0 345 217 q 220 -3 275 -3 q 81 0 164 -3 q 72 4 76 0 q 68 14 68 8 q 62 407 62 269 z "},"":{"ha":589,"x_min":17,"x_max":605,"o":"m 43 -5 l 54 217 l 188 206 q 219 206 207 204 q 244 216 231 208 q 263 239 256 224 q 275 282 271 255 q 279 349 279 309 q 281 581 279 471 q 75 586 177 583 q 65 590 69 586 q 61 600 61 594 q 60 711 60 677 q 61 814 60 765 q 359 817 125 817 q 543 814 459 817 q 552 810 548 814 q 556 800 556 806 q 562 356 562 545 q 553 237 562 290 q 528 144 544 183 q 486 76 512 105 q 431 28 461 46 q 362 -3 401 9 q 281 -18 322 -14 q 189 -23 240 -23 q 168 -23 178 -23 q 151 -22 158 -22 q 132 -20 143 -21 q 116 -18 121 -19 q 99 -15 111 -18 q 82 -13 86 -13 q 63 -9 78 -12 q 43 -5 48 -6 m 17 842 q 70 932 40 887 q 143 1036 100 978 q 164 1048 152 1047 q 355 1053 253 1053 q 449 1052 416 1053 q 577 892 499 996 q 583 886 578 891 q 590 876 587 880 q 597 867 593 872 q 603 858 601 862 q 605 852 605 854 q 598 846 605 846 q 489 844 528 844 q 392 846 443 844 q 358 896 374 870 q 333 938 342 921 q 309 985 324 956 q 241 856 272 910 q 232 846 238 850 q 221 842 226 842 q 111 840 148 840 q 17 842 65 840 z "},"":{"ha":589,"x_min":17,"x_max":605,"o":"m 43 -5 l 54 217 l 188 206 q 219 206 207 204 q 244 216 231 208 q 263 239 256 224 q 275 282 271 255 q 279 349 279 309 q 281 581 279 471 q 75 586 177 583 q 65 590 69 586 q 61 600 61 594 q 60 711 60 677 q 61 814 60 765 q 359 817 125 817 q 543 814 459 817 q 552 810 548 814 q 556 800 556 806 q 562 356 562 545 q 553 237 562 290 q 528 144 544 183 q 486 76 512 105 q 431 28 461 46 q 362 -3 401 9 q 281 -18 322 -14 q 189 -23 240 -23 q 168 -23 178 -23 q 151 -22 158 -22 q 132 -20 143 -21 q 116 -18 121 -19 q 99 -15 111 -18 q 82 -13 86 -13 q 63 -9 78 -12 q 43 -5 48 -6 m 17 842 q 70 932 40 887 q 143 1036 100 978 q 164 1048 152 1047 q 355 1053 253 1053 q 449 1052 416 1053 q 577 892 499 996 q 583 886 578 891 q 590 876 587 880 q 597 867 593 872 q 603 858 601 862 q 605 852 605 854 q 598 846 605 846 q 489 844 528 844 q 392 846 443 844 q 358 896 374 870 q 333 938 342 921 q 309 985 324 956 q 241 856 272 910 q 232 846 238 850 q 221 842 226 842 q 111 840 148 840 q 17 842 65 840 z "},"":{"ha":723,"x_min":62,"x_max":725,"o":"m 62 407 q 68 814 62 597 q 186 817 132 817 q 326 814 242 817 q 335 810 331 814 q 339 800 339 806 q 339 752 339 784 q 334 529 339 719 q 349 529 339 529 q 364 529 359 529 q 409 661 377 567 q 458 804 442 755 q 466 813 460 809 q 478 817 472 817 q 587 821 530 821 q 723 813 660 821 q 608 492 681 635 q 502 420 568 424 l 502 418 q 565 397 537 416 q 612 346 593 378 q 725 0 672 228 q 583 -7 663 -7 q 474 -4 526 -7 q 462 0 468 -4 q 454 9 456 4 q 359 332 420 111 l 333 332 q 337 217 334 321 q 340 58 340 112 q 339 0 340 39 q 220 -3 275 -3 q 81 0 164 -3 q 72 4 76 0 q 68 14 68 8 q 62 407 62 269 m 293 -28 q 488 -28 376 -25 q 497 -31 493 -28 q 500 -38 500 -34 q 500 -82 500 -55 q 501 -124 501 -109 q 477 -200 496 -152 q 446 -270 457 -248 q 345 -271 398 -271 q 355 -161 352 -220 q 305 -160 322 -161 q 296 -157 300 -160 q 293 -150 293 -154 q 293 -28 291 -82 z "},"":{"ha":723,"x_min":62,"x_max":725,"o":"m 62 407 q 68 814 62 597 q 186 817 132 817 q 326 814 242 817 q 335 810 331 814 q 339 800 339 806 q 339 752 339 784 q 334 529 339 719 q 349 529 339 529 q 364 529 359 529 q 409 661 377 567 q 458 804 442 755 q 466 813 460 809 q 478 817 472 817 q 587 821 530 821 q 723 813 660 821 q 608 492 681 635 q 502 420 568 424 l 502 418 q 565 397 537 416 q 612 346 593 378 q 725 0 672 228 q 583 -7 663 -7 q 474 -4 526 -7 q 462 0 468 -4 q 454 9 456 4 q 359 332 420 111 l 333 332 q 337 217 334 321 q 340 58 340 112 q 339 0 340 39 q 220 -3 275 -3 q 81 0 164 -3 q 72 4 76 0 q 68 14 68 8 q 62 407 62 269 m 293 -28 q 488 -28 376 -25 q 497 -31 493 -28 q 500 -38 500 -34 q 500 -82 500 -55 q 501 -124 501 -109 q 477 -200 496 -152 q 446 -270 457 -248 q 345 -271 398 -271 q 355 -161 352 -220 q 305 -160 322 -161 q 296 -157 300 -160 q 293 -150 293 -154 q 293 -28 291 -82 z "},"":{"ha":723,"x_min":62,"x_max":725,"o":"m 62 407 q 68 814 62 597 q 186 817 132 817 q 326 814 242 817 q 335 810 331 814 q 339 800 339 806 q 339 752 339 784 q 334 529 339 719 q 349 529 339 529 q 364 529 359 529 q 409 661 377 567 q 458 804 442 755 q 466 813 460 809 q 478 817 472 817 q 587 821 530 821 q 723 813 660 821 q 608 492 681 635 q 502 420 568 424 l 502 418 q 565 397 537 416 q 612 346 593 378 q 725 0 672 228 q 583 -7 663 -7 q 474 -4 526 -7 q 462 0 468 -4 q 454 9 456 4 q 359 332 420 111 l 333 332 q 337 217 334 321 q 340 58 340 112 q 339 0 340 39 q 220 -3 275 -3 q 81 0 164 -3 q 72 4 76 0 q 68 14 68 8 q 62 407 62 269 z "},"":{"ha":556,"x_min":62,"x_max":571,"o":"m 62 407 q 68 814 62 597 q 186 817 132 817 q 326 814 242 817 q 335 810 331 814 q 339 800 339 806 q 345 407 345 545 q 343 231 345 317 l 349 231 q 556 228 473 231 q 566 224 562 228 q 570 214 570 220 q 571 97 571 132 q 570 -3 571 44 q 370 -6 505 -6 q 227 -4 336 -6 q 81 0 117 -1 q 72 4 76 0 q 68 14 68 8 q 62 407 62 269 m 154 849 q 148 855 148 850 q 172 897 148 860 q 276 1051 214 965 q 386 1054 327 1054 q 510 1051 440 1054 q 516 1045 516 1051 q 489 1005 516 1039 q 423 928 470 982 q 352 844 375 875 q 154 849 252 844 z "},"":{"ha":556,"x_min":62,"x_max":571,"o":"m 62 407 q 68 814 62 597 q 186 817 132 817 q 326 814 242 817 q 335 810 331 814 q 339 800 339 806 q 345 407 345 545 q 343 231 345 317 l 349 231 q 556 228 473 231 q 566 224 562 228 q 570 214 570 220 q 571 97 571 132 q 570 -3 571 44 q 370 -6 505 -6 q 227 -4 336 -6 q 81 0 117 -1 q 72 4 76 0 q 68 14 68 8 q 62 407 62 269 m 154 849 q 148 855 148 850 q 172 897 148 860 q 276 1051 214 965 q 386 1054 327 1054 q 510 1051 440 1054 q 516 1045 516 1051 q 489 1005 516 1039 q 423 928 470 982 q 352 844 375 875 q 154 849 252 844 z "},"":{"ha":556,"x_min":62,"x_max":571,"o":"m 62 407 q 68 814 62 597 q 186 817 132 817 q 326 814 242 817 q 335 810 331 814 q 339 800 339 806 q 345 407 345 545 q 343 231 345 317 l 349 231 q 556 228 473 231 q 566 224 562 228 q 570 214 570 220 q 571 97 571 132 q 570 -3 571 44 q 370 -6 505 -6 q 227 -4 336 -6 q 81 0 117 -1 q 72 4 76 0 q 68 14 68 8 q 62 407 62 269 m 225 -28 q 421 -28 309 -24 q 429 -31 426 -28 q 433 -38 433 -34 q 433 -81 433 -55 q 434 -123 434 -108 q 410 -200 429 -152 q 379 -269 390 -248 q 278 -271 331 -271 q 288 -160 284 -220 q 238 -160 255 -160 q 229 -157 233 -159 q 225 -150 225 -154 q 225 -28 223 -82 z "},"":{"ha":556,"x_min":62,"x_max":571,"o":"m 62 407 q 68 814 62 597 q 186 817 132 817 q 326 814 242 817 q 335 810 331 814 q 339 800 339 806 q 345 407 345 545 q 343 231 345 317 l 349 231 q 556 228 473 231 q 566 224 562 228 q 570 214 570 220 q 571 97 571 132 q 570 -3 571 44 q 370 -6 505 -6 q 227 -4 336 -6 q 81 0 117 -1 q 72 4 76 0 q 68 14 68 8 q 62 407 62 269 m 225 -28 q 421 -28 309 -24 q 429 -31 426 -28 q 433 -38 433 -34 q 433 -81 433 -55 q 434 -123 434 -108 q 410 -200 429 -152 q 379 -269 390 -248 q 278 -271 331 -271 q 288 -160 284 -220 q 238 -160 255 -160 q 229 -157 233 -159 q 225 -150 225 -154 q 225 -28 223 -82 z "},"":{"ha":654,"x_min":62,"x_max":645,"o":"m 62 407 q 68 814 62 597 q 186 817 132 817 q 326 814 242 817 q 335 810 331 814 q 339 800 339 806 q 345 407 345 545 q 343 231 345 317 l 349 231 q 556 228 473 231 q 566 224 562 228 q 570 214 570 220 q 571 97 571 132 q 570 -3 571 44 q 370 -6 505 -6 q 227 -4 336 -6 q 81 0 117 -1 q 72 4 76 0 q 68 14 68 8 q 62 407 62 269 m 412 728 q 413 821 412 772 q 514 823 463 823 q 630 821 558 823 q 640 817 636 821 q 644 807 644 813 q 644 741 644 784 q 645 677 645 698 q 619 554 640 636 q 590 448 598 472 q 467 445 532 445 q 469 522 467 453 q 473 612 472 591 q 427 613 446 612 q 417 618 421 614 q 413 627 413 622 q 412 728 412 680 z "},"":{"ha":654,"x_min":62,"x_max":645,"o":"m 62 407 q 68 814 62 597 q 186 817 132 817 q 326 814 242 817 q 335 810 331 814 q 339 800 339 806 q 345 407 345 545 q 343 231 345 317 l 349 231 q 556 228 473 231 q 566 224 562 228 q 570 214 570 220 q 571 97 571 132 q 570 -3 571 44 q 370 -6 505 -6 q 227 -4 336 -6 q 81 0 117 -1 q 72 4 76 0 q 68 14 68 8 q 62 407 62 269 m 412 728 q 413 821 412 772 q 514 823 463 823 q 630 821 558 823 q 640 817 636 821 q 644 807 644 813 q 644 741 644 784 q 645 677 645 698 q 619 554 640 636 q 590 448 598 472 q 467 445 532 445 q 469 522 467 453 q 473 612 472 591 q 427 613 446 612 q 417 618 421 614 q 413 627 413 622 q 412 728 412 680 z "},"":{"ha":597,"x_min":27,"x_max":606,"o":"m 27 338 q 28 441 27 401 q 81 463 77 461 q 87 814 82 624 q 205 817 151 817 q 345 814 261 817 q 354 810 350 814 q 358 800 358 806 q 362 578 361 691 q 519 635 453 613 q 529 634 525 637 q 533 626 532 632 q 534 528 534 585 q 533 413 534 468 q 465 385 530 412 q 363 344 399 358 q 362 231 363 306 l 376 231 q 591 228 506 231 q 601 224 597 228 q 605 214 605 220 q 606 97 606 132 q 605 -3 606 44 q 397 -6 538 -6 q 249 -4 363 -6 q 100 0 136 -1 q 91 4 95 0 q 87 14 87 8 q 83 236 84 124 q 69 231 78 234 q 54 226 61 229 q 41 222 47 224 q 32 223 36 220 q 28 231 28 225 q 27 338 27 282 z "},"":{"ha":597,"x_min":27,"x_max":606,"o":"m 27 338 q 28 441 27 401 q 81 463 77 461 q 87 814 82 624 q 205 817 151 817 q 345 814 261 817 q 354 810 350 814 q 358 800 358 806 q 362 578 361 691 q 519 635 453 613 q 529 634 525 637 q 533 626 532 632 q 534 528 534 585 q 533 413 534 468 q 465 385 530 412 q 363 344 399 358 q 362 231 363 306 l 376 231 q 591 228 506 231 q 601 224 597 228 q 605 214 605 220 q 606 97 606 132 q 605 -3 606 44 q 397 -6 538 -6 q 249 -4 363 -6 q 100 0 136 -1 q 91 4 95 0 q 87 14 87 8 q 83 236 84 124 q 69 231 78 234 q 54 226 61 229 q 41 222 47 224 q 32 223 36 220 q 28 231 28 225 q 27 338 27 282 z "},"":{"ha":746,"x_min":62,"x_max":711,"o":"m 62 407 q 68 814 62 597 q 180 817 132 817 q 297 814 220 817 q 312 800 307 813 l 452 453 l 448 814 q 566 817 512 817 q 692 814 619 817 q 701 810 697 813 q 705 800 705 806 q 711 407 711 545 q 705 0 711 217 q 600 -3 649 -3 q 476 0 542 -3 q 461 14 466 0 l 321 361 l 326 0 q 214 -3 261 -3 q 81 0 160 -3 q 72 4 76 0 q 68 14 68 8 q 62 407 62 269 m 274 849 q 267 855 267 850 q 291 897 267 860 q 396 1051 333 965 q 505 1054 447 1054 q 629 1051 559 1054 q 636 1045 636 1051 q 608 1005 636 1039 q 542 928 590 982 q 471 844 495 875 q 274 849 372 844 z "},"":{"ha":746,"x_min":62,"x_max":711,"o":"m 62 407 q 68 814 62 597 q 180 817 132 817 q 297 814 220 817 q 312 800 307 813 l 452 453 l 448 814 q 566 817 512 817 q 692 814 619 817 q 701 810 697 813 q 705 800 705 806 q 711 407 711 545 q 705 0 711 217 q 600 -3 649 -3 q 476 0 542 -3 q 461 14 466 0 l 321 361 l 326 0 q 214 -3 261 -3 q 81 0 160 -3 q 72 4 76 0 q 68 14 68 8 q 62 407 62 269 m 274 849 q 267 855 267 850 q 291 897 267 860 q 396 1051 333 965 q 505 1054 447 1054 q 629 1051 559 1054 q 636 1045 636 1051 q 608 1005 636 1039 q 542 928 590 982 q 471 844 495 875 q 274 849 372 844 z "},"":{"ha":746,"x_min":62,"x_max":711,"o":"m 62 407 q 68 814 62 597 q 180 817 132 817 q 297 814 220 817 q 312 800 307 813 l 452 453 l 448 814 q 566 817 512 817 q 692 814 619 817 q 701 810 697 813 q 705 800 705 806 q 711 407 711 545 q 705 0 711 217 q 600 -3 649 -3 q 476 0 542 -3 q 461 14 466 0 l 321 361 l 326 0 q 214 -3 261 -3 q 81 0 160 -3 q 72 4 76 0 q 68 14 68 8 q 62 407 62 269 m 303 -28 q 499 -28 387 -24 q 507 -31 504 -28 q 511 -38 511 -34 q 511 -81 511 -55 q 512 -123 512 -108 q 488 -200 507 -152 q 457 -269 468 -248 q 356 -271 409 -271 q 366 -160 362 -220 q 316 -160 333 -160 q 307 -157 311 -159 q 303 -150 303 -154 q 303 -28 301 -82 z "},"":{"ha":746,"x_min":62,"x_max":711,"o":"m 62 407 q 68 814 62 597 q 180 817 132 817 q 297 814 220 817 q 312 800 307 813 l 452 453 l 448 814 q 566 817 512 817 q 692 814 619 817 q 701 810 697 813 q 705 800 705 806 q 711 407 711 545 q 705 0 711 217 q 600 -3 649 -3 q 476 0 542 -3 q 461 14 466 0 l 321 361 l 326 0 q 214 -3 261 -3 q 81 0 160 -3 q 72 4 76 0 q 68 14 68 8 q 62 407 62 269 m 303 -28 q 499 -28 387 -24 q 507 -31 504 -28 q 511 -38 511 -34 q 511 -81 511 -55 q 512 -123 512 -108 q 488 -200 507 -152 q 457 -269 468 -248 q 356 -271 409 -271 q 366 -160 362 -220 q 316 -160 333 -160 q 307 -157 311 -159 q 303 -150 303 -154 q 303 -28 301 -82 z "},"":{"ha":746,"x_min":62,"x_max":711,"o":"m 62 407 q 68 814 62 597 q 180 817 132 817 q 297 814 220 817 q 312 800 307 813 l 452 453 l 448 814 q 566 817 512 817 q 692 814 619 817 q 701 810 697 813 q 705 800 705 806 q 711 407 711 545 q 705 0 711 217 q 600 -3 649 -3 q 476 0 542 -3 q 461 14 466 0 l 321 361 l 326 0 q 214 -3 261 -3 q 81 0 160 -3 q 72 4 76 0 q 68 14 68 8 q 62 407 62 269 m 99 1046 q 192 1048 146 1048 q 302 1046 229 1048 q 314 1042 308 1046 q 323 1033 320 1038 q 357 970 334 1010 q 390 908 379 929 q 473 1047 435 995 q 570 1050 524 1050 q 679 1047 609 1050 q 686 1042 686 1047 q 683 1034 686 1040 q 674 1021 680 1028 q 663 1006 668 1013 q 651 991 657 999 q 643 981 645 983 q 531 841 578 895 l 412 841 q 244 847 332 841 q 223 859 232 847 q 178 920 195 896 q 137 980 160 944 q 99 1046 115 1015 z "},"":{"ha":746,"x_min":62,"x_max":711,"o":"m 62 407 q 68 814 62 597 q 180 817 132 817 q 297 814 220 817 q 312 800 307 813 l 452 453 l 448 814 q 566 817 512 817 q 692 814 619 817 q 701 810 697 813 q 705 800 705 806 q 711 407 711 545 q 705 0 711 217 q 600 -3 649 -3 q 476 0 542 -3 q 461 14 466 0 l 321 361 l 326 0 q 214 -3 261 -3 q 81 0 160 -3 q 72 4 76 0 q 68 14 68 8 q 62 407 62 269 m 99 1046 q 192 1048 146 1048 q 302 1046 229 1048 q 314 1042 308 1046 q 323 1033 320 1038 q 357 970 334 1010 q 390 908 379 929 q 473 1047 435 995 q 570 1050 524 1050 q 679 1047 609 1050 q 686 1042 686 1047 q 683 1034 686 1040 q 674 1021 680 1028 q 663 1006 668 1013 q 651 991 657 999 q 643 981 645 983 q 531 841 578 895 l 412 841 q 244 847 332 841 q 223 859 232 847 q 178 920 195 896 q 137 980 160 944 q 99 1046 115 1015 z "},"":{"ha":732,"x_min":35,"x_max":724,"o":"m 35 407 q 57 583 35 506 q 118 712 78 660 q 215 791 158 763 q 345 823 273 820 q 463 814 411 823 q 558 785 514 805 q 631 733 601 765 q 683 654 662 701 q 714 547 704 608 q 724 407 724 486 q 703 231 724 309 q 640 103 681 154 q 542 24 599 52 q 412 -8 485 -4 q 295 1 347 -8 q 200 30 243 10 q 127 82 157 50 q 76 160 97 114 q 45 267 55 206 q 35 407 35 329 m 319 407 q 322 327 319 360 q 330 274 325 293 q 343 244 335 255 q 360 231 352 234 q 381 228 369 228 q 401 231 393 228 q 418 244 410 234 q 430 274 426 255 q 438 327 435 293 q 441 407 441 360 q 439 476 441 447 q 432 525 437 506 q 423 557 428 545 q 410 575 418 569 q 395 584 402 582 q 377 586 387 586 q 360 584 367 586 q 346 576 353 582 q 334 557 339 569 q 326 525 330 545 q 320 476 322 506 q 319 407 319 447 m 182 958 q 183 1046 182 997 q 424 1049 248 1049 q 576 1046 493 1049 q 586 1042 582 1046 q 590 1032 590 1038 q 591 943 591 1002 q 590 853 591 877 q 404 850 524 850 q 197 856 353 850 q 187 860 191 856 q 183 869 183 864 q 182 958 182 917 z "},"":{"ha":732,"x_min":35,"x_max":724,"o":"m 35 407 q 57 583 35 506 q 118 712 78 660 q 215 791 158 763 q 345 823 273 820 q 463 814 411 823 q 558 785 514 805 q 631 733 601 765 q 683 654 662 701 q 714 547 704 608 q 724 407 724 486 q 703 231 724 309 q 640 103 681 154 q 542 24 599 52 q 412 -8 485 -4 q 295 1 347 -8 q 200 30 243 10 q 127 82 157 50 q 76 160 97 114 q 45 267 55 206 q 35 407 35 329 m 319 407 q 322 327 319 360 q 330 274 325 293 q 343 244 335 255 q 360 231 352 234 q 381 228 369 228 q 401 231 393 228 q 418 244 410 234 q 430 274 426 255 q 438 327 435 293 q 441 407 441 360 q 439 476 441 447 q 432 525 437 506 q 423 557 428 545 q 410 575 418 569 q 395 584 402 582 q 377 586 387 586 q 360 584 367 586 q 346 576 353 582 q 334 557 339 569 q 326 525 330 545 q 320 476 322 506 q 319 407 319 447 m 182 958 q 183 1046 182 997 q 424 1049 248 1049 q 576 1046 493 1049 q 586 1042 582 1046 q 590 1032 590 1038 q 591 943 591 1002 q 590 853 591 877 q 404 850 524 850 q 197 856 353 850 q 187 860 191 856 q 183 869 183 864 q 182 958 182 917 z "},"":{"ha":732,"x_min":35,"x_max":724,"o":"m 35 407 q 57 583 35 506 q 118 712 78 660 q 215 791 158 763 q 345 823 273 820 q 463 814 411 823 q 558 785 514 805 q 631 733 601 765 q 683 654 662 701 q 714 547 704 608 q 724 407 724 486 q 703 231 724 309 q 640 103 681 154 q 542 24 599 52 q 412 -8 485 -4 q 295 1 347 -8 q 200 30 243 10 q 127 82 157 50 q 76 160 97 114 q 45 267 55 206 q 35 407 35 329 m 319 407 q 322 327 319 360 q 330 274 325 293 q 343 244 335 255 q 360 231 352 234 q 381 228 369 228 q 401 231 393 228 q 418 244 410 234 q 430 274 426 255 q 438 327 435 293 q 441 407 441 360 q 439 476 441 447 q 432 525 437 506 q 423 557 428 545 q 410 575 418 569 q 395 584 402 582 q 377 586 387 586 q 360 584 367 586 q 346 576 353 582 q 334 557 339 569 q 326 525 330 545 q 320 476 322 506 q 319 407 319 447 m 93 1052 q 185 1055 141 1055 q 294 1052 221 1055 q 306 1048 300 1052 q 315 1039 312 1044 q 347 1002 327 1014 q 388 989 366 989 q 434 1005 413 989 q 468 1048 456 1020 q 565 1050 518 1050 q 674 1048 604 1050 q 680 1043 680 1048 q 671 1013 680 1035 q 653 977 662 991 q 542 875 615 912 q 386 839 469 839 q 291 852 337 839 q 206 890 245 865 q 136 958 166 916 q 93 1052 106 999 z "},"":{"ha":732,"x_min":35,"x_max":724,"o":"m 35 407 q 57 583 35 506 q 118 712 78 660 q 215 791 158 763 q 345 823 273 820 q 463 814 411 823 q 558 785 514 805 q 631 733 601 765 q 683 654 662 701 q 714 547 704 608 q 724 407 724 486 q 703 231 724 309 q 640 103 681 154 q 542 24 599 52 q 412 -8 485 -4 q 295 1 347 -8 q 200 30 243 10 q 127 82 157 50 q 76 160 97 114 q 45 267 55 206 q 35 407 35 329 m 319 407 q 322 327 319 360 q 330 274 325 293 q 343 244 335 255 q 360 231 352 234 q 381 228 369 228 q 401 231 393 228 q 418 244 410 234 q 430 274 426 255 q 438 327 435 293 q 441 407 441 360 q 439 476 441 447 q 432 525 437 506 q 423 557 428 545 q 410 575 418 569 q 395 584 402 582 q 377 586 387 586 q 360 584 367 586 q 346 576 353 582 q 334 557 339 569 q 326 525 330 545 q 320 476 322 506 q 319 407 319 447 m 93 1052 q 185 1055 141 1055 q 294 1052 221 1055 q 306 1048 300 1052 q 315 1039 312 1044 q 347 1002 327 1014 q 388 989 366 989 q 434 1005 413 989 q 468 1048 456 1020 q 565 1050 518 1050 q 674 1048 604 1050 q 680 1043 680 1048 q 671 1013 680 1035 q 653 977 662 991 q 542 875 615 912 q 386 839 469 839 q 291 852 337 839 q 206 890 245 865 q 136 958 166 916 q 93 1052 106 999 z "},"":{"ha":732,"x_min":35,"x_max":724,"o":"m 35 407 q 57 583 35 506 q 118 712 78 660 q 215 791 158 763 q 345 823 273 820 q 463 814 411 823 q 558 785 514 805 q 631 733 601 765 q 683 654 662 701 q 714 547 704 608 q 724 407 724 486 q 703 231 724 309 q 640 103 681 154 q 542 24 599 52 q 412 -8 485 -4 q 295 1 347 -8 q 200 30 243 10 q 127 82 157 50 q 76 160 97 114 q 45 267 55 206 q 35 407 35 329 m 319 407 q 322 327 319 360 q 330 274 325 293 q 343 244 335 255 q 360 231 352 234 q 381 228 369 228 q 401 231 393 228 q 418 244 410 234 q 430 274 426 255 q 438 327 435 293 q 441 407 441 360 q 439 476 441 447 q 432 525 437 506 q 423 557 428 545 q 410 575 418 569 q 395 584 402 582 q 377 586 387 586 q 360 584 367 586 q 346 576 353 582 q 334 557 339 569 q 326 525 330 545 q 320 476 322 506 q 319 407 319 447 m 396 855 q 400 865 396 858 q 412 885 404 873 l 420 898 q 525 1051 467 972 q 606 1053 556 1053 q 700 1051 665 1053 q 706 1045 706 1051 q 664 985 706 1038 q 535 844 624 936 q 402 849 509 844 q 396 855 396 850 m 152 855 q 153 860 152 857 q 158 869 155 864 q 164 879 161 874 q 170 889 166 883 q 175 896 174 894 q 280 1051 219 966 q 361 1053 312 1053 q 455 1051 421 1053 q 462 1045 462 1051 q 427 994 462 1039 q 291 844 384 940 q 158 849 264 844 q 152 855 152 850 z "},"":{"ha":732,"x_min":35,"x_max":724,"o":"m 35 407 q 57 583 35 506 q 118 712 78 660 q 215 791 158 763 q 345 823 273 820 q 463 814 411 823 q 558 785 514 805 q 631 733 601 765 q 683 654 662 701 q 714 547 704 608 q 724 407 724 486 q 703 231 724 309 q 640 103 681 154 q 542 24 599 52 q 412 -8 485 -4 q 295 1 347 -8 q 200 30 243 10 q 127 82 157 50 q 76 160 97 114 q 45 267 55 206 q 35 407 35 329 m 319 407 q 322 327 319 360 q 330 274 325 293 q 343 244 335 255 q 360 231 352 234 q 381 228 369 228 q 401 231 393 228 q 418 244 410 234 q 430 274 426 255 q 438 327 435 293 q 441 407 441 360 q 439 476 441 447 q 432 525 437 506 q 423 557 428 545 q 410 575 418 569 q 395 584 402 582 q 377 586 387 586 q 360 584 367 586 q 346 576 353 582 q 334 557 339 569 q 326 525 330 545 q 320 476 322 506 q 319 407 319 447 m 396 855 q 400 865 396 858 q 412 885 404 873 l 420 898 q 525 1051 467 972 q 606 1053 556 1053 q 700 1051 665 1053 q 706 1045 706 1051 q 664 985 706 1038 q 535 844 624 936 q 402 849 509 844 q 396 855 396 850 m 152 855 q 153 860 152 857 q 158 869 155 864 q 164 879 161 874 q 170 889 166 883 q 175 896 174 894 q 280 1051 219 966 q 361 1053 312 1053 q 455 1051 421 1053 q 462 1045 462 1051 q 427 994 462 1039 q 291 844 384 940 q 158 849 264 844 q 152 855 152 850 z "},"":{"ha":982,"x_min":35,"x_max":970,"o":"m 319 407 q 322 327 319 360 q 330 274 325 293 q 343 244 335 255 q 360 231 352 234 q 381 228 369 228 q 401 231 393 228 q 418 244 410 234 q 430 274 426 255 q 438 327 435 293 q 441 407 441 360 q 439 476 441 447 q 432 525 437 506 q 423 557 428 545 q 410 575 418 569 q 395 584 402 582 q 377 586 387 586 q 360 584 367 586 q 346 576 353 582 q 334 557 339 569 q 326 525 330 545 q 320 476 322 506 q 319 407 319 447 m 35 407 q 57 582 35 506 q 118 710 78 659 q 215 788 159 761 q 345 819 272 815 q 437 814 396 819 q 715 817 510 817 q 952 814 869 817 q 962 810 958 814 q 966 800 966 806 q 967 683 967 718 q 966 583 967 630 q 750 581 908 581 q 699 581 722 581 q 699 546 699 569 q 699 510 699 522 q 860 507 802 509 q 869 503 865 507 q 873 494 873 499 q 874 392 874 438 q 873 301 874 350 l 699 301 q 699 266 699 289 q 699 231 699 242 l 715 231 q 955 228 881 231 q 964 224 960 228 q 968 214 968 220 q 970 97 970 132 q 968 -3 970 44 q 736 -6 904 -6 q 452 0 629 -6 q 412 -4 433 -3 q 274 9 333 -4 q 169 50 215 21 q 93 127 122 79 q 50 244 65 175 q 35 407 35 313 z "},"":{"ha":982,"x_min":35,"x_max":970,"o":"m 319 407 q 322 327 319 360 q 330 274 325 293 q 343 244 335 255 q 360 231 352 234 q 381 228 369 228 q 401 231 393 228 q 418 244 410 234 q 430 274 426 255 q 438 327 435 293 q 441 407 441 360 q 439 476 441 447 q 432 525 437 506 q 423 557 428 545 q 410 575 418 569 q 395 584 402 582 q 377 586 387 586 q 360 584 367 586 q 346 576 353 582 q 334 557 339 569 q 326 525 330 545 q 320 476 322 506 q 319 407 319 447 m 35 407 q 57 582 35 506 q 118 710 78 659 q 215 788 159 761 q 345 819 272 815 q 437 814 396 819 q 715 817 510 817 q 952 814 869 817 q 962 810 958 814 q 966 800 966 806 q 967 683 967 718 q 966 583 967 630 q 750 581 908 581 q 699 581 722 581 q 699 546 699 569 q 699 510 699 522 q 860 507 802 509 q 869 503 865 507 q 873 494 873 499 q 874 392 874 438 q 873 301 874 350 l 699 301 q 699 266 699 289 q 699 231 699 242 l 715 231 q 955 228 881 231 q 964 224 960 228 q 968 214 968 220 q 970 97 970 132 q 968 -3 970 44 q 736 -6 904 -6 q 452 0 629 -6 q 412 -4 433 -3 q 274 9 333 -4 q 169 50 215 21 q 93 127 122 79 q 50 244 65 175 q 35 407 35 313 z "},"":{"ha":713,"x_min":65,"x_max":725,"o":"m 65 425 q 66 612 65 492 q 68 800 68 732 q 212 817 136 811 q 346 823 289 823 q 429 822 395 823 q 501 815 463 820 q 565 800 540 810 q 615 773 590 790 q 655 731 641 755 q 677 670 669 706 q 686 588 686 634 q 648 458 686 514 q 543 370 610 402 q 617 305 589 354 q 725 0 685 173 q 583 -7 663 -7 q 474 -4 526 -7 q 462 0 468 -4 q 454 9 456 4 q 351 334 388 210 l 333 334 q 336 178 334 296 q 339 0 339 60 q 220 -2 283 -2 q 81 0 163 -2 q 72 4 76 0 q 68 14 68 8 q 66 216 68 76 q 65 425 65 356 m 332 500 l 355 500 q 407 517 388 500 q 427 559 427 533 q 414 608 427 592 q 366 625 400 625 q 333 624 348 625 q 332 500 332 544 m 238 849 q 232 855 232 850 q 256 897 232 860 q 360 1051 298 965 q 470 1054 411 1054 q 594 1051 524 1054 q 601 1045 601 1051 q 573 1005 601 1039 q 507 928 554 982 q 436 844 459 875 q 238 849 336 844 z "},"":{"ha":713,"x_min":65,"x_max":725,"o":"m 65 425 q 66 612 65 492 q 68 800 68 732 q 212 817 136 811 q 346 823 289 823 q 429 822 395 823 q 501 815 463 820 q 565 800 540 810 q 615 773 590 790 q 655 731 641 755 q 677 670 669 706 q 686 588 686 634 q 648 458 686 514 q 543 370 610 402 q 617 305 589 354 q 725 0 685 173 q 583 -7 663 -7 q 474 -4 526 -7 q 462 0 468 -4 q 454 9 456 4 q 351 334 388 210 l 333 334 q 336 178 334 296 q 339 0 339 60 q 220 -2 283 -2 q 81 0 163 -2 q 72 4 76 0 q 68 14 68 8 q 66 216 68 76 q 65 425 65 356 m 332 500 l 355 500 q 407 517 388 500 q 427 559 427 533 q 414 608 427 592 q 366 625 400 625 q 333 624 348 625 q 332 500 332 544 m 238 849 q 232 855 232 850 q 256 897 232 860 q 360 1051 298 965 q 470 1054 411 1054 q 594 1051 524 1054 q 601 1045 601 1051 q 573 1005 601 1039 q 507 928 554 982 q 436 844 459 875 q 238 849 336 844 z "},"":{"ha":713,"x_min":65,"x_max":725,"o":"m 65 425 q 66 612 65 492 q 68 800 68 732 q 212 817 136 811 q 346 823 289 823 q 429 822 395 823 q 501 815 463 820 q 565 800 540 810 q 615 773 590 790 q 655 731 641 755 q 677 670 669 706 q 686 588 686 634 q 648 458 686 514 q 543 370 610 402 q 617 305 589 354 q 725 0 685 173 q 583 -7 663 -7 q 474 -4 526 -7 q 462 0 468 -4 q 454 9 456 4 q 351 334 388 210 l 333 334 q 336 178 334 296 q 339 0 339 60 q 220 -2 283 -2 q 81 0 163 -2 q 72 4 76 0 q 68 14 68 8 q 66 216 68 76 q 65 425 65 356 m 332 500 l 355 500 q 407 517 388 500 q 427 559 427 533 q 414 608 427 592 q 366 625 400 625 q 333 624 348 625 q 332 500 332 544 m 291 -27 q 487 -27 375 -23 q 495 -30 492 -27 q 499 -37 499 -33 q 499 -80 499 -54 q 499 -122 499 -107 q 476 -199 495 -151 q 445 -268 456 -247 q 344 -270 396 -270 q 354 -159 350 -219 q 303 -159 320 -159 q 295 -156 298 -158 q 291 -149 291 -153 q 291 -27 289 -81 z "},"":{"ha":713,"x_min":65,"x_max":725,"o":"m 65 425 q 66 612 65 492 q 68 800 68 732 q 212 817 136 811 q 346 823 289 823 q 429 822 395 823 q 501 815 463 820 q 565 800 540 810 q 615 773 590 790 q 655 731 641 755 q 677 670 669 706 q 686 588 686 634 q 648 458 686 514 q 543 370 610 402 q 617 305 589 354 q 725 0 685 173 q 583 -7 663 -7 q 474 -4 526 -7 q 462 0 468 -4 q 454 9 456 4 q 351 334 388 210 l 333 334 q 336 178 334 296 q 339 0 339 60 q 220 -2 283 -2 q 81 0 163 -2 q 72 4 76 0 q 68 14 68 8 q 66 216 68 76 q 65 425 65 356 m 332 500 l 355 500 q 407 517 388 500 q 427 559 427 533 q 414 608 427 592 q 366 625 400 625 q 333 624 348 625 q 332 500 332 544 m 291 -27 q 487 -27 375 -23 q 495 -30 492 -27 q 499 -37 499 -33 q 499 -80 499 -54 q 499 -122 499 -107 q 476 -199 495 -151 q 445 -268 456 -247 q 344 -270 396 -270 q 354 -159 350 -219 q 303 -159 320 -159 q 295 -156 298 -158 q 291 -149 291 -153 q 291 -27 289 -81 z "},"":{"ha":713,"x_min":63,"x_max":725,"o":"m 65 425 q 66 612 65 492 q 68 800 68 732 q 212 817 136 811 q 346 823 289 823 q 429 822 395 823 q 501 815 463 820 q 565 800 540 810 q 615 773 590 790 q 655 731 641 755 q 677 670 669 706 q 686 588 686 634 q 648 458 686 514 q 543 370 610 402 q 617 305 589 354 q 725 0 685 173 q 583 -7 663 -7 q 474 -4 526 -7 q 462 0 468 -4 q 454 9 456 4 q 351 334 388 210 l 333 334 q 336 178 334 296 q 339 0 339 60 q 220 -2 283 -2 q 81 0 163 -2 q 72 4 76 0 q 68 14 68 8 q 66 216 68 76 q 65 425 65 356 m 332 500 l 355 500 q 407 517 388 500 q 427 559 427 533 q 414 608 427 592 q 366 625 400 625 q 333 624 348 625 q 332 500 332 544 m 63 1046 q 157 1048 111 1048 q 267 1046 194 1048 q 278 1042 272 1046 q 288 1033 284 1038 q 321 970 299 1010 q 355 908 344 929 q 438 1047 399 995 q 535 1050 489 1050 q 644 1047 574 1050 q 651 1042 651 1047 q 648 1034 651 1040 q 638 1021 644 1028 q 627 1006 633 1013 q 616 991 622 999 q 608 981 610 983 q 495 841 543 895 l 377 841 q 209 847 297 841 q 188 859 197 847 q 142 920 160 896 q 102 980 125 944 q 63 1046 79 1015 z "},"":{"ha":713,"x_min":63,"x_max":725,"o":"m 65 425 q 66 612 65 492 q 68 800 68 732 q 212 817 136 811 q 346 823 289 823 q 429 822 395 823 q 501 815 463 820 q 565 800 540 810 q 615 773 590 790 q 655 731 641 755 q 677 670 669 706 q 686 588 686 634 q 648 458 686 514 q 543 370 610 402 q 617 305 589 354 q 725 0 685 173 q 583 -7 663 -7 q 474 -4 526 -7 q 462 0 468 -4 q 454 9 456 4 q 351 334 388 210 l 333 334 q 336 178 334 296 q 339 0 339 60 q 220 -2 283 -2 q 81 0 163 -2 q 72 4 76 0 q 68 14 68 8 q 66 216 68 76 q 65 425 65 356 m 332 500 l 355 500 q 407 517 388 500 q 427 559 427 533 q 414 608 427 592 q 366 625 400 625 q 333 624 348 625 q 332 500 332 544 m 63 1046 q 157 1048 111 1048 q 267 1046 194 1048 q 278 1042 272 1046 q 288 1033 284 1038 q 321 970 299 1010 q 355 908 344 929 q 438 1047 399 995 q 535 1050 489 1050 q 644 1047 574 1050 q 651 1042 651 1047 q 648 1034 651 1040 q 638 1021 644 1028 q 627 1006 633 1013 q 616 991 622 999 q 608 981 610 983 q 495 841 543 895 l 377 841 q 209 847 297 841 q 188 859 197 847 q 142 920 160 896 q 102 980 125 944 q 63 1046 79 1015 z "},"":{"ha":667,"x_min":46,"x_max":665,"o":"m 46 8 l 79 253 q 320 206 229 206 q 374 221 355 206 q 392 254 392 236 q 389 266 392 261 q 380 277 387 272 q 366 285 373 282 q 347 293 360 289 q 326 300 335 297 q 301 307 318 302 q 254 321 271 316 q 207 339 237 326 q 158 364 176 351 q 116 399 139 377 q 79 446 92 420 q 57 508 66 471 q 47 588 47 544 q 56 670 47 634 q 78 731 64 706 q 116 773 92 755 q 164 800 140 790 q 224 815 188 810 q 292 822 261 820 q 369 823 323 823 q 631 793 480 823 l 600 568 q 482 607 548 591 q 356 623 415 623 q 306 613 324 623 q 288 585 288 603 q 290 574 288 579 q 301 564 293 569 q 315 556 308 559 q 335 548 322 552 q 358 540 349 543 q 385 532 367 537 q 511 487 468 507 q 652 341 622 433 q 665 259 665 303 q 656 177 665 214 q 631 112 647 139 q 591 64 615 85 q 540 30 568 43 q 478 8 513 17 q 408 -3 444 0 q 332 -7 373 -7 q 46 8 190 -7 m 230 849 q 223 855 223 850 q 248 897 223 860 q 352 1051 290 965 q 461 1054 403 1054 q 586 1051 516 1054 q 592 1045 592 1051 q 565 1005 592 1039 q 499 928 546 982 q 428 844 451 875 q 230 849 328 844 z "},"":{"ha":667,"x_min":46,"x_max":665,"o":"m 46 8 l 79 253 q 320 206 229 206 q 374 221 355 206 q 392 254 392 236 q 389 266 392 261 q 380 277 387 272 q 366 285 373 282 q 347 293 360 289 q 326 300 335 297 q 301 307 318 302 q 254 321 271 316 q 207 339 237 326 q 158 364 176 351 q 116 399 139 377 q 79 446 92 420 q 57 508 66 471 q 47 588 47 544 q 56 670 47 634 q 78 731 64 706 q 116 773 92 755 q 164 800 140 790 q 224 815 188 810 q 292 822 261 820 q 369 823 323 823 q 631 793 480 823 l 600 568 q 482 607 548 591 q 356 623 415 623 q 306 613 324 623 q 288 585 288 603 q 290 574 288 579 q 301 564 293 569 q 315 556 308 559 q 335 548 322 552 q 358 540 349 543 q 385 532 367 537 q 511 487 468 507 q 652 341 622 433 q 665 259 665 303 q 656 177 665 214 q 631 112 647 139 q 591 64 615 85 q 540 30 568 43 q 478 8 513 17 q 408 -3 444 0 q 332 -7 373 -7 q 46 8 190 -7 m 230 849 q 223 855 223 850 q 248 897 223 860 q 352 1051 290 965 q 461 1054 403 1054 q 586 1051 516 1054 q 592 1045 592 1051 q 565 1005 592 1039 q 499 928 546 982 q 428 844 451 875 q 230 849 328 844 z "},"":{"ha":667,"x_min":46,"x_max":665,"o":"m 46 8 l 79 253 q 320 206 229 206 q 374 221 355 206 q 392 254 392 236 q 389 266 392 261 q 380 277 387 272 q 366 285 373 282 q 347 293 360 289 q 326 300 335 297 q 301 307 318 302 q 254 321 271 316 q 207 339 237 326 q 158 364 176 351 q 116 399 139 377 q 79 446 92 420 q 57 508 66 471 q 47 588 47 544 q 56 670 47 634 q 78 731 64 706 q 116 773 92 755 q 164 800 140 790 q 224 815 188 810 q 292 822 261 820 q 369 823 323 823 q 631 793 480 823 l 600 568 q 482 607 548 591 q 356 623 415 623 q 306 613 324 623 q 288 585 288 603 q 290 574 288 579 q 301 564 293 569 q 315 556 308 559 q 335 548 322 552 q 358 540 349 543 q 385 532 367 537 q 511 487 468 507 q 652 341 622 433 q 665 259 665 303 q 656 177 665 214 q 631 112 647 139 q 591 64 615 85 q 540 30 568 43 q 478 8 513 17 q 408 -3 444 0 q 332 -7 373 -7 q 46 8 190 -7 m 55 842 q 108 932 78 887 q 181 1036 138 978 q 202 1048 190 1047 q 393 1053 291 1053 q 487 1052 454 1053 q 615 892 537 996 q 621 886 616 891 q 628 876 625 880 q 635 867 631 872 q 641 858 639 862 q 643 852 643 854 q 636 846 643 846 q 527 844 566 844 q 430 846 480 844 q 396 896 412 870 q 371 938 380 921 q 347 985 362 956 q 279 856 310 910 q 270 846 276 850 q 259 842 264 842 q 149 840 186 840 q 55 842 103 840 z "},"":{"ha":667,"x_min":46,"x_max":665,"o":"m 46 8 l 79 253 q 320 206 229 206 q 374 221 355 206 q 392 254 392 236 q 389 266 392 261 q 380 277 387 272 q 366 285 373 282 q 347 293 360 289 q 326 300 335 297 q 301 307 318 302 q 254 321 271 316 q 207 339 237 326 q 158 364 176 351 q 116 399 139 377 q 79 446 92 420 q 57 508 66 471 q 47 588 47 544 q 56 670 47 634 q 78 731 64 706 q 116 773 92 755 q 164 800 140 790 q 224 815 188 810 q 292 822 261 820 q 369 823 323 823 q 631 793 480 823 l 600 568 q 482 607 548 591 q 356 623 415 623 q 306 613 324 623 q 288 585 288 603 q 290 574 288 579 q 301 564 293 569 q 315 556 308 559 q 335 548 322 552 q 358 540 349 543 q 385 532 367 537 q 511 487 468 507 q 652 341 622 433 q 665 259 665 303 q 656 177 665 214 q 631 112 647 139 q 591 64 615 85 q 540 30 568 43 q 478 8 513 17 q 408 -3 444 0 q 332 -7 373 -7 q 46 8 190 -7 m 55 842 q 108 932 78 887 q 181 1036 138 978 q 202 1048 190 1047 q 393 1053 291 1053 q 487 1052 454 1053 q 615 892 537 996 q 621 886 616 891 q 628 876 625 880 q 635 867 631 872 q 641 858 639 862 q 643 852 643 854 q 636 846 643 846 q 527 844 566 844 q 430 846 480 844 q 396 896 412 870 q 371 938 380 921 q 347 985 362 956 q 279 856 310 910 q 270 846 276 850 q 259 842 264 842 q 149 840 186 840 q 55 842 103 840 z "},"":{"ha":667,"x_min":46,"x_max":665,"o":"m 46 8 l 79 253 q 320 206 229 206 q 374 221 355 206 q 392 254 392 236 q 389 266 392 261 q 380 277 387 272 q 366 285 373 282 q 347 293 360 289 q 326 300 335 297 q 301 307 318 302 q 254 321 271 316 q 207 339 237 326 q 158 364 176 351 q 116 399 139 377 q 79 446 92 420 q 57 508 66 471 q 47 588 47 544 q 56 670 47 634 q 78 731 64 706 q 116 773 92 755 q 164 800 140 790 q 224 815 188 810 q 292 822 261 820 q 369 823 323 823 q 631 793 480 823 l 600 568 q 482 607 548 591 q 356 623 415 623 q 306 613 324 623 q 288 585 288 603 q 290 574 288 579 q 301 564 293 569 q 315 556 308 559 q 335 548 322 552 q 358 540 349 543 q 385 532 367 537 q 511 487 468 507 q 652 341 622 433 q 665 259 665 303 q 652 163 665 205 q 617 91 639 120 q 562 42 595 62 q 493 12 530 22 q 410 -3 455 1 q 516 -138 516 -48 q 461 -234 516 -198 q 300 -271 406 -271 q 266 -270 280 -271 q 244 -268 251 -269 q 221 -264 237 -267 q 195 -259 206 -261 l 212 -123 l 244 -127 q 287 -122 271 -131 q 302 -99 302 -113 q 288 -75 302 -85 q 248 -63 274 -65 l 255 -6 q 46 8 151 -3 z "},"":{"ha":667,"x_min":46,"x_max":665,"o":"m 46 8 l 79 253 q 320 206 229 206 q 374 221 355 206 q 392 254 392 236 q 389 266 392 261 q 380 277 387 272 q 366 285 373 282 q 347 293 360 289 q 326 300 335 297 q 301 307 318 302 q 254 321 271 316 q 207 339 237 326 q 158 364 176 351 q 116 399 139 377 q 79 446 92 420 q 57 508 66 471 q 47 588 47 544 q 56 670 47 634 q 78 731 64 706 q 116 773 92 755 q 164 800 140 790 q 224 815 188 810 q 292 822 261 820 q 369 823 323 823 q 631 793 480 823 l 600 568 q 482 607 548 591 q 356 623 415 623 q 306 613 324 623 q 288 585 288 603 q 290 574 288 579 q 301 564 293 569 q 315 556 308 559 q 335 548 322 552 q 358 540 349 543 q 385 532 367 537 q 511 487 468 507 q 652 341 622 433 q 665 259 665 303 q 652 163 665 205 q 617 91 639 120 q 562 42 595 62 q 493 12 530 22 q 410 -3 455 1 q 516 -138 516 -48 q 461 -234 516 -198 q 300 -271 406 -271 q 266 -270 280 -271 q 244 -268 251 -269 q 221 -264 237 -267 q 195 -259 206 -261 l 212 -123 l 244 -127 q 287 -122 271 -131 q 302 -99 302 -113 q 288 -75 302 -85 q 248 -63 274 -65 l 255 -6 q 46 8 151 -3 z "}}}
